<?xml version="1.0" encoding="UTF-8"?>
<svg id="Layer_2" data-name="Layer 2" xmlns="http://www.w3.org/2000/svg" viewBox="0 0 170.08 95.77">
  <defs>
    <style>
      .cls-1 {
        opacity: .46;
      }

      .cls-1, .cls-2, .cls-3, .cls-4, .cls-5, .cls-6, .cls-7, .cls-8, .cls-9, .cls-10, .cls-11, .cls-12 {
        fill: none;
        stroke: #fff;
        stroke-miterlimit: 10;
        stroke-width: .26px;
      }

      .cls-2 {
        opacity: .52;
      }

      .cls-3 {
        opacity: .16;
      }

      .cls-4 {
        opacity: .64;
      }

      .cls-13 {
        fill: #fff;
      }

      .cls-6 {
        opacity: .28;
      }

      .cls-7 {
        opacity: .34;
      }

      .cls-8 {
        opacity: .58;
      }

      .cls-9 {
        opacity: .22;
      }

      .cls-10 {
        opacity: .7;
      }

      .cls-11 {
        opacity: .4;
      }

      .cls-12 {
        opacity: .1;
      }
    </style>
  </defs>
  <g id="Layer_1-2" data-name="Layer 1">
    <g>
      <g>
        <path class="cls-12" d="M77.34,34.73c4.11-.82,2.72-6.12,5.41-8.88,3.64-3.74,7.14,1.29,7.3,9.92.09,4.85,13.16,6.06,14.46,8.1,3.54,5.58-11.37,9.18-6.04,17.08,2.6,3.86,2.99,8.19.01,11.08-.94.91-4.26,4.33-8.28.49-3.38-3.24-.59-11.84-5.96-13.03-5.64-1.24-10.11,3.19-12.66,4.78-2.7,1.68-3.94,2.14-4.18.82-.31-1.68,2.97-5.98,4.21-8.66,1.62-3.51,4.8-8.84-7.91-12.13-1.14-.3-3.74-1.24-5.33-2.04-3.27-1.66-5.64-6.06-4.06-9.37,1.82-3.79,4.98-8.35,9-7.91,5.4.6,7.89,10.99,14.02,9.76Z"/>
        <path class="cls-3" d="M82.94,23.28c.7-.56,1.32-.78,1.89-.72,1.36.14,2.6,1.01,3.52,2.64,1.22,2.16,1.96,4.88,2.42,8.5.06.49.11,1,.16,1.51.03.32.1.63.22.93.2.49.54.86.96,1.19s.91.63,1.46.91c2.64,1.33,6.46,2.16,9.54,2.94.38.1.74.19,1.09.3.54.18,1.04.41,1.43.65.68.42,1.06.82,1.2,1.2.4,1.13.32,2.1-.21,3.09-1.5,2.79-5.84,5.37-7.72,8.61-.36.62-.6,1.28-.61,2.02,0,.28.01.57.05.86.13,1,.51,2.04,1.21,3.17.35.57.67,1.14.94,1.72,1.74,3.62,1.83,7.34-.24,10.18-.4.55-1.43,1.72-2.93,2.17-.68.2-1.41.22-2.2.05-.84-.18-1.89-.69-3.04-1.73-3.43-3.11-1.5-11.21-6.78-12.58-2.29-.6-4.33-.34-6.07.24-2.77.92-4.99,2.62-6.69,3.66-2.03,1.25-5.1,3.05-5.65,2.84-.16,0-.3,0-.46-.09-.25-.14-.36-.45-.37-.8-.06-2.03,2.99-6.39,4.26-9.31.12-.29.26-.58.39-.88.73-1.65,1.49-3.52,1.25-5.39-.04-.32-.11-.64-.21-.95-.19-.62-.58-1.21-1.16-1.75-1.62-1.5-4.29-2.83-8.35-4.16-1.33-.44-3.92-1.5-5.55-2.38-.91-.49-1.72-1.15-2.34-2-.47-.64-.8-1.32-1.01-1.99s-.35-1.4-.36-2.1c0-1.01.24-2.02.84-2.94,2.11-3.27,5.4-7.18,9.3-7.14.15,0,.32,0,.51.02,1.1.09,2.17.53,3.08,1.04,2.38,1.33,4.29,4.17,6.73,5.36,1.17.57,2.43.81,3.92.35,2.81-.87,3.04-3.83,3.93-6.52.34-1.02.8-2.05,1.64-2.71Z"/>
        <path class="cls-9" d="M83.12,20.71c.8-.5,1.44-.46,2-.29,1.44.44,2.65,1.65,3.53,3.29,1.4,2.61,2.18,5.36,2.88,9.28.1.53.17,1.09.25,1.65.05.35.15.69.29,1.01.25.55.66.89,1.16,1.18s1.06.57,1.67.81c3.04,1.2,7.16,1.91,10.6,2.61.41.08.81.16,1.2.29.59.2,1.11.49,1.5.8.64.52.87,1.01.93,1.44.14,1.14-.04,2.12-.67,3.11-1.87,2.91-6.3,5.59-8.52,8.88-.43.63-.72,1.32-.68,2.12.01.3.05.61.1.91.18,1.07.6,2.2,1.28,3.38.35.61.67,1.23.96,1.85,1.77,3.83,2.01,7.72.45,10.88-.31.63-1.28,1.86-2.79,2.29-.71.2-1.42.15-2.2-.04s-1.83-.69-3.06-1.76c-3.46-2.99-2.4-10.58-7.59-12.14-2.34-.7-4.38-.59-6.03-.18-2.79.69-4.96,2.09-6.82,3.22-2.15,1.31-7.12,4.34-7.61,4.16-.22.06-.43.08-.67-.02-.39-.16-.54-.59-.51-1.06.15-2.36,3.01-6.81,4.32-9.97.13-.31.26-.62.4-.95.74-1.77,1.51-3.74,1.4-5.71-.02-.34-.06-.68-.13-1.02-.14-.69-.54-1.32-1.17-1.87-1.87-1.64-4.75-3.06-8.75-4.59-1.52-.58-4.1-1.77-5.77-2.71-.94-.53-1.75-1.2-2.3-2.15-.4-.69-.61-1.39-.68-2.03s-.07-1.29.04-1.91c.16-.89.54-1.79,1.24-2.61,2.49-2.9,6.08-6.37,10.09-6.34.13,0,.31,0,.52.02,1.08.06,2.25.41,3.14.66,2.34.66,4.19,2.77,6.57,3.37,1.12.29,2.33.31,3.74-.29,2.65-1.14,3-4.13,3.95-6.87.36-1.04.86-2.14,1.78-2.71Z"/>
        <path class="cls-6" d="M83.3,18.13c.91-.43,1.57-.18,2.12.15,1.51.88,2.68,2.29,3.53,3.94,1.58,3.06,2.39,5.85,3.33,10.06.13.57.24,1.18.35,1.78.08.38.19.75.36,1.09.29.61.79.91,1.35,1.17s1.21.5,1.88.71c3.45,1.06,7.85,1.67,11.66,2.29.45.07.89.14,1.31.28.63.21,1.19.56,1.57.95.6.61.7,1.19.66,1.69-.09,1.13-.4,2.14-1.14,3.13-2.25,3.02-6.76,5.81-9.33,9.15-.5.64-.83,1.36-.76,2.22.03.32.08.64.15.96.24,1.15.68,2.35,1.35,3.6.35.66.68,1.32.97,1.99,1.79,4.03,2.2,8.12,1.13,11.57-.23.73-1.13,1.99-2.65,2.41-.73.2-1.43.07-2.21-.12-.65-.17-1.76-.7-3.08-1.79-3.5-2.88-3.31-9.97-8.4-11.7-2.39-.81-4.44-.85-5.99-.61-2.82.44-4.93,1.56-6.96,2.77-2.28,1.37-9.13,5.63-9.56,5.47-.28.1-.55.17-.88.06-.53-.18-.72-.74-.65-1.31.34-2.69,3.03-7.22,4.37-10.62.13-.33.27-.67.41-1.01.76-1.89,1.53-3.97,1.55-6.03,0-.36-.02-.72-.06-1.08-.09-.76-.51-1.43-1.18-1.99-2.13-1.77-5.21-3.32-9.15-5.03-1.71-.74-4.28-2.04-5.99-3.05-.96-.57-1.77-1.25-2.26-2.29-.34-.73-.42-1.45-.35-2.06s.21-1.17.44-1.72c.32-.77.84-1.57,1.65-2.28,2.86-2.53,6.76-5.57,10.88-5.54.11,0,.3,0,.53.01,1.07.03,2.32.24,3.2.28,2.28.1,4.08,1.15,6.41,1.38,1.07.1,2.23-.18,3.56-.94,2.48-1.41,2.97-4.42,3.97-7.23.38-1.06.92-2.23,1.92-2.7Z"/>
        <path class="cls-7" d="M83.48,15.56c1.02-.37,1.69.12,2.23.58,1.57,1.35,2.71,2.94,3.54,4.6,1.75,3.52,2.6,6.33,3.79,10.85.16.61.3,1.27.45,1.91.1.41.24.81.42,1.18.34.67.91.94,1.54,1.16s1.35.43,2.1.61c3.87.92,8.54,1.43,12.71,1.96.49.06.96.11,1.42.27.67.23,1.27.62,1.64,1.09.56.7.53,1.37.39,1.94-.28,1.12-.77,2.16-1.61,3.16-2.64,3.12-7.22,6.03-10.14,9.42-.57.65-.95,1.4-.83,2.32.04.34.11.67.19,1.02.29,1.23.76,2.5,1.42,3.82.36.7.68,1.41.98,2.12,1.81,4.24,2.42,8.53,1.81,12.26-.13.82-.98,2.12-2.5,2.52-.75.2-1.44,0-2.21-.21-.55-.15-1.7-.7-3.11-1.81-3.52-2.77-4.22-9.36-9.21-11.26-2.44-.92-4.51-1.12-5.96-1.03-2.87.19-4.91,1.02-7.09,2.32-2.4,1.43-11.15,6.92-11.52,6.78-.34.15-.68.26-1.08.14-.67-.2-.91-.88-.79-1.57.52-3.03,3.05-7.63,4.43-11.27.13-.35.27-.71.41-1.08.77-2.02,1.56-4.19,1.7-6.36.02-.38.03-.76.02-1.14-.04-.83-.47-1.53-1.19-2.1-2.39-1.9-5.65-3.61-9.55-5.46-1.9-.9-4.47-2.3-6.22-3.39-.99-.62-1.81-1.3-2.22-2.44-.28-.78-.23-1.52-.02-2.09s.48-1.06.83-1.53c.48-.66,1.14-1.34,2.06-1.96,3.23-2.16,7.44-4.78,11.68-4.75.1,0,.3,0,.55,0,1.05.06,2.38.16,3.27-.1,2.22-.66,3.93,0,6.24-.61,1.01-.27,2.12-.67,3.37-1.58,2.32-1.67,2.93-4.71,3.98-7.58.4-1.08.98-2.32,2.06-2.7Z"/>
        <path class="cls-11" d="M83.66,12.99c1.14-.3,1.81.41,2.34,1.01,1.61,1.82,2.74,3.58,3.55,5.25,1.92,3.98,2.82,6.82,4.25,11.63.2.65.36,1.36.55,2.04.12.44.28.87.49,1.26.39.73,1.04.97,1.74,1.15s1.5.36,2.31.51c4.28.78,9.23,1.19,13.77,1.63.52.05,1.04.08,1.53.25.71.24,1.35.69,1.71,1.24.52.79.37,1.56.12,2.18-.46,1.11-1.13,2.17-2.08,3.18-3.02,3.22-7.68,6.25-10.95,9.69-.63.66-1.07,1.43-.9,2.43.06.36.15.71.24,1.07.34,1.31.84,2.65,1.49,4.03.36.75.68,1.5.99,2.26,1.84,4.44,2.66,8.95,2.49,12.95-.04.92-.83,2.26-2.36,2.64-.77.19-1.45-.07-2.22-.3-.46-.14-1.63-.71-3.13-1.84-3.55-2.67-5.12-8.76-10.03-10.81-2.49-1.04-4.59-1.41-5.92-1.46-2.92-.09-4.88.49-7.22,1.87-2.53,1.49-13.16,8.21-13.47,8.09-.4.19-.8.35-1.29.21-.81-.22-1.09-1.02-.93-1.82.69-3.36,3.07-8.05,4.48-11.92.14-.37.28-.76.42-1.14.79-2.14,1.59-4.41,1.85-6.68.05-.4.08-.8.09-1.2.02-.9-.44-1.64-1.2-2.22-2.65-2.02-6.09-3.9-9.95-5.9-2.08-1.08-4.65-2.57-6.44-3.72-1.02-.66-1.84-1.35-2.17-2.58-.22-.82-.04-1.58.31-2.13s.76-.94,1.23-1.34c.64-.54,1.44-1.12,2.47-1.63,3.6-1.8,8.13-3.98,12.47-3.95.08,0,.29,0,.56,0,1.04.04,2.45.05,3.33-.48,2.17-1.3,3.8-1.35,6.08-2.6.96-.53,2.02-1.17,3.19-2.22,2.15-1.93,2.9-5.01,4-7.94.42-1.1,1.05-2.4,2.2-2.7Z"/>
        <path class="cls-1" d="M83.85,10.42c1.25-.22,1.92.7,2.46,1.45,1.65,2.29,2.77,4.23,3.56,5.91,2.08,4.44,3.03,7.3,4.71,12.41.23.7.42,1.45.65,2.18.15.47.33.92.56,1.34.44.79,1.16.99,1.93,1.13s1.65.29,2.52.4c4.7.63,9.93.95,14.83,1.31.56.04,1.11.06,1.64.24.76.26,1.43.76,1.78,1.39.49.88.23,1.75-.15,2.43-.63,1.12-1.5,2.18-2.55,3.2-3.41,3.32-8.14,6.47-11.75,9.96-.7.68-1.19,1.47-.97,2.53.08.37.18.74.29,1.12.4,1.39.91,2.8,1.56,4.25.35.79.69,1.59,1.01,2.39,1.87,4.65,2.92,9.36,3.17,13.64.06,1.01-.68,2.39-2.22,2.75-.8.19-1.46-.14-2.22-.39-.36-.12-1.57-.72-3.16-1.87-3.57-2.57-6.02-8.17-10.84-10.37-2.54-1.16-4.66-1.72-5.88-1.88-2.98-.4-4.86-.04-7.36,1.42-2.65,1.56-15.18,9.5-15.43,9.4-.46.24-.92.43-1.5.29-.95-.24-1.28-1.17-1.07-2.08.87-3.7,3.08-8.46,4.54-12.57.14-.4.28-.8.43-1.2.8-2.27,1.62-4.64,2-7,.07-.42.13-.84.17-1.26.08-.97-.41-1.75-1.21-2.34-2.91-2.15-6.52-4.21-10.35-6.33-2.26-1.25-4.83-2.83-6.66-4.06-1.05-.7-1.88-1.4-2.13-2.72-.17-.87.14-1.65.64-2.16s1.03-.83,1.63-1.16c.79-.43,1.74-.89,2.87-1.3,3.96-1.43,8.81-3.18,13.26-3.15.07,0,.28,0,.57,0,1.03-.03,2.52-.07,3.39-.86,2.12-1.94,3.69-2.69,5.92-4.59.91-.78,1.92-1.66,3.01-2.86,1.99-2.19,2.86-5.3,4.02-8.29.44-1.12,1.12-2.47,2.34-2.69Z"/>
        <path class="cls-2" d="M84.03,7.85c1.36-.15,2.03.99,2.57,1.88,1.67,2.76,2.8,4.88,3.56,6.56,2.23,4.9,3.24,7.78,5.16,13.2.26.74.49,1.54.75,2.31.17.5.37.98.62,1.43.49.85,1.28,1.01,2.13,1.12.89.11,1.8.22,2.73.3,5.11.47,10.62.71,15.88.98.6.03,1.19.03,1.76.23.8.27,1.52.82,1.86,1.54.45.97.08,1.95-.42,2.67-.79,1.14-1.87,2.19-3.02,3.23-3.81,3.41-8.61,6.7-12.56,10.23-.77.69-1.31,1.51-1.05,2.63.09.39.21.78.33,1.17.45,1.47.99,2.95,1.63,4.46.35.84.69,1.68,1.02,2.53,1.89,4.85,3.18,9.76,3.86,14.34.16,1.1-.53,2.52-2.07,2.87-.82.18-1.46-.21-2.23-.48-.27-.09-1.5-.73-3.18-1.9-3.58-2.47-6.91-7.58-11.65-9.93-2.58-1.28-4.73-2.03-5.85-2.3-3.03-.74-4.83-.58-7.49.97-2.77,1.62-17.2,10.78-17.38,10.72-.52.29-1.05.52-1.71.37-1.09-.25-1.47-1.31-1.21-2.33,1.04-4.04,3.1-8.88,4.59-13.23.14-.42.29-.84.44-1.27.82-2.39,1.64-4.86,2.15-7.32.09-.44.18-.88.24-1.32.14-1.04-.37-1.85-1.22-2.46-3.17-2.27-6.94-4.52-10.75-6.77-2.43-1.44-5.01-3.1-6.88-4.39-1.08-.75-1.92-1.44-2.09-2.87-.11-.91.33-1.71.98-2.2s1.3-.72,2.02-.97c.94-.32,2.04-.67,3.28-.98,4.33-1.07,9.49-2.38,14.05-2.35.05,0,.27,0,.59,0,1.01-.05,2.6-.18,3.46-1.24,2.08-2.58,3.6-4.02,5.75-6.58.87-1.03,1.82-2.15,2.83-3.5,1.83-2.46,2.82-5.59,4.04-8.65.45-1.15,1.18-2.55,2.48-2.69Z"/>
        <path class="cls-8" d="M84.21,5.28c1.47-.07,2.14,1.28,2.69,2.32,1.7,3.23,2.82,5.52,3.57,7.22,2.38,5.37,3.46,8.27,5.62,13.98.3.78.55,1.63.85,2.44.19.53.42,1.04.69,1.51.54.91,1.41,1.04,2.32,1.11.97.08,1.95.15,2.94.2,5.53.32,11.31.48,16.94.65.63.02,1.26,0,1.87.21.84.29,1.61.89,1.93,1.68.42,1.06-.06,2.15-.69,2.92-.96,1.17-2.24,2.21-3.49,3.25-4.2,3.51-9.07,6.92-13.37,10.5-.84.7-1.43,1.55-1.12,2.73.11.41.25.81.38,1.22.5,1.55,1.07,3.1,1.7,4.68.35.89.7,1.77,1.03,2.66,1.92,5.06,3.45,10.15,4.54,15.03.27,1.19-.38,2.65-1.93,2.98-.84.18-1.47-.28-2.23-.56-.18-.07-1.43-.75-3.21-1.92-3.6-2.38-7.81-6.99-12.46-9.49-2.63-1.41-4.8-2.36-5.81-2.73-3.06-1.12-4.8-1.11-7.63.52-2.9,1.68-19.21,12.07-19.33,12.03-.59.33-1.17.61-1.92.45-1.23-.27-1.66-1.46-1.35-2.59,1.2-4.39,3.12-9.29,4.64-13.88.15-.44.3-.89.44-1.33.83-2.52,1.68-5.08,2.3-7.65.11-.46.24-.92.32-1.38.2-1.11-.34-1.96-1.23-2.58-3.43-2.39-7.36-4.84-11.14-7.21-2.6-1.63-5.19-3.37-7.1-4.73-1.11-.79-1.96-1.49-2.05-3.01-.06-.95.51-1.78,1.31-2.23s1.58-.61,2.42-.78c1.1-.21,2.33-.45,3.69-.65,4.7-.72,10.17-1.58,14.85-1.55.03,0,.26,0,.6-.01,1-.06,2.67-.3,3.52-1.63,2.05-3.22,3.52-5.35,5.59-8.57.83-1.29,1.72-2.64,2.64-4.14,1.67-2.72,2.79-5.89,4.05-9,.47-1.17,1.24-2.62,2.62-2.69Z"/>
        <path class="cls-4" d="M84.39,2.71c1.58.03,2.25,1.57,2.8,2.75,1.72,3.69,2.84,6.17,3.58,7.87,2.52,5.84,3.67,8.75,6.08,14.77.33.82.61,1.71.95,2.58.22.56.46,1.1.76,1.59.58.97,1.53,1.06,2.52,1.1,1.04.04,2.1.07,3.16.1,5.94.16,12.01.24,17.99.33.67.01,1.34-.02,1.98.2.88.3,1.69.95,2,1.83.4,1.15-.21,2.36-.96,3.16-1.13,1.2-2.61,2.22-3.96,3.27-4.6,3.59-9.53,7.14-14.17,10.77-.91.71-1.55,1.59-1.19,2.83.12.43.28.85.43,1.27.56,1.63,1.15,3.26,1.77,4.9.35.93.7,1.86,1.04,2.8,1.94,5.26,3.72,10.54,5.22,15.72.37,1.28-.23,2.78-1.78,3.1-.87.17-1.54-.22-2.24-.65-.09-.02-1.36-.76-3.23-1.95-3.62-2.29-8.7-6.41-13.28-9.04-2.67-1.53-4.85-2.69-5.78-3.15-3.06-1.53-4.78-1.64-7.76.07-3.02,1.74-21.23,13.36-21.29,13.34-.65.38-1.29.7-2.12.52-1.37-.29-1.85-1.6-1.49-2.84,1.37-4.73,3.14-9.71,4.7-14.53.15-.46.3-.93.45-1.4.85-2.64,1.7-5.3,2.45-7.97.13-.48.29-.96.39-1.44.26-1.18-.31-2.07-1.24-2.7-3.7-2.51-7.78-5.15-11.54-7.64-2.76-1.82-5.37-3.63-7.32-5.06-1.13-.83-2-1.54-2.01-3.16,0-1,.7-1.85,1.64-2.26s1.85-.51,2.82-.59c1.26-.11,2.63-.22,4.1-.32,5.07-.35,10.85-.78,15.64-.76.02,0,.25.01.61-.02.99-.08,2.75-.41,3.58-2.01,2.01-3.86,3.44-6.7,5.43-10.56.79-1.55,1.62-3.12,2.46-4.78,1.52-2.97,2.75-6.18,4.07-9.35.49-1.19,1.31-2.72,2.76-2.68Z"/>
        <path class="cls-10" d="M70.05,30.51c1.98-4.5,3.37-8.05,5.26-12.56,2.12-5.04,4.23-10.09,6.36-15.13.51-1.21,1.37-2.77,2.9-2.68,1.69.09,2.36,1.86,2.91,3.18,1.73,4.16,2.87,6.82,3.58,8.52,2.65,6.31,3.88,9.24,6.54,15.55.6,1.42,1.06,3.07,1.87,4.38.63,1.03,1.66,1.09,2.71,1.09h22.42c.71,0,1.41-.04,2.09.19.92.32,1.78,1.02,2.07,1.98.37,1.24-.35,2.57-1.23,3.41-1.31,1.24-2.98,2.23-4.43,3.29-4.99,3.68-9.99,7.36-14.98,11.04-.98.72-1.67,1.62-1.26,2.94.14.45.32.88.48,1.32.96,2.68,1.93,5.36,2.89,8.05,1.97,5.47,3.99,10.92,5.9,16.41.48,1.37-.08,2.92-1.64,3.22-.89.17-1.56-.28-2.24-.74,0,0-20.07-12.18-23.08-14.15-3.01-1.97-4.75-2.18-7.9-.38-3.15,1.8-23.24,14.65-23.24,14.65-.71.43-1.42.79-2.33.6-1.51-.31-2.04-1.75-1.63-3.1,1.69-5.56,3.47-11.1,5.21-16.64.87-2.76,1.73-5.53,2.6-8.29.16-.5.34-1,.47-1.5.33-1.25-.28-2.17-1.25-2.81-7.04-4.67-14.94-10.05-19.49-13.47-1.16-.87-2.05-1.59-1.97-3.3.05-1.04.88-1.92,1.97-2.3s2.13-.4,3.22-.4c6.31,0,14.63.05,20.94.05,0,0,3.14.17,4.27-2.41Z"/>
      </g>
      <g>
        <path class="cls-5" d="M70.32,29.87c2.23-5.22,3.14-7.6,5.01-11.93,2.17-5.02,4.23-10.09,6.36-15.13.51-1.21,1.37-2.77,2.9-2.68,1.69.09,2.42,1.84,2.91,3.18.63,1.74,1.44,3.43,2.16,5.13,2.65,6.31,5.3,12.62,7.96,18.93.6,1.42,1.06,3.06,1.87,4.38.63,1.03,1.66,1.09,2.71,1.09h22.4c.71,0,1.41-.04,2.09.19.92.32,1.78,1.02,2.07,1.98.37,1.24-.35,2.57-1.23,3.41-1.31,1.24-2.98,2.23-4.42,3.29-4.99,3.68-9.98,7.36-14.97,11.03-.98.72-1.67,1.62-1.26,2.94.14.45.32.88.48,1.32l2.89,8.04c1.97,5.47,3.99,10.92,5.9,16.41.48,1.37-.08,2.92-1.64,3.22-.89.17-1.56-.28-2.24-.74-1.92-1.29-4.03-2.11-5.95-3.4-5.71-3.83-8.91-5.36-14.62-9.2-1.21-.81-3.29-2.01-4.57-2.72-1.8-1-2.83-.98-4.85.1-3.55,1.89-8.49,5.44-15.56,9.74-2.44,1.49-6.71,4.11-8.65,5.48-.69.49-1.36.94-2.28.76-1.51-.31-2.06-1.78-1.65-3.13,1.69-5.56,3.47-11.09,5.21-16.64.86-2.76,1.73-5.53,2.59-8.29.16-.5.34-1,.47-1.5.33-1.25-.3-2.13-1.25-2.81-5.03-3.61-10.63-7.22-15.66-10.83-1.46-1.05-2.93-2.08-4.38-3.14-.95-.7-1.55-1.74-1.4-3.05.12-1.04,1.06-1.7,1.97-2.04,1.04-.39,4.81-.4,5.9-.4h18.12c2.69,0,3.92-1.15,4.62-2.98Z"/>
        <path class="cls-5" d="M84.59,1.82c1.58-.08,2.33,1.4,2.87,2.51.5,1.02,1.08,2.04,1.67,3.08.25.43.49.87.73,1.31,1.24,2.27,2.5,4.61,3.72,7.03,1.76,3.48,3.43,7.16,4.95,10.89.58,1.42,1.01,3.06,1.74,4.4.56,1.03,1.47,1.17,2.39,1.27.42.04.84.09,1.25.13.55.06,1.1.11,1.64.16,1.31.12,2.6.23,3.93.37,1.79.19,3.7.4,5.71.54,2.66.18,5.39.18,8.1.23.7.01,1.4,0,2.07.23.14.05.28.11.42.18.75.37,1.4.98,1.67,1.76.41,1.2-.15,2.53-.95,3.38-1.13,1.21-2.62,2.22-3.94,3.34-3.38,2.86-6.92,5.7-10.66,8.47-1.1.81-2.25,1.66-3.4,2.53-.94.7-1.61,1.56-1.32,2.8.1.42.24.84.35,1.25.49,1.78.98,3.55,1.51,5.29.24.79.47,1.59.71,2.39.96,3.22,2.21,6.35,3.28,9.49.73,2.14,1.4,4.31,2.04,6.44.39,1.28-.17,2.74-1.68,3.07-.84.18-1.49-.19-2.15-.58-1.85-1.08-3.9-1.75-5.77-2.86-4.26-2.54-7.18-3.94-10.82-6.09-1.08-.64-2.22-1.34-3.46-2.16-1.19-.79-3.13-1.96-4.33-2.71-1.62-1.01-2.54-1.02-4.35-.25-1.93.82-4.07,1.71-7.74,3.62-2.09,1.09-4.55,2.47-7.2,4.01-.37.21-.77.45-1.2.7-2.31,1.39-5.94,3.57-7.86,4.77-.46.29-.91.57-1.4.7-.3.08-.62.1-.98.04-1.54-.27-2.26-1.63-2-2.94.46-2.32,1.1-4.75,1.8-7.14.91-3.14,2.07-6.12,3.23-9.05.65-1.64,1.3-3.27,1.95-4.9.37-.95.75-1.89,1.11-2.85.18-.47.38-.95.53-1.43.38-1.2-.12-2.07-.94-2.76-4.34-3.63-9.77-7.2-15.23-10.72-1.47-.95-2.94-1.92-4.42-2.89-.97-.64-1.68-1.57-1.69-2.79-.02-.96.74-1.57,1.42-1.97.76-.44,3.95-.71,4.83-.93,5.21-1.31,12.21-1.55,17.3-1.68,2.67-.05,4.02-1.06,4.88-2.6.38-.65.74-1.22,1.05-1.76,1.81-3.14,2.85-4.89,4.71-7.97,1.58-2.61,3.21-5.35,4.74-8.57.91-1.92,1.65-3.86,2.42-5.82.49-1.25,1.3-2.84,2.76-2.92Z"/>
        <path class="cls-5" d="M84.6,3.5c1.47-.25,2.24.96,2.83,1.84.54.81,1.18,1.64,1.84,2.52.27.36.54.74.81,1.11,1.39,1.95,2.82,4.03,4.18,6.29,1.96,3.25,3.73,6.89,5.2,10.61.56,1.43.97,3.06,1.61,4.41.49,1.02,1.29,1.26,2.07,1.44.36.09.71.17,1.06.26.46.11.92.22,1.36.32,1.07.24,2.11.46,3.24.74,1.51.37,3.26.81,5.21,1.08,2.59.37,5.32.36,8.01.46.7.03,1.39.03,2.05.27.14.05.28.11.42.18.75.37,1.4.96,1.69,1.73.46,1.16.04,2.48-.67,3.36-.96,1.17-2.26,2.21-3.45,3.38-2.95,2.9-6.2,5.77-9.87,8.5-1.03.76-2.15,1.6-3.29,2.46-.9.67-1.56,1.5-1.37,2.66.06.4.16.79.23,1.19.3,1.71.63,3.4,1.02,5.02.18.77.35,1.53.52,2.29.74,3.19,2.06,6.17,3.02,9.2.66,2.08,1.21,4.21,1.72,6.24.3,1.18-.26,2.56-1.72,2.93-.79.2-1.42-.11-2.06-.42-1.78-.88-3.76-1.39-5.59-2.33-4.11-2.11-7.03-3.32-10.56-5.28-1.06-.59-2.18-1.24-3.37-2.01s-2.97-1.92-4.09-2.71c-1.45-1.02-2.26-1.04-3.86-.61s-3.03.3-6.75,1.79c-2.17.87-4.81,2.19-7.58,3.72-.39.22-.81.45-1.25.7-2.16,1.26-6.04,3.54-8.21,4.75-.5.28-.97.55-1.47.67-.31.07-.65.1-1.01.04-1.57-.23-2.47-1.47-2.36-2.75.19-2.22.73-4.67,1.36-7.03.84-3.15,2.15-5.99,3.5-8.72.76-1.53,1.51-3.04,2.25-4.53.43-.88.86-1.77,1.26-2.67.2-.45.42-.9.6-1.36.43-1.14.06-2.01-.64-2.7-3.65-3.65-8.89-7.18-14.81-10.6-1.48-.85-2.96-1.76-4.46-2.65-.99-.58-1.8-1.41-1.99-2.53-.15-.87.42-1.45.88-1.89.5-.48,3.14-.88,3.75-1.47,4.3-1.7,11.16-3.1,16.48-3.37,2.65-.09,4.13-.97,5.13-2.21.43-.53.85-.97,1.19-1.38,1.99-2.43,3.2-3.69,5.32-6.13,1.81-2.1,3.77-4.41,5.51-7.7,1.03-1.94,1.72-3.93,2.46-5.95.47-1.29,1.22-2.92,2.62-3.15Z"/>
        <path class="cls-5" d="M84.61,5.18c1.36-.41,2.15.51,2.79,1.17.59.6,1.27,1.24,2,1.96.3.3.6.6.89.92,1.54,1.63,3.14,3.46,4.64,5.55,2.16,3.01,4.04,6.61,5.46,10.33.55,1.43.92,3.05,1.48,4.42.42,1.02,1.1,1.34,1.76,1.62.3.13.59.26.87.38.38.17.73.32,1.08.48.83.36,1.63.7,2.54,1.11,1.23.55,2.81,1.21,4.71,1.62,2.52.55,5.25.54,7.92.7.69.04,1.37.06,2.03.31.14.05.28.11.42.18.75.37,1.39.95,1.72,1.69.5,1.13.24,2.43-.39,3.33-.79,1.11-1.9,2.2-2.96,3.42-2.52,2.92-5.49,5.85-9.08,8.52-.96.71-2.04,1.54-3.17,2.4-.85.65-1.51,1.44-1.42,2.52.03.38.09.75.11,1.12.12,1.65.27,3.26.52,4.74.12.74.22,1.47.34,2.2.52,3.16,1.91,6,2.76,8.9.59,2.01,1.02,4.1,1.4,6.05.21,1.09-.34,2.38-1.76,2.78-.74.21-1.35-.02-1.97-.27-1.71-.67-3.62-1.03-5.41-1.79-3.95-1.69-6.87-2.7-10.31-4.47-1.04-.54-2.14-1.14-3.28-1.87s-2.82-1.87-3.85-2.7c-1.28-1.03-2.05-1.29-3.36-.96-1.34-.19-2-1.11-5.76-.03-2.25.65-5.08,1.91-7.95,3.43-.41.22-.86.45-1.3.7-2,1.14-6.13,3.51-8.56,4.74-.53.26-1.03.52-1.54.64-.32.07-.67.1-1.05.05-1.6-.2-2.67-1.31-2.71-2.56-.07-2.12.35-4.59.92-6.92.77-3.16,2.23-5.85,3.77-8.39.86-1.42,1.72-2.8,2.54-4.17.49-.82.98-1.64,1.42-2.49.23-.43.47-.85.66-1.29.48-1.08.24-1.94-.33-2.65-2.96-3.65-8-7.17-14.39-10.48-1.48-.77-2.97-1.6-4.51-2.4-1.01-.52-1.92-1.24-2.29-2.27-.28-.79.11-1.34.33-1.81.26-.56,2.3-1.12,2.67-2,3.29-2.55,10.12-4.65,15.66-5.05,2.63-.14,4.24-.87,5.39-1.83.48-.41.95-.7,1.33-1,2.13-1.69,3.58-2.5,5.92-4.3,2.07-1.59,4.32-3.47,6.27-6.82,1.15-1.97,1.8-4,2.5-6.08.45-1.32,1.14-2.99,2.49-3.39Z"/>
        <path class="cls-5" d="M84.61,6.87c1.24-.56,2.05.07,2.75.5.63.39,1.37.85,2.17,1.41.33.23.65.47.98.73,1.69,1.31,3.46,2.88,5.1,4.81,2.37,2.77,4.34,6.33,5.72,10.05.53,1.44.87,3.05,1.35,4.44.35,1.01.92,1.43,1.44,1.8.24.17.46.35.68.51.29.22.55.43.8.63.6.49,1.14.93,1.85,1.47.96.74,2.37,1.61,4.21,2.16,2.45.73,5.18.71,7.83.93.69.06,1.36.1,2.02.35.14.05.28.11.41.18.74.37,1.39.93,1.75,1.65.54,1.09.44,2.37-.11,3.31-.63,1.05-1.55,2.18-2.47,3.47-2.1,2.92-4.78,5.92-8.29,8.55-.89.66-1.94,1.47-3.06,2.33-.81.63-1.45,1.38-1.48,2.38,0,.35,0,.7,0,1.05-.07,1.58-.09,3.12.03,4.47.06.71.09,1.42.16,2.11.29,3.14,1.75,5.83,2.5,8.61.52,1.95.84,3.98,1.08,5.85.13.99-.43,2.19-1.8,2.64-.69.22-1.28.06-1.88-.11-1.64-.47-3.48-.67-5.23-1.25-3.78-1.27-6.72-2.08-10.05-3.66-1.03-.49-2.1-1.04-3.19-1.73s-2.66-1.81-3.61-2.69c-1.11-1.03-1.78-1.4-2.86-1.31-1.02-.66-.98-2.53-4.77-1.85-2.33.42-5.34,1.63-8.33,3.13-.44.22-.9.45-1.35.7-1.84,1.03-6.22,3.49-8.92,4.72-.56.25-1.08.5-1.61.61-.33.07-.69.09-1.08.06-1.62-.16-2.87-1.15-3.07-2.37-.33-2.01-.03-4.5.48-6.81.7-3.18,2.32-5.72,4.04-8.05.97-1.31,1.94-2.57,2.84-3.8.55-.76,1.09-1.52,1.58-2.3.25-.4.51-.8.72-1.22.53-1.03.42-1.88-.03-2.59-2.27-3.65-7.1-7.19-13.96-10.36-1.48-.68-2.98-1.45-4.55-2.15-1.03-.46-2.04-1.07-2.58-2.01-.41-.7-.21-1.26-.21-1.73,0-.66,1.46-1.35,1.59-2.54,2.29-3.4,9.08-6.2,14.84-6.73,2.6-.18,4.35-.78,5.65-1.45.53-.29,1.04-.44,1.47-.63,2.21-.96,3.98-1.29,6.53-2.47,2.34-1.08,4.86-2.53,7.04-5.95,1.27-1.99,1.87-4.06,2.54-6.22.43-1.36,1.05-3.05,2.35-3.63Z"/>
        <path class="cls-5" d="M84.62,8.55c1.13-.69,1.95-.37,2.71-.17.67.18,1.46.45,2.33.85.35.16.7.34,1.06.53,1.83.98,3.79,2.31,5.56,4.07,2.57,2.54,4.64,6.05,5.97,9.77.52,1.45.83,3.04,1.23,4.45.28,1.01.74,1.51,1.13,1.98.18.22.34.43.49.64.2.28.36.54.52.79.36.61.66,1.17,1.15,1.84.68.92,1.93,2.02,3.71,2.7,2.37.91,5.1.89,7.74,1.16.68.07,1.35.14,2,.38.14.05.28.11.41.18.74.37,1.39.92,1.77,1.61.59,1.05.64,2.31.17,3.29s-1.2,2.15-1.99,3.51c-1.69,2.9-4.06,5.99-7.5,8.58-.81.61-1.84,1.4-2.94,2.26-.77.6-1.4,1.32-1.53,2.24-.05.33-.07.66-.13.98-.26,1.52-.46,2.98-.46,4.19,0,.69-.04,1.36-.03,2.02.06,3.12,1.6,5.66,2.24,8.32.45,1.89.66,3.86.76,5.66.05.89-.52,2.01-1.84,2.49-.64.23-1.21.15-1.79.05-1.56-.27-3.33-.31-5.04-.72-3.61-.86-6.57-1.46-9.8-2.85-1.01-.44-2.06-.94-3.1-1.58-1.12-.69-2.5-1.75-3.37-2.69-.95-1.02-1.52-1.5-2.36-1.66-.71-1.12.04-3.96-3.77-3.67-2.42.18-5.6,1.35-8.71,2.84-.46.22-.94.45-1.41.7-1.67.91-6.3,3.47-9.27,4.71-.59.25-1.14.48-1.69.58-.34.06-.71.09-1.12.06-1.65-.13-3.06-.99-3.42-2.17-.58-1.89-.41-4.42.03-6.7.63-3.19,2.4-5.58,4.31-7.72,1.07-1.2,2.16-2.33,3.14-3.44.62-.69,1.21-1.39,1.74-2.12.28-.38.55-.76.79-1.15.58-.97.59-1.81.28-2.54-1.59-3.63-6.18-7.22-13.54-10.24-1.48-.61-2.99-1.29-4.59-1.9-1.05-.4-2.15-.91-2.88-1.75-.53-.62-.57-1.18-.75-1.66-.3-.76.62-1.59.52-3.07,1.28-4.25,8.04-7.75,14.02-8.41,2.58-.23,4.46-.69,5.9-1.06.58-.18,1.16-.05,1.61-.25,2.06-.92,4.4-.07,7.13-.64s5.41-1.6,7.8-5.08c1.38-2.02,1.94-4.13,2.59-6.35.41-1.4.97-3.1,2.22-3.87Z"/>
        <path class="cls-5" d="M84.63,10.23c1.02-.83,1.85-.81,2.67-.84.71-.03,1.55.06,2.5.29.38.09.76.21,1.14.34,1.98.66,4.11,1.73,6.02,3.33,2.77,2.3,4.94,5.77,6.23,9.5.5,1.45.79,3.04,1.1,4.46.22,1,.55,1.6.81,2.16.12.26.22.52.3.77.11.34.18.65.23.95.13.73.17,1.4.46,2.21.4,1.11,1.49,2.42,3.21,3.24,2.3,1.1,5.03,1.07,7.65,1.39.67.08,1.34.17,1.98.42.14.05.27.11.41.18.74.37,1.39.9,1.8,1.57.63,1.01.83,2.23.45,3.26-.33.9-.85,2.12-1.5,3.56-1.29,2.88-3.35,6.07-6.71,8.61-.74.56-1.74,1.34-2.82,2.2-.73.58-1.36,1.26-1.58,2.1-.08.31-.15.61-.25.91-.46,1.46-.85,2.85-.95,3.92-.07.67-.18,1.3-.21,1.92-.19,3.1,1.44,5.49,1.98,8.03.38,1.83.49,3.74.45,5.47-.02.79-.61,1.82-1.88,2.35-.59.24-1.13.23-1.7.21-1.48-.07-3.19.04-4.86-.18-3.43-.45-6.42-.83-9.54-2.04-1-.39-2.02-.84-3.01-1.44-1.1-.66-2.35-1.69-3.13-2.68s-1.26-1.61-1.87-2.01c-.4-1.59,1.06-5.4-2.78-5.49-2.51-.06-5.87,1.06-9.08,2.55-.48.22-.98.45-1.46.71-1.51.8-6.39,3.46-9.62,4.69-.62.24-1.2.45-1.76.55-.35.06-.73.09-1.15.07-1.68-.09-3.25-.83-3.77-1.98-.82-1.79-.8-4.34-.41-6.59.55-3.2,2.49-5.45,4.58-7.38,1.18-1.08,2.38-2.09,3.44-3.08.68-.63,1.32-1.27,1.9-1.94.3-.35.6-.71.85-1.08.63-.92.77-1.73.58-2.48-.92-3.6-5.26-7.28-13.12-10.12-1.47-.53-3-1.13-4.63-1.65-1.07-.34-2.26-.74-3.18-1.5-.65-.53-.93-1.07-1.3-1.58-.62-.83-.44-1.8-.56-3.61-.35-5.09,6.99-9.3,13.2-10.1,2.56-.28,4.57-.6,6.16-.68.63-.06,1.21.05,1.76.12,2.26.31,4.83.89,7.73,1.19s5.96-.66,8.57-4.21c1.5-2.04,2.01-4.2,2.63-6.48.39-1.44.89-3.14,2.08-4.1Z"/>
        <path class="cls-5" d="M84.63,11.92c.92-.95,1.75-1.24,2.63-1.51.75-.23,1.65-.33,2.66-.26.4.03.81.08,1.22.14,2.13.34,4.43,1.16,6.48,2.59,2.97,2.06,5.25,5.49,6.49,9.22.48,1.46.75,3.03.97,4.48.15,1,.37,1.69.49,2.34.06.31.09.61.11.9.02.39,0,.76-.05,1.11-.11.85-.32,1.64-.23,2.58.12,1.3,1.05,2.82,2.7,3.78,2.23,1.28,4.96,1.25,7.55,1.63.67.1,1.33.21,1.96.46.14.05.27.12.41.18.74.37,1.38.89,1.83,1.53.67.98,1,2.15.73,3.24-.21.81-.52,2.08-1.01,3.6-.92,2.84-2.64,6.14-5.93,8.64-.67.51-1.64,1.27-2.71,2.13-.69.56-1.31,1.2-1.64,1.96-.12.29-.24.57-.37.84-.67,1.4-1.24,2.71-1.44,3.65-.14.65-.31,1.25-.4,1.83-.45,3.08,1.29,5.31,1.72,7.74.31,1.76.33,3.61.13,5.27-.08.69-.69,1.63-1.92,2.2-.54.25-1.06.31-1.61.36-1.41.12-3.04.39-4.68.36-3.25-.06-6.27-.2-9.29-1.23-.98-.33-1.98-.74-2.92-1.29-1.09-.64-2.2-1.62-2.89-2.67-.64-.98-1-1.71-1.37-2.37-.08-2.06,2.08-6.85-1.79-7.31-2.59-.31-6.13.77-9.46,2.26-.5.22-1.01.45-1.51.71-1.34.69-6.48,3.44-9.98,4.68-.65.23-1.26.43-1.83.52-.36.06-.76.09-1.18.07-1.71-.06-3.43-.67-4.13-1.79-1.06-1.68-1.18-4.25-.85-6.48.47-3.22,2.57-5.31,4.85-7.05,1.28-.97,2.6-1.85,3.74-2.71.75-.56,1.44-1.14,2.06-1.76.32-.33.64-.66.91-1.01.68-.86.94-1.66.88-2.43-.27-3.56-4.32-7.36-12.69-10-1.47-.46-3.02-.97-4.68-1.41-1.09-.28-2.37-.58-3.47-1.24-.77-.45-1.28-.96-1.84-1.5-.93-.89-1.21-2.03-1.64-4.14-1.18-5.87,5.95-10.85,12.38-11.78,2.54-.32,4.67-.51,6.42-.29.68.06,1.3.28,1.9.5,2.33.87,5.22,2.46,8.34,3.02s6.5.27,9.33-3.33c1.61-2.07,2.09-4.27,2.67-6.62.37-1.48.82-3.17,1.94-4.34Z"/>
        <path class="cls-5" d="M84.64,13.6c.82-1.08,1.66-1.68,2.59-2.18.8-.43,1.74-.72,2.83-.82.43-.04.86-.05,1.31-.05,2.28.02,4.75.59,6.94,1.85,3.17,1.82,5.55,5.21,6.74,8.94.47,1.46.71,3.02.84,4.49.09.99.18,1.77.18,2.52,0,.35-.03.69-.08,1.03-.06.45-.19.86-.33,1.27-.34.97-.81,1.87-.93,2.95-.17,1.49.6,3.23,2.2,4.32,2.16,1.47,4.89,1.43,7.46,1.86.66.11,1.32.25,1.94.5.14.06.27.12.4.18.74.37,1.38.87,1.85,1.49.72.94,1.15,2.07,1.01,3.21-.09.72-.2,2.04-.52,3.64-.57,2.8-1.92,6.21-5.14,8.67-.6.45-1.54,1.21-2.59,2.06-.65.53-1.27,1.14-1.69,1.82-.16.26-.32.52-.49.78-.88,1.33-1.65,2.58-1.93,3.37-.23.63-.45,1.19-.58,1.74-.73,3.05,1.13,5.14,1.46,7.45.24,1.7.19,3.49-.19,5.08-.14.58-.79,1.44-1.97,2.06-.5.26-.99.39-1.52.52-1.33.32-2.89.73-4.5.89-3.07.32-6.13.43-9.04-.42-.97-.28-1.94-.64-2.83-1.15-1.07-.61-2.07-1.54-2.65-2.67-.49-.95-.85-1.81-.87-2.72-.06-2.53,3.11-8.31-.8-9.13-2.67-.56-6.4.49-9.83,1.97-.52.22-1.05.45-1.56.71-1.18.59-6.56,3.43-10.33,4.66-.68.22-1.31.41-1.9.49-.37.05-.78.09-1.22.08-1.73-.02-3.61-.52-4.48-1.6-1.29-1.58-1.56-4.17-1.29-6.37.4-3.23,2.66-5.18,5.12-6.71,1.38-.86,2.82-1.61,4.04-2.35.82-.49,1.56-1.01,2.21-1.58.35-.3.68-.61.97-.93.73-.8,1.11-1.59,1.19-2.37.36-3.53-3.39-7.47-12.27-9.88-1.46-.4-3.03-.82-4.72-1.16-1.11-.23-2.48-.43-3.77-.98-.89-.38-1.63-.84-2.39-1.42-1.23-.94-1.99-2.27-2.72-4.68-2.02-6.71,4.91-12.4,11.56-13.46,2.51-.37,4.78-.42,6.67.09.73.18,1.4.5,2.04.88,2.44,1.43,5.61,3.73,8.94,4.85s7.04,1.21,10.1-2.46c1.73-2.09,2.16-4.33,2.71-6.75.35-1.52.76-3.21,1.81-4.58Z"/>
        <path class="cls-5" d="M84.65,15.28c.73-1.21,1.57-2.11,2.55-2.85.84-.63,1.83-1.11,2.99-1.38.45-.1.92-.18,1.39-.24,2.43-.3,5.07.01,7.4,1.11,3.37,1.59,5.85,4.94,7,8.66.45,1.47.67,3.02.71,4.5.02.98,0,1.86-.14,2.7-.07.39-.15.78-.27,1.15-.15.5-.37.97-.61,1.43-.58,1.09-1.3,2.11-1.62,3.32-.45,1.68.16,3.64,1.7,4.86,2.08,1.66,4.82,1.61,7.37,2.09.66.13,1.31.28,1.93.54.13.06.27.12.4.18.74.37,1.38.86,1.88,1.45.76.9,1.27,2,1.28,3.19,0,.63.11,2.01-.04,3.69-.24,2.78-1.21,6.29-4.35,8.7-.53.4-1.44,1.14-2.48,2-.61.51-1.23,1.08-1.74,1.68-.2.24-.41.48-.61.71-1.1,1.25-2.07,2.43-2.43,3.1-.32.6-.59,1.13-.77,1.65-1.02,3.02.97,4.97,1.2,7.16.17,1.64.08,3.38-.51,4.88-.19.49-.88,1.24-2.01,1.91-.45.27-.92.47-1.43.68-1.26.5-2.75,1.06-4.32,1.43-2.9.68-5.98,1.06-8.78.39-.95-.23-1.9-.54-2.74-1-1.05-.58-1.95-1.46-2.41-2.66-.36-.92-.53-1.92-.37-3.07.41-3.01,4.14-9.78.19-10.95-2.75-.82-6.66.2-10.21,1.68-.55.23-1.09.46-1.62.71-1.01.48-6.65,3.43-10.68,4.65-.71.21-1.37.38-1.97.46-.38.05-.8.08-1.25.09-1.76.01-3.79-.37-4.84-1.4-1.52-1.49-1.95-4.09-1.74-6.26.31-3.24,2.74-5.04,5.39-6.38,1.49-.75,3.04-1.36,4.34-1.98.88-.42,1.68-.89,2.37-1.4.38-.28.73-.56,1.04-.86.78-.75,1.27-1.52,1.49-2.31.98-3.52-2.45-7.6-11.85-9.76-1.46-.34-3.04-.66-4.76-.91-1.13-.17-2.59-.28-4.07-.72-1.01-.3-1.98-.73-2.93-1.34-1.53-.99-2.78-2.53-3.8-5.21-2.87-7.59,3.86-13.95,10.74-15.14,2.49-.41,4.89-.32,6.93.48.78.3,1.5.73,2.18,1.25,2.58,2.01,5.99,5.01,9.55,6.68,3.73,1.76,7.59,2.14,10.86-1.59,1.85-2.12,2.23-4.4,2.75-6.88.33-1.56.71-3.24,1.67-4.81Z"/>
        <path class="cls-5" d="M80.33,29.03c3.2-3.48,2.08-7.45,4.33-12.07,1.21-2.48,3.01-4.51,5.67-5.46,2.95-1.05,6.39-1.18,9.33-.07,6.32,2.39,9.56,10.93,6.92,17.06-.82,1.9-2.46,3.37-3.21,5.27-.74,1.87-.28,4.04,1.2,5.4,2.64,2.42,6.54,1.56,9.58,3.09,1.85.92,3.12,2.54,3.47,4.58.25,1.46,1.89,8.59-3.11,12.45-1.39,1.07-6.75,5.57-7.8,6.94-3.03,3.93-.16,6.02-.01,8.42.1,1.57,0,3.3-.83,4.69-.94,1.58-9.61,6.95-16.05,5.77-3.06-.56-5.89-2.08-4.69-6.93.85-3.46,5.18-11.24,1.18-12.77-3.26-1.25-8.23.28-12.25,2.1-.99.44-8.9,4.55-13.08,5.07-1.88.23-4.94.12-6.48-1.12-1.75-1.41-2.34-4.01-2.18-6.15.37-5.08,6.48-6.26,10.3-7.66,9.27-3.4,8.72-12.76-10.8-14.58-3.2-.3-9.38.09-12.71-7.47-5.54-12.56,11.49-21.89,19.43-14.34,5.6,5.33,14.96,15.21,21.77,7.8Z"/>
      </g>
      <g>
        <path class="cls-13" d="M2.21,36.64h18.27s2.41.08,2.41,2.7c0,3.12-2.41,3.03-2.41,3.03H6.41v5.94h12.2s2.71-.27,2.71,2.55c0,3.16-2.71,3.18-2.71,3.18H6.41v6.15h14.29s2.41.02,2.41,2.88-2.41,2.85-2.41,2.85H1.81C0,65.92,0,63.74,0,63.74v-24.4s-.28-2.7,2.2-2.7Z"/>
        <path class="cls-13" d="M43.93,50.86c3.14,0,4.94-1.67,4.94-4.14v-.08c0-2.76-1.92-4.18-5.06-4.18h-6.4v8.41h6.53ZM32.58,36.64h11.78c3.72,0,6.61,1.05,8.53,2.97,1.63,1.63,2.51,3.93,2.51,6.69v.08c0,4.73-2.55,7.7-6.27,9.08,0,0,4.63,5.76,6.35,8.04,1.76,2.41-.51,2.41-.51,2.41h-5.41l-7.08-9.37h-5.06v9.37h-4.03s-2.41,0-2.41-2.41v-24.44c0-2.35,1.61-2.43,1.61-2.43Z"/>
        <path class="cls-13" d="M69.77,42.58h-7.3s-2.41-.12-2.41-3.38c0-2.48,2.41-2.56,2.41-2.56h21.04s2.41-.05,2.41,2.7c0,3.12-2.41,3.24-2.41,3.24h-7.3v20.97s0,2.37-3.47,2.37c-3.01,0-2.97-2.41-2.97-2.41v-20.93Z"/>
        <path class="cls-13" d="M92.88,39.15c0-3.29,6.44-3.39,6.44,0v24.36s0,2.17-3.22,2.17-3.22-2.17-3.22-2.17v-24.36Z"/>
        <path class="cls-13" d="M106.86,51.36v-.08c0-8.32,6.27-15.14,15.27-15.14,5.52,0,8.83,1.84,11.54,4.52,0,0,1.58,1.81.34,4-1.98,2.66-4.44.72-4.44.72-2.26-2.05-4.56-3.3-7.49-3.3-4.94,0-8.49,4.1-8.49,9.12v.08c0,5.02,3.47,9.2,8.49,9.2,3.35,0,5.4-1.34,7.7-3.43,0,0,1.91-1.36,3.65.52,1.68,1.88.45,3.62.45,3.62-3.01,3.22-6.36,5.23-12.01,5.23-8.62,0-15.02-6.65-15.02-15.06Z"/>
        <path class="cls-13" d="M163.34,51.36v-.08c0-5.02-3.68-9.2-8.87-9.2s-8.78,4.1-8.78,9.12v.08c0,5.02,3.68,9.2,8.87,9.2s8.78-4.1,8.78-9.12ZM138.96,51.36v-.08c0-8.32,6.57-15.14,15.6-15.14s15.52,6.73,15.52,15.06v.08c0,8.32-6.57,15.14-15.6,15.14s-15.52-6.73-15.52-15.06Z"/>
      </g>
      <g>
        <rect class="cls-13" x="53.15" y="88.44" width="1.59" height="7.21"/>
        <polygon class="cls-13" points="58.34 89.9 56.14 89.9 56.14 88.44 62.14 88.44 62.14 89.9 59.93 89.9 59.93 95.65 58.34 95.65 58.34 89.9"/>
        <path class="cls-13" d="M62.81,94.6l.94-1.12c.65.54,1.33.87,2.16.87.65,0,1.04-.26,1.04-.68v-.02c0-.4-.25-.61-1.46-.92-1.46-.37-2.4-.77-2.4-2.2v-.02c0-1.31,1.06-2.17,2.53-2.17,1.06,0,1.96.33,2.69.92l-.83,1.2c-.64-.44-1.27-.71-1.88-.71s-.93.28-.93.63v.02c0,.47.31.63,1.56.95,1.47.38,2.3.91,2.3,2.16v.02c0,1.43-1.1,2.24-2.66,2.24-1.1,0-2.2-.38-3.07-1.15"/>
        <polygon class="cls-13" points="73.24 88.44 78.7 88.44 78.7 89.85 74.82 89.85 74.82 91.31 78.23 91.31 78.23 92.72 74.82 92.72 74.82 94.24 78.75 94.24 78.75 95.65 73.24 95.65 73.24 88.44"/>
        <path class="cls-13" d="M80.16,92.56v-4.12h1.59v4.08c0,1.17.59,1.78,1.56,1.78s1.56-.59,1.56-1.73v-4.13h1.59v4.07c0,2.18-1.23,3.25-3.17,3.25s-3.13-1.08-3.13-3.2"/>
        <path class="cls-13" d="M88.2,88.44h3.31c.92,0,1.63.26,2.11.73.4.4.62.97.62,1.65v.02c0,1.16-.63,1.89-1.55,2.23l1.77,2.57h-1.86l-1.55-2.31h-1.25v2.31h-1.59v-7.21ZM91.4,91.94c.78,0,1.22-.41,1.22-1.02v-.02c0-.68-.48-1.03-1.25-1.03h-1.58v2.07h1.61Z"/>
        <path class="cls-13" d="M95.46,92.06v-.02c0-2.05,1.63-3.73,3.86-3.73s3.83,1.66,3.83,3.71v.02c0,2.05-1.62,3.73-3.86,3.73s-3.84-1.66-3.84-3.71M101.49,92.06v-.02c0-1.24-.91-2.27-2.19-2.27s-2.17,1.01-2.17,2.24v.02c0,1.24.91,2.27,2.19,2.27s2.17-1.01,2.17-2.25"/>
        <path class="cls-13" d="M104.68,88.44h2.96c1.73,0,2.77,1.02,2.77,2.49v.02c0,1.67-1.3,2.53-2.93,2.53h-1.21v2.16h-1.59v-7.21ZM107.53,92.08c.8,0,1.26-.47,1.26-1.09v-.02c0-.71-.5-1.09-1.29-1.09h-1.23v2.2h1.26Z"/>
        <polygon class="cls-13" points="111.69 88.44 117.15 88.44 117.15 89.85 113.28 89.85 113.28 91.31 116.69 91.31 116.69 92.72 113.28 92.72 113.28 94.24 117.21 94.24 117.21 95.65 111.69 95.65 111.69 88.44"/>
      </g>
    </g>
  </g>
</svg>