<?xml version="1.0" encoding="UTF-8"?>
<svg id="Layer_1" xmlns="http://www.w3.org/2000/svg" xmlns:xlink="http://www.w3.org/1999/xlink" version="1.1" viewBox="0 0 600 150">
  <!-- Generator: Adobe Illustrator 29.0.0, SVG Export Plug-In . SVG Version: 2.1.0 Build 186)  -->
  <defs>
    <style>
      .st0 {
        fill: #1e4c9a;
      }

      .st1 {
        fill: #b5bf2b;
      }

      .st2 {
        fill: #f2ebda;
      }

      .st3 {
        stroke: url(#linear-gradient);
      }

      .st3, .st4, .st5, .st6, .st7, .st8, .st9, .st10, .st11, .st12, .st13, .st14, .st15, .st16, .st17, .st18, .st19, .st20, .st21, .st22, .st23, .st24, .st25 {
        fill: none;
        stroke-miterlimit: 10;
      }

      .st3, .st4, .st5, .st6, .st7, .st8, .st9, .st10, .st11, .st12, .st14, .st15, .st16, .st17, .st18, .st19, .st20, .st21, .st22, .st23, .st24, .st25 {
        stroke-width: 0px;
      }

      .st26 {
        fill: #383836;
      }

      .st4 {
        stroke: url(#linear-gradient10);
      }

      .st5 {
        opacity: .3;
        stroke: #4c4f4d;
      }

      .st5, .st27, .st6, .st7, .st8, .st9, .st10, .st11, .st12, .st23, .st24, .st25 {
        isolation: isolate;
      }

      .st6 {
        opacity: .4;
        stroke: #5f615f;
      }

      .st7 {
        opacity: .3;
        stroke: #565856;
      }

      .st8 {
        opacity: .7;
        stroke: #8e8f8a;
      }

      .st28 {
        fill: #fff;
      }

      .st29 {
        fill: #262626;
      }

      .st9 {
        opacity: .2;
        stroke: #434645;
      }

      .st30 {
        fill: #d80f81;
      }

      .st31 {
        fill: #666;
      }

      .st10 {
        opacity: .5;
        stroke: #696a67;
      }

      .st11 {
        opacity: .1;
        stroke: #303434;
      }

      .st32 {
        fill: #2e7d4f;
      }

      .st12 {
        opacity: .5;
        stroke: #727470;
      }

      .st13 {
        stroke: #262626;
        stroke-linecap: round;
        stroke-width: .8px;
      }

      .st33 {
        fill: #fdb913;
      }

      .st14 {
        stroke: url(#linear-gradient8);
      }

      .st15 {
        stroke: url(#linear-gradient2);
      }

      .st16 {
        stroke: url(#linear-gradient1);
      }

      .st17 {
        stroke: url(#linear-gradient5);
      }

      .st18 {
        stroke: url(#linear-gradient4);
      }

      .st19 {
        stroke: url(#linear-gradient3);
      }

      .st20 {
        stroke: url(#linear-gradient6);
      }

      .st21 {
        stroke: url(#linear-gradient9);
      }

      .st22 {
        stroke: url(#linear-gradient7);
      }

      .st34 {
        fill: #be4a2f;
      }

      .st35 {
        fill: #1b365d;
      }

      .st23 {
        opacity: .6;
        stroke: #7c7d78;
      }

      .st24 {
        opacity: .6;
        stroke: #858681;
      }

      .st36 {
        fill: #e8b93b;
      }

      .st25 {
        opacity: .2;
        stroke: #393d3c;
      }

      .st37 {
        fill: #00afd5;
      }

      .st38 {
        fill: #1a1a1a;
      }

      .st39 {
        fill: #43af2a;
      }
    </style>
    <linearGradient id="linear-gradient" x1="512.9" y1="51.8" x2="536.4" y2="51.8" gradientTransform="translate(0 152) scale(1 -1)" gradientUnits="userSpaceOnUse">
      <stop offset="0" stop-color="#46b97c"/>
      <stop offset=".2" stop-color="#00b1e7"/>
      <stop offset=".4" stop-color="#204391"/>
      <stop offset=".5" stop-color="#423170"/>
      <stop offset=".7" stop-color="#a13c61"/>
      <stop offset=".8" stop-color="#f26f32"/>
      <stop offset=".9" stop-color="#cf9327"/>
      <stop offset="1" stop-color="#ffd328"/>
    </linearGradient>
    <linearGradient id="linear-gradient1" x1="513.1" y1="51.6" x2="536.1" y2="51.6" xlink:href="#linear-gradient"/>
    <linearGradient id="linear-gradient2" x1="513.3" y1="51.5" x2="535.8" y2="51.5" xlink:href="#linear-gradient"/>
    <linearGradient id="linear-gradient3" x1="513.4" y1="51.3" x2="535.5" y2="51.3" xlink:href="#linear-gradient"/>
    <linearGradient id="linear-gradient4" x1="513.6" y1="51.1" x2="535.2" y2="51.1" xlink:href="#linear-gradient"/>
    <linearGradient id="linear-gradient5" x1="513.7" y1="51" x2="534.9" y2="51" xlink:href="#linear-gradient"/>
    <linearGradient id="linear-gradient6" x1="513.6" y1="50.9" x2="534.6" y2="50.9" xlink:href="#linear-gradient"/>
    <linearGradient id="linear-gradient7" x1="513.3" y1="50.7" x2="534.3" y2="50.7" xlink:href="#linear-gradient"/>
    <linearGradient id="linear-gradient8" x1="513.1" y1="50.6" x2="534" y2="50.6" xlink:href="#linear-gradient"/>
    <linearGradient id="linear-gradient9" x1="512.7" y1="50.5" x2="533.7" y2="50.5" xlink:href="#linear-gradient"/>
    <linearGradient id="linear-gradient10" x1="512.4" y1="50.4" x2="533.6" y2="50.4" xlink:href="#linear-gradient"/>
  </defs>
  <rect class="st2" width="600" height="150"/>
  <g>
    <path class="st34" d="M0,123.9h26.1l13,13-13,13H0l13-13L0,123.9Z"/>
    <path class="st38" d="M26.1,123.9h13l13,13-13,13h-13l13-13-13-13Z"/>
    <path class="st0" d="M52.2,123.9h26.1l-13,13,13,13h-26.1l13-13-13-13Z"/>
    <path class="st38" d="M78.3,123.9h13l13,13-13,13h-13l13-13-13-13Z"/>
    <path class="st32" d="M104.3,123.9h26.1l-13,13,13,13h-26.1l13-13-13-13Z"/>
    <path class="st36" d="M13,128.2l8.7,8.7-8.7,8.7-8.7-8.7s8.7-8.7,8.7-8.7Z"/>
    <path class="st34" d="M130.4,123.9h26.1l13,13-13,13h-26.1l13-13-13-13Z"/>
    <path class="st38" d="M156.5,123.9h13l13,13-13,13h-13l13-13-13-13Z"/>
    <path class="st0" d="M182.6,123.9h26.1l-13,13,13,13h-26.1l13-13-13-13Z"/>
    <path class="st38" d="M208.7,123.9h13l13,13-13,13h-13l13-13-13-13Z"/>
    <path class="st32" d="M234.8,123.9h26.1l-13,13,13,13h-26.1l13-13-13-13Z"/>
    <path class="st36" d="M143.5,128.2l8.7,8.7-8.7,8.7-8.7-8.7,8.7-8.7Z"/>
    <path class="st34" d="M260.9,123.9h26.1l13,13-13,13h-26.1l13-13-13-13Z"/>
    <path class="st38" d="M287,123.9h13l13,13-13,13h-13l13-13-13-13Z"/>
    <path class="st0" d="M313,123.9h26.1l-13,13,13,13h-26.1l13-13-13-13Z"/>
    <path class="st38" d="M339.1,123.9h13l13,13-13,13h-13l13-13-13-13Z"/>
    <path class="st32" d="M365.2,123.9h26.1l-13,13,13,13h-26.1l13-13-13-13Z"/>
    <path class="st36" d="M273.9,128.2l8.7,8.7-8.7,8.7-8.7-8.7,8.7-8.7Z"/>
    <path class="st34" d="M391.3,123.9h26.1l13,13-13,13h-26.1l13-13-13-13Z"/>
    <path class="st38" d="M417.4,123.9h13l13,13-13,13h-13l13-13-13-13Z"/>
    <path class="st0" d="M443.5,123.9h26.1l-13,13,13,13h-26.1l13-13-13-13Z"/>
    <path class="st38" d="M469.6,123.9h13l13,13-13,13h-13l13-13-13-13Z"/>
    <path class="st32" d="M495.7,123.9h26.1l-13,13,13,13h-26.1l13-13-13-13Z"/>
    <path class="st36" d="M404.3,128.2l8.7,8.7-8.7,8.7-8.7-8.7,8.7-8.7Z"/>
    <path class="st34" d="M521.7,123.9h26.1l13,13-13,13h-26.1l13-13-13-13Z"/>
    <path class="st38" d="M547.8,123.9h13l13,13-13,13h-13l13-13-13-13Z"/>
    <path class="st0" d="M573.9,123.9h26.1l-13,13,13,13h-26.1l13-13-13-13Z"/>
    <path class="st36" d="M534.8,128.2l8.7,8.7-8.7,8.7-8.7-8.7,8.7-8.7Z"/>
  </g>
  <g>
    <path class="st29" d="M308,37.3v-13.7h6.2c1.5,0,2.8.3,3.9.9s2,1.4,2.7,2.4,1,2.2,1,3.6-.3,2.6-1,3.6c-.6,1-1.5,1.8-2.7,2.4s-2.5.9-3.9.9h-6.2ZM311.1,34.7h2.9c.9,0,1.7-.2,2.4-.5.7-.3,1.2-.8,1.6-1.5.4-.6.6-1.4.6-2.3s-.2-1.6-.6-2.3-.9-1.1-1.6-1.5c-.7-.3-1.5-.5-2.4-.5h-2.9v8.5h0Z"/>
    <path class="st29" d="M323.6,37.3v-10.6h3.1v10.6h-3.1ZM325.1,25.2c-.6,0-1-.2-1.4-.5s-.5-.7-.5-1.2.2-.9.5-1.2.8-.5,1.4-.5,1,.2,1.4.5.5.7.5,1.2-.2.9-.5,1.3-.8.5-1.4.5h0Z"/>
    <path class="st29" d="M332.6,37.4c-.9,0-1.8,0-2.6-.3-.8-.2-1.5-.5-2-.8l1-2.2c.5.3,1.1.5,1.7.7.7.2,1.3.3,2,.3s1.2,0,1.5-.3c.3-.2.4-.4.4-.7s-.1-.4-.3-.6-.5-.2-.9-.3-.8,0-1.2-.2-.9-.2-1.4-.3-.9-.3-1.3-.5-.7-.5-.9-.9-.3-.9-.3-1.5.2-1.3.6-1.8.9-.9,1.7-1.2c.7-.3,1.6-.4,2.6-.4s1.5,0,2.2.2,1.4.4,1.9.7l-1,2.2c-.5-.3-1-.5-1.5-.6s-1-.2-1.5-.2-1.2,0-1.5.3-.5.4-.5.7.1.5.3.6.5.2.9.3c.4,0,.8.1,1.2.2s.9.1,1.4.3.9.3,1.2.5.7.5.9.9.4.9.4,1.5-.2,1.2-.6,1.7-1,.9-1.7,1.2-1.6.4-2.7.4h0Z"/>
    <path class="st29" d="M344.2,37.4c-1.1,0-2.2-.2-3-.7-.9-.5-1.6-1.1-2.1-1.9-.5-.8-.8-1.8-.8-2.8s.3-2,.8-2.8,1.2-1.5,2.1-1.9c.9-.5,1.9-.7,3-.7s2.1.2,2.9.7,1.4,1.1,1.8,2l-2.4,1.3c-.3-.5-.6-.9-1-1.1s-.9-.4-1.3-.4-1,.1-1.4.4c-.4.2-.7.6-1,1s-.4,1-.4,1.6.1,1.1.4,1.6.6.8,1,1,.9.4,1.4.4.9,0,1.3-.3.8-.6,1-1.1l2.4,1.3c-.4.9-1,1.5-1.8,2s-1.8.7-2.9.7v-.3Z"/>
    <path class="st29" d="M355.4,37.4c-1.1,0-2.1-.2-3-.7s-1.6-1.1-2.1-1.9c-.5-.8-.8-1.8-.8-2.8s.3-2,.8-2.8,1.2-1.5,2.1-1.9c.9-.5,1.9-.7,3-.7s2.1.2,3,.7,1.6,1.1,2.1,1.9.7,1.8.7,2.8-.2,2-.7,2.8-1.2,1.5-2.1,1.9c-.9.5-1.9.7-3,.7ZM355.4,34.9c.5,0,1,0,1.4-.4s.7-.6,1-1,.4-1,.4-1.6-.1-1.1-.4-1.6-.6-.8-1-1-.9-.4-1.4-.4-1,.1-1.4.4c-.4.2-.7.6-1,1s-.4,1-.4,1.6.1,1.1.4,1.6.6.8,1,1,.9.4,1.4.4Z"/>
    <path class="st29" d="M365.7,37.3l-4.4-10.6h3.2l3.7,9.1h-1.6l3.8-9.1h2.9l-4.5,10.6h-3.2.1Z"/>
    <path class="st29" d="M379.4,37.4c-1.2,0-2.3-.2-3.2-.7s-1.6-1.1-2.1-1.9c-.5-.8-.7-1.8-.7-2.8s.2-2,.7-2.8,1.2-1.5,2-1.9c.9-.5,1.8-.7,2.9-.7s2,.2,2.8.7c.8.4,1.5,1.1,2,1.9s.7,1.8.7,2.9,0,.3,0,.4v.4h-8.6v-1.8h7l-1.2.5c0-.5-.1-1-.3-1.4s-.5-.7-.9-1-.9-.3-1.4-.3-1,.1-1.4.3c-.4.2-.7.5-.9,1s-.3.9-.3,1.5v.5c0,.6.1,1.1.4,1.5s.6.8,1.1,1,1,.3,1.6.3,1.1,0,1.5-.3c.4-.2.8-.4,1.2-.8l1.6,1.8c-.5.5-1.1,1-1.8,1.3s-1.6.4-2.5.4h-.2Z"/>
    <path class="st29" d="M386.2,37.3v-10.6h2.9v3l-.4-.9c.3-.7.8-1.3,1.5-1.7.7-.4,1.5-.6,2.5-.6v2.8h-.7c-.8,0-1.5.2-2,.7s-.8,1.2-.8,2.2v5h-3.1,0Z"/>
    <path class="st29" d="M399.6,37.3v-13.7h6c1.2,0,2.3.2,3.2.6.9.4,1.6,1,2.1,1.7s.7,1.6.7,2.7-.2,1.9-.7,2.7-1.2,1.3-2.1,1.7c-.9.4-2,.6-3.2.6h-4.2l1.4-1.4v5.2h-3.2,0ZM402.8,32.4l-1.4-1.5h4c1,0,1.7-.2,2.2-.6s.7-1,.7-1.7-.2-1.3-.7-1.8c-.5-.4-1.2-.6-2.2-.6h-4l1.4-1.5v7.8h0Z"/>
    <path class="st29" d="M419.9,37.3v-2.1l-.2-.5v-3.7c0-.7-.2-1.2-.6-1.5s-1-.5-1.8-.5-1.1,0-1.7.3-1,.4-1.4.7l-1.1-2.1c.6-.4,1.3-.7,2.1-.9.8-.2,1.6-.3,2.5-.3,1.6,0,2.9.4,3.8,1.1.9.8,1.3,1.9,1.3,3.6v6h-2.9,0ZM416.6,37.4c-.8,0-1.5,0-2.1-.4-.6-.3-1-.7-1.4-1.1-.3-.5-.5-1-.5-1.6s.2-1.2.5-1.6c.3-.5.8-.8,1.5-1.1s1.5-.4,2.6-.4h2.8v1.8h-2.5c-.7,0-1.2,0-1.5.4s-.4.5-.4.9.2.7.5.9.7.3,1.3.3,1,0,1.4-.4.7-.6.9-1.1l.5,1.4c-.2.7-.6,1.2-1.2,1.6s-1.3.5-2.3.5h0Z"/>
    <path class="st29" d="M425.1,37.3v-10.6h2.9v3l-.4-.9c.3-.7.8-1.3,1.5-1.7.7-.4,1.5-.6,2.5-.6v2.8h-.7c-.8,0-1.5.2-2,.7s-.8,1.2-.8,2.2v5h-3.1,0Z"/>
    <path class="st29" d="M437.5,37.4c-1.2,0-2.2-.3-2.9-1-.7-.6-1-1.6-1-2.8v-9.3h3.1v9.2c0,.4.1.8.4,1,.2.2.6.4,1,.4s.9,0,1.2-.4l.8,2.2c-.3.2-.7.4-1.1.5s-.9.2-1.4.2h-.1ZM431.9,29.1v-2.4h7.3v2.4h-7.3Z"/>
    <path class="st29" d="M441.3,37.3v-10.6h2.9v2.9l-.5-.9c.4-.7.9-1.3,1.6-1.6.7-.4,1.5-.6,2.4-.6s1.6.2,2.2.5c.7.3,1.2.8,1.6,1.5s.6,1.6.6,2.6v6h-3.1v-5.6c0-.9-.2-1.5-.6-1.9s-.9-.6-1.6-.6-.9.1-1.3.3-.7.5-.9.9-.3,1-.3,1.6v5.2h-3.1v.3Z"/>
    <path class="st29" d="M459.7,37.4c-1.2,0-2.3-.2-3.2-.7s-1.6-1.1-2.1-1.9c-.5-.8-.7-1.8-.7-2.8s.2-2,.7-2.8,1.2-1.5,2-1.9c.9-.5,1.8-.7,2.9-.7s2,.2,2.8.7c.8.4,1.5,1.1,2,1.9s.7,1.8.7,2.9,0,.3,0,.4v.4h-8.6v-1.8h7l-1.2.5c0-.5-.1-1-.3-1.4s-.5-.7-.9-1-.9-.3-1.4-.3-1,.1-1.4.3c-.4.2-.7.5-.9,1s-.3.9-.3,1.5v.5c0,.6.1,1.1.4,1.5s.6.8,1.1,1,1,.3,1.6.3,1.1,0,1.5-.3c.4-.2.8-.4,1.2-.8l1.6,1.8c-.5.5-1.1,1-1.8,1.3s-1.6.4-2.5.4h-.2Z"/>
    <path class="st29" d="M466.5,37.3v-10.6h2.9v3l-.4-.9c.3-.7.8-1.3,1.5-1.7.7-.4,1.5-.6,2.5-.6v2.8h-.7c-.8,0-1.5.2-2,.7s-.8,1.2-.8,2.2v5h-3.1,0Z"/>
    <path class="st29" d="M478.1,37.4c-.9,0-1.8,0-2.6-.3-.8-.2-1.5-.5-2-.8l1-2.2c.5.3,1.1.5,1.7.7.7.2,1.3.3,2,.3s1.2,0,1.5-.3c.3-.2.4-.4.4-.7s-.1-.4-.3-.6-.5-.2-.9-.3-.8,0-1.2-.2-.9-.2-1.4-.3-.9-.3-1.3-.5-.7-.5-.9-.9-.3-.9-.3-1.5.2-1.3.6-1.8.9-.9,1.7-1.2c.7-.3,1.6-.4,2.6-.4s1.5,0,2.2.2,1.4.4,1.9.7l-1,2.2c-.5-.3-1-.5-1.5-.6s-1-.2-1.5-.2-1.2,0-1.5.3-.5.4-.5.7.1.5.3.6.5.2.9.3c.4,0,.8.1,1.2.2s.9.1,1.4.3.9.3,1.2.5.7.5.9.9.4.9.4,1.5-.2,1.2-.6,1.7-1,.9-1.7,1.2-1.6.4-2.7.4h0Z"/>
    <path class="st29" d="M484.6,37.3v-14.6h3.1v6.9l-.7-.9c.4-.7.9-1.3,1.6-1.6.7-.4,1.5-.6,2.4-.6s1.6.2,2.2.5c.7.3,1.2.8,1.6,1.5s.6,1.6.6,2.6v6h-3.1v-5.6c0-.9-.2-1.5-.6-1.9s-.9-.6-1.6-.6-.9.1-1.3.3-.7.5-.9.9-.3,1-.3,1.6v5.2h-3.1v.3Z"/>
    <path class="st29" d="M497.8,37.3v-10.6h3.1v10.6h-3.1ZM499.3,25.2c-.6,0-1-.2-1.4-.5s-.5-.7-.5-1.2.2-.9.5-1.2.8-.5,1.4-.5,1,.2,1.4.5.5.7.5,1.2-.2.9-.5,1.3-.8.5-1.4.5h0Z"/>
    <path class="st29" d="M509.5,37.4c-.9,0-1.7-.2-2.3-.6s-1.2-1-1.6-1.8-.6-1.8-.6-3.1.2-2.3.5-3.1.9-1.4,1.5-1.8,1.5-.6,2.4-.6,1.9.2,2.7.7,1.4,1.1,1.9,1.9.7,1.8.7,2.9-.2,2.1-.7,2.9-1.1,1.4-1.9,1.9c-.8.4-1.7.7-2.7.7h.1ZM503.3,41.1v-14.4h2.9v8.4c.1,0,.1,6,.1,6h-3.1.1ZM509,34.9c.5,0,1,0,1.4-.4s.7-.6,1-1,.4-1,.4-1.6-.1-1.1-.4-1.6-.6-.8-1-1-.9-.4-1.4-.4-1,.1-1.4.4-.7.6-1,1-.4,1-.4,1.6.1,1.1.4,1.6.6.8,1,1,.9.4,1.4.4Z"/>
    <path class="st29" d="M528.1,37.3v-2.1l-.2-.5v-3.7c0-.7-.2-1.2-.6-1.5s-1-.5-1.8-.5-1.1,0-1.7.3-1,.4-1.4.7l-1.1-2.1c.6-.4,1.3-.7,2.1-.9.8-.2,1.6-.3,2.5-.3,1.6,0,2.9.4,3.8,1.1.9.8,1.3,1.9,1.3,3.6v6h-2.9,0ZM524.9,37.4c-.8,0-1.5,0-2.1-.4-.6-.3-1-.7-1.4-1.1-.3-.5-.5-1-.5-1.6s.2-1.2.5-1.6c.3-.5.8-.8,1.5-1.1s1.5-.4,2.6-.4h2.8v1.8h-2.5c-.7,0-1.2,0-1.5.4s-.4.5-.4.9.2.7.5.9.7.3,1.3.3,1,0,1.4-.4.7-.6.9-1.1l.5,1.4c-.2.7-.6,1.2-1.2,1.6s-1.3.5-2.3.5h0Z"/>
    <path class="st29" d="M533.3,37.3v-10.6h2.9v2.9l-.5-.9c.4-.7.9-1.3,1.6-1.6.7-.4,1.5-.6,2.4-.6s1.6.2,2.2.5c.7.3,1.2.8,1.6,1.5s.6,1.6.6,2.6v6h-3.1v-5.6c0-.9-.2-1.5-.6-1.9s-.9-.6-1.6-.6-.9.1-1.3.3-.7.5-.9.9-.3,1-.3,1.6v5.2h-3.1v.3Z"/>
    <path class="st29" d="M551.1,37.4c-1,0-1.9-.2-2.7-.7s-1.4-1.1-1.9-1.9c-.5-.8-.7-1.8-.7-2.9s.2-2.1.7-2.9,1.1-1.4,1.9-1.9c.8-.4,1.7-.7,2.7-.7s1.7.2,2.3.6,1.2,1,1.6,1.8c.4.8.5,1.8.5,3.1s-.2,2.2-.5,3.1-.9,1.4-1.5,1.8-1.5.6-2.4.6h0ZM551.6,34.9c.5,0,.9,0,1.4-.4s.7-.6,1-1,.4-1,.4-1.6,0-1.1-.4-1.6-.6-.8-1-1-.9-.4-1.4-.4-1,.1-1.4.4c-.4.2-.7.6-1,1s-.4,1-.4,1.6,0,1.1.4,1.6.6.8,1,1,.9.4,1.4.4ZM554.4,37.3v-8.4c0,0,0-6.1,0-6.1h3.1v14.6h-3Z"/>
    <path class="st29" d="M308,60.4v-13.7h10.4v2.6h-7.2v8.6h7.5v2.6h-10.7ZM310.9,54.7v-2.5h6.6v2.5h-6.6Z"/>
    <path class="st29" d="M319.2,60.4l4.7-6.2v1.7l-4.6-6h3.4l2.9,3.9h-1.3l3-3.9h3.3l-4.6,6v-1.6l4.7,6.2h-3.5l-3-4.2,1.3.2-3,4h-3.3Z"/>
    <path class="st29" d="M331.8,60.4v-14.6h3.1v6.9l-.7-.9c.4-.7.9-1.3,1.6-1.6.7-.4,1.5-.6,2.4-.6s1.6.2,2.2.5c.7.3,1.2.8,1.6,1.5s.6,1.6.6,2.6v6h-3.1v-5.6c0-.9-.2-1.5-.6-1.9s-.9-.6-1.6-.6-.9,0-1.3.3-.7.5-.9.9-.3,1-.3,1.6v5.2h-3.1v.3Z"/>
    <path class="st29" d="M345,60.4v-10.6h3.1v10.6h-3.1ZM346.5,48.4c-.6,0-1-.2-1.4-.5s-.5-.7-.5-1.2.2-.9.5-1.2.8-.5,1.4-.5,1,.2,1.4.5.5.7.5,1.2-.2.9-.5,1.3-.8.5-1.4.5h0Z"/>
    <path class="st29" d="M356.8,60.6c-.9,0-1.7-.2-2.4-.6s-1.2-1-1.5-1.8-.5-1.8-.5-3.1.2-2.3.6-3.1.9-1.4,1.6-1.8,1.4-.6,2.3-.6,1.9.2,2.7.7c.8.4,1.4,1.1,1.9,1.9s.7,1.8.7,2.9-.2,2.1-.7,2.9c-.5.8-1.1,1.4-1.9,1.9s-1.7.7-2.7.7h-.1ZM350.5,60.4v-14.6h3.1v6.1l-.2,3.1v5.3h-2.9ZM356.2,58.1c.5,0,1,0,1.4-.4s.7-.6,1-1,.4-1,.4-1.6-.1-1.1-.4-1.6-.6-.8-1-1-.9-.4-1.4-.4-1,0-1.4.4-.7.6-1,1-.4,1-.4,1.6.1,1.1.4,1.6.6.8,1,1,.9.4,1.4.4Z"/>
    <path class="st29" d="M363.7,60.4v-10.6h3.1v10.6h-3.1ZM365.2,48.4c-.6,0-1-.2-1.4-.5s-.5-.7-.5-1.2.2-.9.5-1.2.8-.5,1.4-.5,1,.2,1.4.5.5.7.5,1.2-.2.9-.5,1.3-.8.5-1.4.5h0Z"/>
    <path class="st29" d="M373.5,60.6c-1.2,0-2.2-.3-2.9-1-.7-.6-1-1.6-1-2.8v-9.3h3.1v9.2c0,.4.1.8.4,1,.2.2.6.4,1,.4s.9,0,1.2-.4l.8,2.2c-.3.2-.7.4-1.1.5s-.9.2-1.4.2h-.1ZM367.9,52.2v-2.4h7.3v2.4h-7.3Z"/>
    <path class="st29" d="M377.3,60.4v-10.6h3.1v10.6h-3.1ZM378.9,48.4c-.6,0-1-.2-1.4-.5s-.5-.7-.5-1.2.2-.9.5-1.2.8-.5,1.4-.5,1,.2,1.4.5.5.7.5,1.2-.2.9-.5,1.3-.8.5-1.4.5h0Z"/>
    <path class="st29" d="M387.9,60.6c-1.1,0-2.1-.2-3-.7s-1.6-1.1-2.1-1.9c-.5-.8-.8-1.8-.8-2.8s.3-2,.8-2.8,1.2-1.5,2.1-1.9c.9-.5,1.9-.7,3-.7s2.1.2,3,.7,1.6,1.1,2.1,1.9.7,1.8.7,2.8-.2,2-.7,2.8-1.2,1.5-2.1,1.9c-.9.5-1.9.7-3,.7ZM387.9,58.1c.5,0,1,0,1.4-.4s.7-.6,1-1,.4-1,.4-1.6-.1-1.1-.4-1.6-.6-.8-1-1-.9-.4-1.4-.4-1,0-1.4.4c-.4.2-.7.6-1,1s-.4,1-.4,1.6.1,1.1.4,1.6.6.8,1,1,.9.4,1.4.4Z"/>
    <path class="st29" d="M395.3,60.4v-10.6h2.9v2.9l-.5-.9c.4-.7.9-1.3,1.6-1.6.7-.4,1.5-.6,2.4-.6s1.6.2,2.2.5c.7.3,1.2.8,1.6,1.5s.6,1.6.6,2.6v6h-3.1v-5.6c0-.9-.2-1.5-.6-1.9s-.9-.6-1.6-.6-.9,0-1.3.3-.7.5-.9.9-.3,1-.3,1.6v5.2h-3.1v.3Z"/>
    <path class="st29" d="M420.6,60.7c-1.1,0-2.1-.2-3-.5s-1.7-.9-2.4-1.5c-.7-.6-1.2-1.4-1.6-2.3s-.6-1.8-.6-2.8.2-2,.6-2.8.9-1.6,1.6-2.3c.7-.6,1.5-1.1,2.4-1.5s1.9-.5,3-.5,2.1.2,3,.5,1.7.9,2.4,1.5,1.2,1.4,1.6,2.2c.4.9.6,1.8.6,2.8s-.2,2-.6,2.8-.9,1.6-1.6,2.3c-.7.6-1.5,1.1-2.4,1.5s-1.9.5-3,.5h0ZM420.5,58c.6,0,1.2,0,1.7-.3s1-.5,1.4-.9.7-.9.9-1.4c.2-.5.3-1.1.3-1.8s-.1-1.3-.3-1.8-.5-1-.9-1.4-.8-.7-1.4-.9c-.5-.2-1.1-.3-1.7-.3s-1.2,0-1.7.3-1,.5-1.4.9-.7.9-.9,1.4-.3,1.1-.3,1.8.1,1.2.3,1.8c.2.5.5,1,.9,1.4s.8.7,1.4.9,1.1.3,1.7.3Z"/>
    <path class="st29" d="M436.1,60.6c-.9,0-1.7-.2-2.3-.6s-1.2-1-1.6-1.8-.6-1.8-.6-3.1.2-2.3.5-3.1.9-1.4,1.5-1.8,1.5-.6,2.4-.6,1.9.2,2.7.7c.8.5,1.4,1.1,1.9,1.9s.7,1.8.7,2.9-.2,2.1-.7,2.9c-.5.8-1.1,1.4-1.9,1.9-.8.4-1.7.7-2.7.7h.1ZM429.8,64.3v-14.4h2.9v8.4c.1,0,.1,6,.1,6h-3.1.1ZM435.6,58.1c.5,0,1,0,1.4-.4s.7-.6,1-1,.4-1,.4-1.6-.1-1.1-.4-1.6-.6-.8-1-1-.9-.4-1.4-.4-1,0-1.4.4-.7.6-1,1-.4,1-.4,1.6.1,1.1.4,1.6.6.8,1,1,.9.4,1.4.4Z"/>
    <path class="st29" d="M449.3,60.6c-.9,0-1.7-.2-2.3-.6s-1.2-1-1.6-1.8-.6-1.8-.6-3.1.2-2.3.5-3.1.9-1.4,1.5-1.8,1.5-.6,2.4-.6,1.9.2,2.7.7c.8.5,1.4,1.1,1.9,1.9s.7,1.8.7,2.9-.2,2.1-.7,2.9c-.5.8-1.1,1.4-1.9,1.9-.8.4-1.7.7-2.7.7h.1ZM443,64.3v-14.4h2.9v8.4c.1,0,.1,6,.1,6h-3.1.1ZM448.7,58.1c.5,0,1,0,1.4-.4s.7-.6,1-1,.4-1,.4-1.6-.1-1.1-.4-1.6-.6-.8-1-1-.9-.4-1.4-.4-1,0-1.4.4-.7.6-1,1-.4,1-.4,1.6.1,1.1.4,1.6.6.8,1,1,.9.4,1.4.4Z"/>
    <path class="st29" d="M461.2,60.6c-1.1,0-2.1-.2-3-.7s-1.6-1.1-2.1-1.9c-.5-.8-.8-1.8-.8-2.8s.3-2,.8-2.8,1.2-1.5,2.1-1.9c.9-.5,1.9-.7,3-.7s2.1.2,3,.7,1.6,1.1,2.1,1.9.7,1.8.7,2.8-.2,2-.7,2.8-1.2,1.5-2.1,1.9c-.9.5-1.9.7-3,.7ZM461.2,58.1c.5,0,1,0,1.4-.4s.7-.6,1-1,.4-1,.4-1.6-.1-1.1-.4-1.6-.6-.8-1-1-.9-.4-1.4-.4-1,0-1.4.4c-.4.2-.7.6-1,1s-.4,1-.4,1.6.1,1.1.4,1.6.6.8,1,1,.9.4,1.4.4Z"/>
    <path class="st29" d="M468.6,60.4v-10.6h2.9v3l-.4-.9c.3-.7.8-1.3,1.5-1.7s1.5-.6,2.5-.6v2.8h-.7c-.8,0-1.5.2-2,.7s-.8,1.2-.8,2.2v5h-3.1,0Z"/>
    <path class="st29" d="M481,60.6c-1.2,0-2.2-.3-2.9-1-.7-.6-1-1.6-1-2.8v-9.3h3.1v9.2c0,.4.1.8.4,1,.2.2.6.4,1,.4s.9,0,1.2-.4l.8,2.2c-.3.2-.7.4-1.1.5s-.9.2-1.4.2h-.1ZM475.5,52.2v-2.4h7.3v2.4h-7.3Z"/>
    <path class="st29" d="M489.3,60.6c-.9,0-1.7-.2-2.3-.5-.7-.3-1.2-.9-1.6-1.6-.4-.7-.6-1.6-.6-2.7v-6h3.1v5.5c0,.9.2,1.5.6,1.9s.9.6,1.6.6.9,0,1.3-.3.7-.5.9-.9.3-1,.3-1.6v-5.2h3.1v10.6h-2.9v-2.9l.5.8c-.4.7-.9,1.3-1.6,1.7s-1.4.6-2.2.6h-.2Z"/>
    <path class="st29" d="M498,60.4v-10.6h2.9v2.9l-.5-.9c.4-.7.9-1.3,1.6-1.6.7-.4,1.5-.6,2.4-.6s1.6.2,2.2.5c.7.3,1.2.8,1.6,1.5s.6,1.6.6,2.6v6h-3.1v-5.6c0-.9-.2-1.5-.6-1.9s-.9-.6-1.6-.6-.9,0-1.3.3-.7.5-.9.9-.3,1-.3,1.6v5.2h-3.1v.3Z"/>
    <path class="st29" d="M511.1,60.4v-10.6h3.1v10.6h-3.1ZM512.7,48.4c-.6,0-1-.2-1.4-.5s-.5-.7-.5-1.2.2-.9.5-1.2.8-.5,1.4-.5,1,.2,1.4.5.5.7.5,1.2-.2.9-.5,1.3-.8.5-1.4.5h0Z"/>
    <path class="st29" d="M521,60.6c-1.2,0-2.2-.3-2.9-1-.7-.6-1-1.6-1-2.8v-9.3h3.1v9.2c0,.4,0,.8.4,1,.2.2.6.4,1,.4s.9,0,1.2-.4l.8,2.2c-.3.2-.7.4-1.1.5s-.9.2-1.4.2h0ZM515.4,52.2v-2.4h7.3v2.4h-7.3Z"/>
    <path class="st29" d="M524.8,60.4v-10.6h3.1v10.6h-3.1ZM526.3,48.4c-.6,0-1-.2-1.4-.5s-.5-.7-.5-1.2.2-.9.5-1.2.8-.5,1.4-.5,1,.2,1.4.5.5.7.5,1.2-.2.9-.5,1.3-.8.5-1.4.5h0Z"/>
    <path class="st29" d="M535.6,60.6c-1.2,0-2.3-.2-3.2-.7s-1.6-1.1-2.1-1.9c-.5-.8-.7-1.8-.7-2.8s.2-2,.7-2.8,1.2-1.5,2-1.9c.9-.5,1.8-.7,2.9-.7s2,.2,2.8.7c.8.4,1.5,1.1,2,1.9s.7,1.8.7,2.9,0,.3,0,.4v.4h-8.6v-1.8h7l-1.2.5c0-.5,0-1-.3-1.4s-.5-.7-.9-1-.9-.3-1.4-.3-1,0-1.4.3-.7.5-.9,1-.3.9-.3,1.5v.5c0,.6,0,1.1.4,1.5s.6.8,1.1,1,1,.3,1.6.3,1.1,0,1.5-.3c.4-.2.8-.4,1.2-.8l1.6,1.8c-.5.5-1.1,1-1.8,1.3s-1.6.4-2.5.4h-.2Z"/>
    <path class="st29" d="M545.9,60.6c-.9,0-1.8,0-2.6-.3s-1.5-.5-2-.8l1-2.2c.5.3,1.1.5,1.7.7.7.2,1.3.3,2,.3s1.2,0,1.5-.3c.3-.2.4-.4.4-.7s0-.4-.3-.6-.5-.2-.9-.3-.8,0-1.2-.2-.9-.2-1.4-.3-.9-.3-1.3-.5c-.4-.2-.7-.5-.9-.9s-.3-.9-.3-1.5.2-1.3.6-1.8c.4-.5.9-.9,1.7-1.2.7-.3,1.6-.4,2.6-.4s1.5,0,2.2.2,1.4.4,1.9.7l-1,2.2c-.5-.3-1-.5-1.5-.6s-1-.2-1.5-.2-1.2,0-1.5.3-.5.4-.5.7,0,.5.3.6.5.2.9.3c.4,0,.8,0,1.2.2s.9,0,1.4.3.9.3,1.2.5.7.5.9.9.4.9.4,1.5-.2,1.2-.6,1.7c-.4.5-1,.9-1.7,1.2s-1.6.4-2.7.4h0Z"/>
  </g>
  <g>
    <path class="st29" d="M37.1,43.2c2.8,0,5.1,2.3,5.1,5.1s-2.3,5.1-5.1,5.1-5.1-2.3-5.1-5.1,2.3-5.1,5.1-5.1ZM61.1,64.4v14c0,15.7-5.8,19.7-14.5,19.7s-14.6-3.6-14.6-19.7v-17.9c0-5.3,10.3-5.4,10.3,0v19.4c0,6.2.2,11,4.5,11s3.9-4.8,3.9-11v-47.9c0-3.4,1.8-6.4,5.3-6.4s5.1,3,5.1,6.4v8.3c0,1.8,1.5,3.3,3.3,3.3h5.2c3.4,0,7.5-.4,7.5,3.8s-1.7,3.2-3.9,3.7c-6.7,1.2-12.1,5.6-12.1,13.3ZM98.6,90c-.7,1.6-1.8,3-3.2,4.1-1.4,1.2-3.2,2.1-5.3,2.7-2.1.6-4.5,1-7.3,1s-4.4-.3-6.5-.8c-2.1-.6-3.9-1.4-5.5-2.6s-2.4-1.8-3.3-3.6c-.9-1.8-1.2-4.8,2.4-6.1,1.9-.8,3.9.3,5,2.2.5.9,1.1,1.7,2,2.3.8.6,1.8,1,2.9,1.3s2.2.4,3.4.4,1.6,0,2.5-.2c.9,0,1.8-.4,2.5-.8.8-.4,1.5-.9,2-1.6s.8-1.5.8-2.5-.4-2-1-2.7c-.7-.7-1.6-1.3-2.7-1.7-1.1-.5-2.4-.9-3.8-1.2-1.4-.3-2.9-.7-4.4-1.1s-3-.8-4.4-1.4-2.7-1.3-3.8-2.1c-1.1-.9-2.1-2-2.7-3.3-.7-1.3-1-2.9-1-4.8s.4-3.9,1.3-5.5c.9-1.5,2-2.8,3.5-3.9,1.4-1,3.1-1.8,4.9-2.3s3.6-.7,5.4-.7,4.1.2,6.1.7c1.9.5,3.7,1.2,5.2,2.3s2.7,2.4,3.6,4.1c1.1,2.1.6,5.9-3.6,6-3,0-4.1-2.2-4.5-3s-1-1.4-1.7-1.9-1.5-.8-2.5-1c-.9-.2-1.9-.3-3-.3s-1.4,0-2.1.2-1.4.4-2,.8c-.6.4-1.1.9-1.4,1.4-.4.6-.6,1.3-.6,2.2s.2,1.4.5,1.9.9,1,1.8,1.4,2.1.8,3.7,1.3c1.6.4,3.6,1,6.1,1.6.8.2,1.8.4,3.1.8,1.3.4,2.7,1,4,1.9s2.5,2,3.4,3.5c1,1.5,1.4,3.3,1.4,5.6s-.4,3.6-1.1,5.2v.2Z"/>
    <line class="st13" x1="112.3" y1="97.7" x2="112.3" y2="25.6"/>
    <g>
      <g class="st27">
        <g class="st27">
          <path class="st29" d="M133.9,77.2c-.2.2-.5.4-.8.5s-.6.2-1,.3c-.4,0-.7.1-1.2.1-.7,0-1.3-.1-1.8-.4-.6-.2-1-.6-1.5-1s-.7-.9-1-1.5-.3-1.2-.3-1.8h0c0-.7.1-1.3.3-1.8s.6-1,1-1.5c.4-.4.9-.8,1.5-1s1.2-.4,1.9-.4.8,0,1.1.1.7.2.9.3c.3.1.5.3.8.4.2.2.5.4.7.6l-1.3,1.4c-.4-.3-.7-.6-1.1-.7-.4-.2-.8-.3-1.2-.3s-.7,0-1,.2c-.3.1-.6.3-.8.6s-.4.6-.5.9-.2.7-.2,1.1h0c0,.4,0,.8.2,1.1.1.3.3.6.5.9s.5.5.8.6c.3.1.7.2,1.1.2s.9,0,1.3-.3.7-.4,1.1-.8l1.3,1.3c-.2.2-.5.5-.7.7Z"/>
          <path class="st29" d="M142.9,78l-.8-2h-3.8l-.8,2h-2l3.8-9h1.8l3.8,9h-2.1ZM140.2,71.4l-1.2,2.9h2.4l-1.2-2.9Z"/>
          <path class="st29" d="M153.1,73.6c-.2.4-.4.7-.8,1s-.7.5-1.2.6c-.4.1-.9.2-1.4.2h-1.5v2.7h-2v-9h3.7c.5,0,1,0,1.4.2.4.1.8.4,1.1.6.3.3.5.6.7,1,.2.4.2.8.2,1.3h0c0,.5,0,1-.3,1.4ZM151.4,72.2c0-.4-.1-.8-.4-1-.3-.2-.7-.3-1.2-.3h-1.5v2.7h1.6c.5,0,.9-.1,1.2-.4.3-.3.4-.6.4-1h0Z"/>
          <path class="st29" d="M154.9,78v-9h6.7v1.8h-4.8v1.8h4.2v1.8h-4.2v1.9h4.9v1.8h-6.8Z"/>
          <path class="st29" d="M171.4,70.9v7.1h-2v-7.1h-2.7v-1.8h7.4v1.8h-2.7Z"/>
          <path class="st29" d="M184.4,75.3c-.2.6-.6,1-1,1.5-.4.4-.9.8-1.5,1s-1.2.4-1.9.4-1.3-.1-1.9-.4c-.6-.2-1.1-.6-1.5-1-.4-.4-.8-.9-1-1.5-.2-.6-.4-1.2-.4-1.8h0c0-.7.1-1.3.4-1.8s.6-1,1-1.5c.4-.4.9-.8,1.5-1s1.2-.4,1.9-.4,1.3.1,1.9.4c.6.2,1.1.6,1.5,1,.4.4.8.9,1,1.5.2.6.4,1.2.4,1.8h0c0,.7-.1,1.3-.4,1.8ZM182.7,73.5c0-.4,0-.7-.2-1.1-.1-.3-.3-.6-.6-.9s-.5-.5-.9-.6c-.3-.1-.7-.2-1.1-.2s-.8,0-1.1.2c-.3.1-.6.3-.8.6-.2.3-.4.6-.6.9s-.2.7-.2,1.1h0c0,.4,0,.8.2,1.1.1.3.3.6.6.9s.5.5.9.6.7.2,1.1.2.8,0,1.1-.2c.3-.1.6-.3.9-.6.2-.3.4-.6.6-.9.1-.3.2-.7.2-1.1h0Z"/>
          <path class="st29" d="M196.3,78.1h-1.7l-2-5.9-2,5.9h-1.7l-3.1-9h2.1l1.9,6.1,2-6.1h1.7l2,6.1,1.9-6.1h2.1l-3.1,9Z"/>
          <path class="st29" d="M207.1,78l-4.3-5.7v5.7h-1.9v-9h1.8l4.2,5.5v-5.5h1.9v9h-1.7Z"/>
        </g>
        <g class="st27">
          <path class="st29" d="M133.2,90c-.2.6-.4,1.1-.7,1.5-.3.4-.7.8-1.2,1-.5.2-1,.4-1.7.4s-1.2,0-1.7-.3c-.5-.2-.9-.4-1.3-.8l1-1.5c.3.3.6.5.9.6.3.1.6.2,1,.2.6,0,1-.2,1.3-.6.3-.4.5-.9.5-1.5-.2.2-.5.3-.8.4s-.6.2-1,.2-.9,0-1.3-.2c-.4-.1-.7-.3-1-.6-.3-.2-.5-.6-.6-.9-.1-.4-.2-.8-.2-1.2s0-.9.2-1.3.4-.7.7-1c.3-.3.7-.5,1.1-.7.4-.2.9-.2,1.4-.2s.6,0,.8,0c.2,0,.5,0,.7.2.2,0,.4.2.6.3s.4.3.5.4c.2.2.3.3.4.6s.2.4.3.7c0,.3.2.6.2.9,0,.4,0,.7,0,1.2,0,.7,0,1.4-.3,2ZM131.1,85.7c-.3-.3-.7-.4-1.2-.4s-.9.1-1.1.4c-.3.3-.4.6-.4,1s.1.7.4,1,.7.4,1.2.4.9-.1,1.1-.4.4-.6.4-1-.1-.7-.4-1Z"/>
          <path class="st29" d="M134.8,89.7v-1.9h3.9v1.9h-3.9Z"/>
          <path class="st29" d="M142.3,83.7h1.3v9h-1.9v-7l-1.6.4-.4-1.6,2.6-.8Z"/>
          <path class="st29" d="M153.2,90.1c-.2.6-.5,1.1-.8,1.5-.3.4-.8.7-1.3,1-.5.2-1,.4-1.6.4s-1.1-.1-1.6-.4c-.5-.2-.9-.6-1.3-1-.3-.4-.6-.9-.8-1.5s-.3-1.2-.3-1.8,0-1.3.3-1.8c.2-.6.5-1.1.8-1.5.3-.4.8-.7,1.3-1,.5-.2,1-.4,1.6-.4s1.1.1,1.6.4c.5.2.9.6,1.3,1s.6.9.8,1.5c.2.6.3,1.2.3,1.8s0,1.3-.3,1.8ZM151.3,87.1c0-.3-.2-.7-.4-.9-.2-.3-.4-.5-.6-.6-.2-.1-.5-.2-.8-.2s-.6,0-.8.2c-.2.1-.4.3-.6.6s-.3.6-.4.9c0,.3-.1.7-.1,1.1s0,.8.1,1.1c0,.3.2.7.4.9.2.3.4.5.6.6.2.1.5.2.8.2s.6,0,.8-.2.4-.3.6-.6.3-.6.4-.9c0-.3.1-.7.1-1.1s0-.8-.1-1.1Z"/>
          <path class="st29" d="M166.1,92.7v-5.8l-2.5,3.8h0l-2.5-3.8v5.8h-1.9v-9h2.1l2.4,3.8,2.4-3.8h2.1v9h-1.9Z"/>
          <path class="st29" d="M176.8,92.7l-.8-2h-3.8l-.8,2h-2l3.8-9h1.8l3.8,9h-2.1ZM174.1,86.1l-1.2,2.9h2.4l-1.2-2.9Z"/>
          <path class="st29" d="M185.7,92.7l-1.9-2.9h-1.5v2.9h-2v-9h4.1c1.1,0,1.9.3,2.5.8.6.5.9,1.2.9,2.2h0c0,.8-.2,1.3-.5,1.8-.4.5-.8.8-1.4,1l2.2,3.2h-2.3ZM185.8,86.8c0-.4-.1-.7-.4-1-.3-.2-.7-.3-1.1-.3h-2v2.6h2c.5,0,.9-.1,1.1-.3s.4-.5.4-.9h0Z"/>
          <path class="st29" d="M196.7,91.9c-.2.2-.5.4-.8.5s-.6.2-1,.3c-.4,0-.7.1-1.2.1-.7,0-1.3-.1-1.8-.4-.6-.2-1-.6-1.5-1s-.7-.9-1-1.5c-.2-.6-.3-1.2-.3-1.8h0c0-.7.1-1.3.3-1.8s.6-1.1,1-1.5.9-.8,1.5-1c.6-.2,1.2-.4,1.9-.4s.8,0,1.1.1.7.2.9.3c.3.1.5.3.8.4.2.2.5.4.7.6l-1.3,1.4c-.4-.3-.7-.6-1.1-.7-.4-.2-.8-.3-1.2-.3s-.7,0-1,.2-.6.3-.8.6-.4.6-.5.9c-.1.3-.2.7-.2,1.1h0c0,.4,0,.8.2,1.1.1.3.3.6.5.9s.5.5.8.6c.3.1.7.2,1.1.2s.9,0,1.3-.3.7-.4,1.1-.8l1.3,1.3c-.2.2-.5.5-.7.7Z"/>
          <path class="st29" d="M204.6,92.7v-3.6h-3.6v3.6h-2v-9h2v3.5h3.6v-3.5h2v9h-2Z"/>
          <path class="st29" d="M214.5,85.7c-.3.2-.6.5-.9.9l-1.4-1.1c.2-.3.4-.6.7-.8.2-.2.5-.4.7-.6.3-.2.5-.3.9-.4.3,0,.7-.1,1.1-.1s.9,0,1.3.2c.4.1.7.3,1,.6.3.2.5.5.6.9.1.3.2.7.2,1.1s0,.7-.1,1c0,.3-.2.6-.4.8-.2.3-.4.5-.7.8s-.6.5-1,.9l-1.5,1.1h3.9v1.7h-6.6v-1.6l3-2.4c.3-.2.5-.4.7-.6.2-.2.4-.4.5-.5.1-.2.2-.3.3-.5,0-.2,0-.3,0-.5,0-.4-.1-.7-.3-.9-.2-.2-.5-.3-.9-.3s-.7,0-.9.3Z"/>
          <path class="st29" d="M227.8,90.1c-.2.6-.5,1.1-.8,1.5-.3.4-.8.7-1.3,1-.5.2-1,.4-1.6.4s-1.1-.1-1.6-.4c-.5-.2-.9-.6-1.3-1-.3-.4-.6-.9-.8-1.5s-.3-1.2-.3-1.8,0-1.3.3-1.8c.2-.6.5-1.1.8-1.5.3-.4.8-.7,1.3-1,.5-.2,1-.4,1.6-.4s1.1.1,1.6.4c.5.2.9.6,1.3,1s.6.9.8,1.5c.2.6.3,1.2.3,1.8s0,1.3-.3,1.8ZM225.9,87.1c0-.3-.2-.7-.4-.9-.2-.3-.4-.5-.6-.6-.2-.1-.5-.2-.8-.2s-.6,0-.8.2c-.2.1-.4.3-.6.6s-.3.6-.4.9c0,.3-.1.7-.1,1.1s0,.8.1,1.1c0,.3.2.7.4.9.2.3.4.5.6.6.2.1.5.2.8.2s.6,0,.8-.2.4-.3.6-.6.3-.6.4-.9c0-.3.1-.7.1-1.1s0-.8-.1-1.1Z"/>
          <path class="st29" d="M231.8,85.7c-.3.2-.6.5-.9.9l-1.4-1.1c.2-.3.4-.6.7-.8.2-.2.5-.4.7-.6.3-.2.5-.3.9-.4.3,0,.7-.1,1.1-.1s.9,0,1.3.2c.4.1.7.3,1,.6.3.2.5.5.6.9.1.3.2.7.2,1.1s0,.7-.1,1c0,.3-.2.6-.4.8-.2.3-.4.5-.7.8s-.6.5-1,.9l-1.5,1.1h3.9v1.7h-6.6v-1.6l3-2.4c.3-.2.5-.4.7-.6.2-.2.4-.4.5-.5.1-.2.2-.3.3-.5,0-.2,0-.3,0-.5,0-.4-.1-.7-.3-.9-.2-.2-.5-.3-.9-.3s-.7,0-.9.3Z"/>
          <path class="st29" d="M237.6,83.8h6.5v1.5l-4,7.5h-2.2l4-7.3h-4.2v-1.7Z"/>
        </g>
      </g>
      <g class="st27">
        <g class="st27">
          <path class="st29" d="M136.9,44.5l-1.3-3.1h-5.9l-1.3,3.1h-3.1l5.9-14h2.8l5.9,14h-3.2ZM132.7,34.2l-1.8,4.5h3.7l-1.8-4.5Z"/>
          <path class="st29" d="M145.3,33.4v3h6.6v2.8h-6.6v5.4h-3v-13.9h10.6v2.8h-7.5Z"/>
          <path class="st29" d="M163.6,44.5l-3-4.4h-2.4v4.4h-3v-13.9h6.3c1.6,0,2.9.4,3.9,1.2.9.8,1.4,1.9,1.4,3.4h0c0,1.2-.3,2.1-.8,2.8-.5.7-1.3,1.2-2.1,1.6l3.4,5h-3.6ZM163.7,35.4c0-.7-.2-1.2-.6-1.5-.4-.3-1-.5-1.8-.5h-3v4h3.1c.8,0,1.3-.2,1.7-.5.4-.4.6-.8.6-1.4h0Z"/>
          <path class="st29" d="M169.6,44.5v-13.9h3v13.9h-3Z"/>
          <path class="st29" d="M187.2,43.3c-.4.3-.8.6-1.3.8s-1,.4-1.5.5c-.5.1-1.1.2-1.8.2-1,0-2-.2-2.8-.6-.9-.4-1.6-.9-2.3-1.5-.6-.6-1.1-1.4-1.5-2.3s-.5-1.8-.5-2.8h0c0-1,.2-2,.5-2.8s.9-1.6,1.5-2.3c.6-.7,1.4-1.2,2.3-1.5.9-.4,1.9-.6,2.9-.6s1.2,0,1.8.2c.5.1,1,.3,1.5.4.4.2.8.4,1.2.7.4.3.7.6,1,.9l-1.9,2.2c-.5-.5-1.1-.9-1.7-1.1s-1.2-.4-1.9-.4-1.1.1-1.6.3c-.5.2-.9.5-1.3.9-.4.4-.6.9-.8,1.4-.2.5-.3,1.1-.3,1.7h0c0,.6,0,1.2.3,1.7.2.5.5,1,.8,1.4.3.4.8.7,1.3.9.5.2,1,.3,1.6.3s1.5-.1,2-.4c.5-.3,1.1-.7,1.6-1.2l1.9,2c-.4.4-.7.7-1.1,1Z"/>
          <path class="st29" d="M201.1,44.5l-1.3-3.1h-5.9l-1.3,3.1h-3.1l5.9-14h2.8l5.9,14h-3.2ZM196.9,34.2l-1.8,4.5h3.7l-1.8-4.5Z"/>
        </g>
        <g class="st27">
          <path class="st29" d="M137.6,61.1c-.4.3-.8.6-1.3.8s-1,.4-1.5.5c-.5.1-1.1.2-1.8.2-1,0-2-.2-2.8-.6-.9-.4-1.6-.9-2.3-1.5-.6-.6-1.1-1.4-1.5-2.3s-.5-1.8-.5-2.8h0c0-1,.2-2,.5-2.8s.9-1.6,1.5-2.3c.6-.7,1.4-1.2,2.3-1.5.9-.4,1.9-.6,2.9-.6s1.2,0,1.8.2c.5.1,1,.3,1.5.4.4.2.8.4,1.2.7.4.3.7.6,1,.9l-1.9,2.2c-.5-.5-1.1-.9-1.7-1.1s-1.2-.4-1.9-.4-1.1.1-1.6.3c-.5.2-.9.5-1.3.9-.4.4-.6.9-.8,1.4-.2.5-.3,1.1-.3,1.7h0c0,.6,0,1.2.3,1.7.2.5.5,1,.8,1.4.3.4.8.7,1.3.9.5.2,1,.3,1.6.3s1.5-.1,2-.4c.5-.3,1.1-.7,1.6-1.2l1.9,2c-.4.4-.7.7-1.1,1Z"/>
          <path class="st29" d="M154.7,58.2c-.4.9-.9,1.6-1.5,2.3-.7.7-1.4,1.2-2.3,1.5-.9.4-1.9.6-3,.6s-2.1-.2-3-.6c-.9-.4-1.7-.9-2.3-1.5-.7-.6-1.2-1.4-1.5-2.3s-.5-1.8-.5-2.8h0c0-1,.2-2,.6-2.8.4-.9.9-1.6,1.5-2.3s1.4-1.2,2.3-1.5,1.9-.6,3-.6,2.1.2,3,.6c.9.4,1.7.9,2.3,1.5.7.6,1.2,1.4,1.5,2.3.4.9.5,1.8.5,2.8h0c0,1-.2,2-.6,2.8ZM152.1,55.4c0-.6-.1-1.2-.3-1.7-.2-.5-.5-1-.9-1.4-.4-.4-.8-.7-1.3-.9-.5-.2-1.1-.3-1.7-.3s-1.2.1-1.7.3-.9.5-1.3.9c-.4.4-.6.9-.9,1.4s-.3,1.1-.3,1.7h0c0,.6.1,1.2.3,1.7.2.5.5,1,.9,1.4.4.4.8.7,1.3.9.5.2,1.1.3,1.7.3s1.2-.1,1.7-.3c.5-.2,1-.5,1.3-.9.4-.4.6-.9.9-1.4.2-.5.3-1.1.3-1.7h0Z"/>
          <path class="st29" d="M167.7,62.3l-6.7-8.8v8.8h-3v-13.9h2.8l6.5,8.5v-8.5h3v13.9h-2.6Z"/>
          <path class="st29" d="M176.7,51.2v3h6.6v2.8h-6.6v5.4h-3v-13.9h10.6v2.8h-7.5Z"/>
          <path class="st29" d="M186.6,62.3v-13.9h10.4v2.7h-7.4v2.8h6.5v2.7h-6.5v2.9h7.5v2.7h-10.5Z"/>
          <path class="st29" d="M208.3,62.3l-3-4.4h-2.4v4.4h-3v-13.9h6.3c1.6,0,2.9.4,3.9,1.2.9.8,1.4,1.9,1.4,3.4h0c0,1.2-.3,2.1-.8,2.8-.5.7-1.3,1.2-2.1,1.6l3.4,5h-3.6ZM208.4,53.2c0-.7-.2-1.2-.6-1.5-.4-.3-1-.5-1.8-.5h-3v4h3.1c.8,0,1.3-.2,1.7-.5.4-.4.6-.8.6-1.4h0Z"/>
          <path class="st29" d="M214.2,62.3v-13.9h10.4v2.7h-7.4v2.8h6.5v2.7h-6.5v2.9h7.5v2.7h-10.5Z"/>
          <path class="st29" d="M237.2,62.3l-6.7-8.8v8.8h-3v-13.9h2.8l6.5,8.5v-8.5h3v13.9h-2.6Z"/>
          <path class="st29" d="M254.2,61.1c-.4.3-.8.6-1.3.8s-1,.4-1.5.5c-.5.1-1.1.2-1.8.2-1,0-2-.2-2.8-.6-.9-.4-1.6-.9-2.3-1.5-.6-.6-1.1-1.4-1.5-2.3s-.5-1.8-.5-2.8h0c0-1,.2-2,.5-2.8s.9-1.6,1.5-2.3c.6-.7,1.4-1.2,2.3-1.5.9-.4,1.9-.6,2.9-.6s1.2,0,1.8.2c.5.1,1,.3,1.5.4.4.2.8.4,1.2.7.4.3.7.6,1,.9l-1.9,2.2c-.5-.5-1.1-.9-1.7-1.1s-1.2-.4-1.9-.4-1.1.1-1.6.3c-.5.2-.9.5-1.3.9-.4.4-.6.9-.8,1.4-.2.5-.3,1.1-.3,1.7h0c0,.6,0,1.2.3,1.7.2.5.5,1,.8,1.4.3.4.8.7,1.3.9.5.2,1,.3,1.6.3s1.5-.1,2-.4c.5-.3,1.1-.7,1.6-1.2l1.9,2c-.4.4-.7.7-1.1,1Z"/>
          <path class="st29" d="M257.7,62.3v-13.9h10.4v2.7h-7.4v2.8h6.5v2.7h-6.5v2.9h7.5v2.7h-10.5Z"/>
        </g>
      </g>
    </g>
  </g>
  <g>
    <g id="Group_253">
      <path id="Path_213" class="st39" d="M336,99.4v-3.2h.7v3.2h-.7ZM340.4,99.4h-.9l-1.4-2.4h0c0,.4,0,.7,0,.9v1.5h-.6v-3.2h.9l1.4,2.4h0c0-.4,0-.7,0-.9v-1.5h.6v3.2ZM344.1,99.4h-.9l-1.4-2.4h0c0,.4,0,.7,0,.9v1.5h-.6v-3.2h.9l1.4,2.4h0c0-.4,0-.7,0-.9v-1.5h.6v3.2ZM347.8,97.8c0,.5-.1.9-.4,1.2-.3.3-.7.5-1.1.4-.4,0-.8-.1-1.1-.4-.3-.3-.4-.7-.4-1.2,0-.5.1-.9.4-1.2.3-.3.7-.4,1.1-.4.4,0,.8.1,1.1.4.3.3.4.7.4,1.2ZM345.5,97.8c0,.3,0,.6.2.8.1.2.4.3.6.3.5,0,.8-.4.8-1.1s-.3-1.1-.8-1.1c-.2,0-.5,0-.6.3-.2.2-.2.5-.2.8ZM350.3,96.2h.7l-1.1,3.2h-.7l-1.1-3.2h.7l.6,1.9c0,.1,0,.2.1.4,0,.1,0,.3,0,.3,0-.2,0-.5.2-.7l.6-1.9ZM353.2,99.4l-.2-.8h-1.2l-.2.8h-.7l1.1-3.2h.8l1.1,3.2h-.7ZM352.8,98.1c-.2-.7-.3-1.1-.4-1.2,0,0,0-.2,0-.2,0,.2-.2.6-.4,1.4h.8ZM355.3,99.4h-.7v-2.6h-.9v-.6h2.4v.6h-.9v2.6ZM356.7,99.4v-3.2h.7v3.2h-.7ZM360.1,96.2h.7l-1.1,3.2h-.7l-1.1-3.2h.7l.6,1.9c0,.1,0,.2.1.4,0,.1,0,.3,0,.3,0-.2,0-.5.2-.7l.6-1.9ZM363.1,99.4h-1.8v-3.2h1.8v.6h-1.2v.7h1.1v.6h-1.1v.8h1.2v.6ZM337.2,104.8h-.7v-2.6h-.9v-.6h2.4v.6h-.9v2.6ZM339.3,103h.2c.2,0,.3,0,.5-.1.1,0,.2-.2.2-.3,0-.1,0-.3-.2-.3-.2,0-.3-.1-.5,0h-.2v.9ZM339.3,103.6v1.2h-.7v-3.2h.9c.4,0,.8,0,1,.2.2.2.3.4.3.7,0,.2,0,.4-.2.5-.1.2-.3.3-.4.3.5.7.8,1.2.9,1.4h-.8l-.8-1.2h-.4ZM343.6,104.8l-.2-.8h-1.2l-.2.8h-.7l1.1-3.2h.8l1.1,3.2h-.7ZM343.2,103.5c-.2-.7-.3-1.1-.4-1.2,0,0,0-.2,0-.2,0,.2-.2.6-.4,1.4h.8ZM347.6,104.8h-.9l-1.4-2.4h0c0,.4,0,.7,0,.9v1.5h-.6v-3.2h.9l1.4,2.4h0c0-.4,0-.7,0-.9v-1.5h.6v3.2ZM350.4,103.9c0,.3-.1.5-.3.7-.3.2-.6.3-.9.2-.3,0-.6,0-.9-.2v-.6c.2,0,.4.2.5.2.1,0,.3,0,.4,0,.1,0,.2,0,.3,0,0,0,.1-.2.1-.3,0,0,0-.1,0-.2,0,0,0-.1-.2-.1-.1,0-.3-.2-.4-.2-.2,0-.3-.2-.4-.3,0,0-.2-.2-.2-.3,0-.1,0-.3,0-.4,0-.3,0-.5.3-.7.2-.2.5-.3.8-.2.2,0,.3,0,.5,0,.2,0,.3,0,.5.2l-.2.5c-.1,0-.3-.1-.4-.1-.1,0-.2,0-.3,0-.1,0-.2,0-.3,0,0,0-.1.1-.1.2,0,0,0,.1,0,.2,0,0,0,0,.1.1.1,0,.3.2.4.2.2,0,.4.2.6.4.1.2.2.3.2.5h0ZM351.7,103.1h.2c.2,0,.3,0,.5-.1.1,0,.2-.2.2-.4,0-.1,0-.3-.1-.4-.1,0-.3-.1-.4-.1h-.3v1ZM353.2,102.6c0,.3-.1.6-.3.8-.3.2-.6.3-.9.3h-.3v1.1h-.7v-3.2h1c.3,0,.6,0,.9.3.2.2.3.5.3.7h0ZM356.8,103.2c0,.5-.1.9-.4,1.2-.6.6-1.6.6-2.3,0-.3-.3-.4-.7-.4-1.2s.1-.9.4-1.2c.3-.3.7-.4,1.1-.4.4,0,.8.1,1.1.4.3.3.4.7.4,1.2h0ZM354.4,103.2c0,.3,0,.6.2.8.1.2.4.3.6.3.5,0,.8-.4.8-1.1s-.3-1.1-.8-1.1c-.2,0-.5,0-.6.3-.2.2-.2.5-.2.8h0ZM358.2,103h.2c.2,0,.3,0,.5-.1.1,0,.2-.2.2-.3,0-.1,0-.3-.2-.3-.2,0-.3-.1-.5,0h-.2v.9ZM358.2,103.6v1.2h-.7v-3.2h.9c.4,0,.8,0,1,.2.2.2.3.4.3.7,0,.2,0,.4-.2.5-.1.2-.3.3-.4.3.5.7.8,1.2.9,1.4h-.8l-.8-1.2h-.4ZM361.7,104.8h-.7v-2.6h-.9v-.6h2.4v.6h-.9v2.6ZM337.9,109.3c0,.3-.1.5-.3.7-.3.2-.6.3-.9.2-.3,0-.6,0-.9-.2v-.6c.2,0,.4.2.5.2.1,0,.3,0,.4,0,.1,0,.2,0,.3,0,0,0,.1-.2.1-.3,0,0,0-.1,0-.2,0,0,0-.1-.2-.1-.1,0-.3-.2-.4-.2-.2,0-.3-.2-.4-.3,0,0-.2-.2-.2-.3,0-.1,0-.3,0-.4,0-.3,0-.5.3-.7.2-.2.5-.3.8-.2.2,0,.3,0,.5,0,.2,0,.3,0,.5.2l-.2.5c-.1,0-.3-.1-.4-.1-.1,0-.2,0-.3,0-.1,0-.2,0-.3,0,0,0-.1.1-.1.2,0,0,0,.1,0,.2,0,0,0,0,.1.1.1,0,.3.2.4.2.2,0,.4.2.6.4.1.2.2.3.2.5ZM341.4,108.6c0,.5-.1.9-.4,1.2-.3.3-.7.5-1.1.4-.4,0-.8-.1-1.1-.4-.3-.3-.4-.7-.4-1.2s.1-.9.4-1.2c.3-.3.7-.4,1.1-.4.4,0,.8.1,1.1.4.3.3.4.7.4,1.2h0ZM339.1,108.6c0,.3,0,.6.2.8.1.2.4.3.6.3.5,0,.8-.4.8-1.1s-.3-1.1-.8-1.1c-.2,0-.5,0-.6.3-.2.2-.2.5-.2.8h0ZM342.1,110.2v-3.2h.7v2.6h1.3v.6h-2ZM347.3,107v2.1c0,.2,0,.4-.2.6-.1.2-.3.3-.5.4-.2,0-.5.1-.7.1-.3,0-.7,0-1-.3-.2-.2-.4-.5-.3-.9v-2.1h.7v2c0,.2,0,.4.1.5.1.1.3.2.5.2.2,0,.4,0,.5-.2.1-.2.2-.4.2-.5v-2h.7ZM349.3,110.2h-.7v-2.6h-.9v-.6h2.4v.6h-.9v2.6ZM350.8,110.2v-3.2h.7v3.2h-.7ZM355.2,108.6c0,.5-.1.9-.4,1.2-.3.3-.7.5-1.1.4-.4,0-.8-.1-1.1-.4-.3-.3-.4-.7-.4-1.2s.1-.9.4-1.2c.3-.3.7-.4,1.1-.4.4,0,.8.1,1.1.4.3.3.4.7.4,1.2ZM352.9,108.6c0,.3,0,.6.2.8.1.2.4.3.6.3.5,0,.8-.4.8-1.1,0-.7-.3-1.1-.8-1.1-.2,0-.5,0-.6.3-.2.2-.2.5-.2.8ZM358.7,110.2h-.9l-1.4-2.4h0c0,.4,0,.7,0,.9v1.5h-.6v-3.2h.9l1.4,2.4h0c0-.4,0-.7,0-.9v-1.5h.6v3.2ZM361.5,109.3c0,.3-.1.5-.3.7-.3.2-.6.3-.9.2-.3,0-.6,0-.9-.2v-.6c.2,0,.4.2.5.2.1,0,.3,0,.4,0,.1,0,.2,0,.3,0,0,0,.1-.2.1-.3,0,0,0-.1,0-.2,0,0,0-.1-.2-.1-.1,0-.3-.2-.4-.2-.2,0-.3-.2-.4-.3,0,0-.2-.2-.2-.3,0-.1,0-.3,0-.4,0-.3,0-.5.3-.7.2-.2.5-.3.8-.2.2,0,.3,0,.5,0,.2,0,.3,0,.5.2l-.2.5c-.1,0-.3-.1-.4-.1-.1,0-.2,0-.3,0-.1,0-.2,0-.3,0,0,0-.1.1-.1.2,0,0,0,.1,0,.2,0,0,0,0,.1.1.1,0,.3.2.4.2.2,0,.4.2.6.4.1.2.2.3.2.5h0Z"/>
      <path id="Path_205" class="st35" d="M330,102.9c-.3-.3-.7-.5-1-.7-.8-.5-1.3-.8-1.2-1.5,0-.2.1-.5.3-.6.3-.2.6-.3.9-.3.7,0,1.3.3,1.8.7l.2.2,2-3.3h-.2c0-.2-1.7-1.2-3.4-1.2-3.1,0-5.2,1.7-5.5,4.6-.2,1.6.3,2.7,1.5,3.8.3.3.7.5.9.7.9.6,1.1.8.9,1.5-.1.3-.7.6-1.6.6-1.2,0-2.2-.9-2.2-.9l-.4-.3-.5,4.2h0c.2.3,1,.9,3.1.9,3.5,0,5.7-1.6,6-4.5.2-2-.7-3.1-1.8-4"/>
      <path id="Path_206" class="st35" d="M309.4,96.9l-1.8,14.2h4.3l2-16.4c-1.4.5-3.1,1.3-4.5,2.2"/>
      <path id="Path_207" class="st35" d="M322.3,101l1.9-4.1h-.3c-.9-.1-1.8-.2-2.7-.1-.6,0-1.2,0-1.8.2l.5-4c-1.4.2-2.9.8-4.4,1.3l-1.5,12.5c0,.6,0,1.2,0,1.8.1.5.3,1,.6,1.4.3.4.7.7,1.2.9.5.2,1.1.3,1.6.3,1.3,0,3.6-.4,4-.7h0c0,0,.5-4.3.5-4.3l-.4.2c-.6.3-1.6.4-2.4.3-.4,0-.7-.1-.8-.3-.1-.1-.2-.4-.1-1.2l.5-4.4h3.5Z"/>
      <path id="Path_208" class="st39" d="M314.1,89.8c-.4-.5-1.1-.8-1.7-.8-.7,0-1.4.3-1.9.8-.6.5-.9,1.1-1,1.8,0,.7.1,1.3.6,1.8.4.5,1.1.8,1.7.8.7,0,1.4-.3,1.9-.8.6-.5.9-1.1,1-1.8,0-.7-.1-1.3-.6-1.8"/>
    </g>
    <g>
      <path class="st31" d="M309.9,83.3c-.3,0-.5,0-.8-.1-.2,0-.4-.2-.6-.4-.2-.2-.3-.4-.4-.6,0-.2-.1-.5-.1-.7s0-.5.1-.7c0-.2.2-.4.4-.6.2-.2.4-.3.6-.4.2,0,.5-.1.8-.1s.5,0,.8.1c.2,0,.4.2.6.4.2.2.3.4.4.6,0,.2.1.5.1.7s0,.5-.1.7-.2.4-.4.6-.4.3-.6.4c-.2,0-.5.1-.8.1ZM309.8,82.6c.2,0,.3,0,.4,0,.1,0,.3-.1.4-.2s.2-.2.2-.4,0-.3,0-.5,0-.3,0-.5-.1-.3-.2-.4-.2-.2-.4-.2c-.1,0-.3,0-.4,0s-.3,0-.4,0c-.1,0-.3.1-.4.2-.1.1-.2.2-.2.4,0,.1,0,.3,0,.5s0,.3,0,.5c0,.1.1.3.2.4.1.1.2.2.4.2.1,0,.3,0,.4,0Z"/>
      <path class="st31" d="M312.4,83.2v-3.6h1.6c.3,0,.6,0,.8.2s.4.3.5.4c.1.2.2.4.2.7s0,.5-.2.7-.3.3-.5.4-.5.2-.8.2h-1.1l.4-.4v1.4h-.8ZM313.3,81.9l-.4-.4h1.1c.3,0,.4,0,.6-.2s.2-.3.2-.5,0-.4-.2-.5c-.1-.1-.3-.2-.6-.2h-1.1l.4-.4v2ZM314.7,83.2l-.9-1.3h.9l.9,1.3h-.9Z"/>
      <path class="st31" d="M317.9,83.3c-.3,0-.5,0-.8-.1-.2,0-.4-.2-.6-.4-.2-.2-.3-.4-.4-.6,0-.2-.1-.5-.1-.7s0-.5.1-.7c0-.2.2-.4.4-.6.2-.2.4-.3.6-.4.2,0,.5-.1.8-.1s.6,0,.9.2c.3.1.5.3.6.5l-.5.5c-.1-.1-.3-.2-.4-.3-.2,0-.3-.1-.5-.1s-.3,0-.5,0-.3.1-.4.2c-.1.1-.2.2-.2.4,0,.1,0,.3,0,.5s0,.3,0,.5c0,.1.1.3.2.4.1.1.2.2.4.2.1,0,.3,0,.5,0s.3,0,.5,0c.2,0,.3-.1.5-.3l.5.6c-.2.2-.4.3-.7.3s-.5.1-.8.1ZM318.6,82.7v-1.3h.8v1.5h-.8Z"/>
      <path class="st31" d="M319.7,83.2l1.6-3.6h.8l1.6,3.6h-.9l-1.3-3.2h.3l-1.3,3.2h-.9ZM320.5,82.4l.2-.6h1.9l.2.6h-2.3Z"/>
      <path class="st31" d="M324.1,83.2v-3.6h.7l2.1,2.6h-.3v-2.6h.8v3.6h-.7l-2.1-2.6h.3v2.6h-.8Z"/>
      <path class="st31" d="M328.2,83.2v-3.6h.8v3.6h-.8Z"/>
      <path class="st31" d="M331.1,83.3c-.3,0-.6,0-.8-.1-.3,0-.5-.2-.6-.3l.3-.6c.2.1.3.2.5.3.2,0,.4.1.6.1s.3,0,.4,0c.1,0,.2,0,.2-.1s0-.1,0-.2,0-.2-.1-.2-.2-.1-.3-.1-.3,0-.4-.1c-.1,0-.3,0-.4-.1-.1,0-.3-.1-.4-.2s-.2-.2-.3-.3-.1-.3-.1-.5,0-.4.2-.6c.1-.2.3-.3.5-.4.2-.1.5-.2.8-.2s.4,0,.7,0,.4.1.6.2l-.3.6c-.2,0-.3-.2-.5-.2-.2,0-.3,0-.5,0s-.3,0-.4,0c0,0-.2,0-.2.1,0,0,0,.1,0,.2s0,.2.1.2c0,0,.2.1.3.1s.3,0,.4,0,.3,0,.4.1.3.1.4.2c.1,0,.2.2.3.3s.1.3.1.5,0,.4-.2.6c-.1.2-.3.3-.5.4-.2.1-.5.2-.8.2Z"/>
      <path class="st31" d="M334,82.5h2v.7h-2.8v-3.6h2.7v.7h-1.9v2.3ZM334,81.1h1.7v.7h-1.7v-.7Z"/>
      <path class="st31" d="M336.6,83.2v-3.6h1.6c.4,0,.7,0,1,.2s.5.4.7.6c.2.3.3.6.3.9s0,.7-.3.9c-.2.3-.4.5-.7.6-.3.1-.6.2-1,.2h-1.6ZM337.5,82.5h.8c.2,0,.4,0,.6-.1s.3-.2.4-.4c0-.2.1-.4.1-.6s0-.4-.1-.6c0-.2-.2-.3-.4-.4-.2,0-.4-.1-.6-.1h-.8v2.2Z"/>
      <path class="st31" d="M342.3,83.2v-3.6h1.8c.5,0,.8,0,1,.3s.3.4.3.7,0,.4-.1.5c0,.1-.2.2-.4.3-.2,0-.3.1-.6.1v-.2c.3,0,.5,0,.7.1.2,0,.3.2.4.3s.1.3.1.5c0,.3-.1.5-.4.7s-.6.3-1.1.3h-1.9ZM343.2,82.6h1c.2,0,.4,0,.5-.1.1,0,.2-.2.2-.3s0-.3-.2-.3c-.1,0-.3-.1-.5-.1h-1v-.6h.9c.2,0,.4,0,.5-.1.1,0,.2-.2.2-.3s0-.2-.2-.3c-.1,0-.3-.1-.5-.1h-.8v2.3Z"/>
      <path class="st31" d="M347.2,83.2v-1.5l.2.5-1.6-2.6h.9l1.2,2h-.5l1.2-2h.8l-1.6,2.6.2-.5v1.5h-.8Z"/>
      <path class="st31" d="M350,81.4c-.1,0-.3,0-.4-.1,0,0-.1-.2-.1-.4s0-.3.1-.4c0,0,.2-.1.4-.1s.3,0,.4.1c0,0,.1.2.1.4s0,.3-.1.4-.2.1-.4.1ZM350,83.3c-.1,0-.3,0-.4-.1,0,0-.1-.2-.1-.4s0-.3.1-.4c0,0,.2-.1.4-.1s.3,0,.4.1.1.2.1.4,0,.3-.1.4c0,0-.2.1-.4.1Z"/>
    </g>
  </g>
  <g>
    <g>
      <path id="svg_55" d="M425.9,104.2c-.1,0-.2-.2-.4-.2s-.3,0-.4,0-.2,0-.4,0c-.1,0-.2,0-.3.1,0,0-.2.1-.2.2,0,0,0,.2,0,.3s0,.2,0,.3c0,0,0,.2.2.2,0,0,.1.1.2.1,0,0,.2,0,.2,0,0,0,.2,0,.2,0,0,0,.1,0,.2,0,0,0,.1,0,.1.1,0,0,0,.1,0,.2s0,.1,0,.2c0,0,0,0-.1.1,0,0,0,0-.2,0,0,0-.1,0-.2,0-.1,0-.2,0-.3,0-.1,0-.2-.1-.3-.2l-.3.3c.1.1.2.2.4.3.2,0,.3,0,.5,0s.3,0,.4,0c.1,0,.2,0,.3-.2,0,0,.2-.2.2-.3,0-.1,0-.2,0-.4s0-.2,0-.3c0,0-.1-.2-.2-.2s-.2-.1-.3-.1c0,0-.2,0-.3,0,0,0-.1,0-.2,0s-.1,0-.2,0c0,0-.1-.2-.1-.3,0,0,0-.1,0-.2,0,0,0,0,.1-.1,0,0,0,0,.2,0,0,0,.1,0,.2,0,0,0,.2,0,.3,0s.2.1.2.2l.3-.3h0ZM427.2,106.7h.5v-2.2h.8v-.4h-2.1v.4h.8v2.2ZM428.7,106.7h.5l.2-.6h1.2l.2.6h.5l-1.1-2.7h-.4s-1.2,2.7-1.2,2.7ZM429.6,105.7l.4-1.1.4,1.1h-.8ZM432,106.7h.9c.2,0,.3,0,.5,0,.2,0,.3-.1.5-.2.1-.1.3-.2.3-.4,0-.2.1-.4.1-.6s0-.5-.1-.6c0-.2-.2-.3-.3-.4-.1-.1-.3-.2-.5-.2-.2,0-.3,0-.5,0h-.9v2.7ZM432.5,106.3v-1.8h.4c.1,0,.2,0,.4,0,.1,0,.2,0,.3.1,0,0,.2.2.2.3,0,.1,0,.3,0,.5s0,.3,0,.4c0,.1-.1.2-.2.3-.1,0-.2.1-.3.1-.1,0-.2,0-.4,0h-.4ZM436.5,106.7h.5v-1.3h0l1.2,1.3h.7l-1.3-1.4,1.2-1.2h-.6l-1.1,1.1h0v-1.1h-.5v2.7h0ZM439.1,106.7h.5l.2-.6h1.1l.2.6h.5l-1.1-2.7h-.4l-1.2,2.7h0ZM440.1,105.7l.4-1.1.4,1.1h-.8ZM442.2,106.7h.5l.2-.6h1.1l.2.6h.5l-1.1-2.7h-.4l-1.2,2.7h0ZM443.1,105.7l.4-1.1.4,1.1h-.8ZM445.5,106.7h.5v-1.1h.4c.1,0,.3,0,.4,0s.2,0,.3-.1c0,0,.2-.1.2-.2,0-.1,0-.2,0-.4s0-.3,0-.4c0,0-.1-.2-.2-.2,0,0-.2-.1-.3-.1s-.3,0-.4,0h-.9v2.7ZM446,105.2v-.8h.3c0,0,.1,0,.2,0,0,0,.1,0,.2,0,0,0,0,0,.1.1,0,0,0,.1,0,.2s0,.1,0,.2c0,0,0,0-.1.1,0,0-.1,0-.2,0,0,0-.1,0-.2,0h-.3ZM449.8,104.2c-.1,0-.2-.2-.4-.2-.2,0-.5,0-.8,0-.1,0-.2,0-.3.1,0,0-.2.1-.2.2,0,0,0,.2,0,.3s0,.2,0,.3c0,0,0,.2.2.2,0,0,.1.1.2.1,0,0,.2,0,.2,0,0,0,.2,0,.2,0,0,0,.1,0,.2,0,0,0,0,0,.1.1,0,0,0,.1,0,.2s0,.1,0,.2c0,0,0,0-.1.1,0,0,0,0-.2,0-.2,0-.3,0-.5,0-.1,0-.2-.1-.3-.2l-.3.3c.1.1.2.2.4.3.2,0,.3,0,.5,0s.3,0,.4,0c.1,0,.2,0,.3-.2,0,0,.2-.2.2-.3,0-.1,0-.2,0-.4s0-.2,0-.3c0,0-.1-.2-.2-.2,0,0-.2-.1-.3-.1,0,0-.2,0-.3,0,0,0-.1,0-.2,0s-.1,0-.2,0c0,0,0,0-.1-.1,0,0,0-.1,0-.2,0,0,0-.1,0-.2,0,0,0,0,.1-.1s0,0,.1,0c0,0,.1,0,.2,0,0,0,.2,0,.3,0s.2.1.2.2l.3-.3h0ZM451.2,106.7h.5v-2.2h.8v-.4h-2.1v.4h.8v2.2ZM452.6,106.7h.5l.2-.6h1.2l.2.6h.5l-1.1-2.7h-.4l-1.2,2.7h0ZM453.5,105.7l.4-1.1.4,1.1h-.8ZM455.9,106.7h.9c.2,0,.3,0,.5,0,.2,0,.3-.1.5-.2.1-.1.3-.2.3-.4,0-.2.1-.4.1-.6s0-.5-.1-.6c0-.2-.2-.3-.3-.4-.1-.1-.3-.2-.5-.2-.2,0-.3,0-.5,0h-.9v2.7ZM456.4,106.3v-1.8h.4c.1,0,.2,0,.4,0,.1,0,.2,0,.3.1,0,0,.2.2.2.3s0,.3,0,.5,0,.3,0,.4c0,.1-.1.2-.2.3-.1,0-.2.1-.3.1-.1,0-.2,0-.4,0h-.4Z"/>
      <path id="svg_56" d="M424.2,102.3h.5v-2.7h-.5v2.7ZM427.3,99.9c-.1,0-.2-.2-.4-.2s-.3,0-.4,0-.2,0-.4,0c-.1,0-.2,0-.3.1s-.2.1-.2.2c0,0,0,.2,0,.3s0,.2,0,.3c0,0,0,.2.2.2,0,0,.1.1.2.1,0,0,.2,0,.2,0,0,0,.2,0,.2,0s.1,0,.2,0c0,0,.1,0,.1.1,0,0,0,.1,0,.2s0,.1,0,.2c0,0,0,0-.1.1s0,0-.2,0c0,0-.1,0-.2,0-.1,0-.2,0-.3,0-.1,0-.2-.1-.3-.2l-.3.3c.1.1.2.2.4.3.2,0,.3,0,.5,0s.3,0,.4,0c.1,0,.2,0,.3-.2,0,0,.2-.2.2-.3,0-.1,0-.2,0-.4s0-.2,0-.3c0,0-.1-.2-.2-.2s-.2-.1-.3-.1c0,0-.2,0-.3,0,0,0-.1,0-.2,0,0,0-.1,0-.2,0,0,0,0,0-.1-.1,0,0,0,0,0-.2s0-.1,0-.2c0,0,0,0,.1-.1,0,0,0,0,.2,0,0,0,.1,0,.2,0,0,0,.2,0,.3,0,0,0,.2,0,.2.2,0,0,.3-.3.3-.3ZM428.2,102.3h.5v-2.7h-.5v2.7ZM429.3,102.3h.6l.6-1,.6,1h.6l-.9-1.4.8-1.2h-.5l-.5.9-.5-.9h-.6l.8,1.2s-.9,1.4-.9,1.4ZM432.5,102.3h1.8v-.4h-1.4v-.7h1.2v-.4h-1.2v-.7h1.3v-.4h-1.8v2.7ZM435.1,102.3h.5v-1.3h0l1.2,1.3h.7l-1.3-1.4,1.2-1.2h-.6l-1.1,1.1h0v-1.1h-.5s0,2.7,0,2.7ZM438,101.5c0,.2.2.3.3.4.1.1.3.2.4.3.2,0,.4.1.6.1s.4,0,.6-.1c.2,0,.3-.2.5-.3.1-.1.2-.3.3-.4,0-.2.1-.4.1-.6s0-.4-.1-.6c0-.2-.2-.3-.3-.4-.1-.1-.3-.2-.5-.3-.2,0-.4,0-.6,0s-.4,0-.6,0c-.2,0-.3.2-.4.3-.1.1-.2.3-.3.4,0,.2-.1.4-.1.6,0,.2,0,.4.1.6M438.4,100.6c0-.1.1-.2.2-.3,0,0,.2-.2.3-.2.1,0,.2,0,.4,0s.3,0,.4,0c.1,0,.2.1.3.2s.1.2.2.3,0,.2,0,.4,0,.3,0,.4-.1.2-.2.3c0,0-.2.2-.3.2-.1,0-.2,0-.4,0s-.3,0-.4,0c-.1,0-.2-.1-.3-.2,0,0-.1-.2-.2-.3,0-.1,0-.3,0-.4s0-.3,0-.4M444.5,99.9c-.1,0-.2-.2-.4-.2-.1,0-.3,0-.4,0s-.2,0-.4,0c-.1,0-.2,0-.3.1,0,0-.2.1-.2.2,0,0,0,.2,0,.3s0,.2,0,.3c0,0,0,.2.2.2,0,0,.1.1.2.1,0,0,.2,0,.2,0,0,0,.2,0,.2,0,0,0,.1,0,.2,0,0,0,.1,0,.1.1,0,0,0,.1,0,.2s0,.1,0,.2c0,0,0,0-.1.1s0,0-.2,0c0,0-.1,0-.2,0-.1,0-.2,0-.3,0-.1,0-.2-.1-.3-.2l-.3.3c.1.1.2.2.4.3.3.1.6.1.9,0,.1,0,.2,0,.3-.2s.2-.2.2-.3,0-.2,0-.4,0-.2,0-.3c0,0-.1-.2-.2-.2,0,0-.2-.1-.3-.1,0,0-.2,0-.3,0,0,0-.1,0-.2,0,0,0-.1,0-.2,0,0,0,0,0-.1-.1,0,0,0,0,0-.2s0-.1,0-.2c0,0,0,0,.1-.1,0,0,0,0,.1,0,0,0,.1,0,.2,0,0,0,.2,0,.3,0,0,0,.2,0,.2.2l.3-.3h0ZM445,102.3h.5l.2-.6h1.2l.2.6h.5l-1.1-2.7h-.4l-1.2,2.7ZM446,101.3l.4-1.1.4,1.1h-.8ZM450,99.9c-.1,0-.2-.2-.4-.2-.1,0-.3,0-.4,0s-.2,0-.4,0c-.1,0-.2,0-.3.1,0,0-.2.1-.2.2,0,0,0,.2,0,.3s0,.2,0,.3c0,0,0,.2.2.2,0,0,.1.1.2.1,0,0,.2,0,.2,0,0,0,.2,0,.2,0s.1,0,.2,0c0,0,.1,0,.1.1,0,0,0,.1,0,.2s0,.1,0,.2c0,0,0,0-.1.1,0,0,0,0-.2,0,0,0-.1,0-.2,0-.1,0-.2,0-.3,0-.1,0-.2-.1-.3-.2l-.3.3c.1.1.2.2.4.3.2,0,.3,0,.5,0s.3,0,.4,0c.1,0,.2,0,.3-.2s.2-.2.2-.3c0-.1,0-.2,0-.4s0-.2,0-.3c0,0-.1-.2-.2-.2,0,0-.2-.1-.3-.1,0,0-.2,0-.3,0,0,0-.1,0-.2,0,0,0-.1,0-.2,0,0,0,0,0-.1-.1,0,0,0-.1,0-.2,0,0,0-.1,0-.2,0,0,0,0,.1-.1,0,0,0,0,.2,0s.1,0,.2,0c0,0,.2,0,.3,0,0,0,.2,0,.2.2l.3-.3h0ZM450.9,102.3h1.8v-.4h-1.4v-.7h1.2v-.4h-1.2v-.7h1.3v-.4h-1.8v2.7ZM453.6,102.3h.5v-1.3h0l1.2,1.3h.7l-1.3-1.4,1.2-1.2h-.6l-1.1,1.1h0v-1.1h-.5v2.7ZM456.2,102.3h.5l.2-.6h1.2l.2.6h.5l-1.1-2.7h-.4l-1.2,2.7ZM457.1,101.3l.4-1.1.4,1.1h-.8ZM459.5,102.3h.5v-1.1h.4c.1,0,.3,0,.4,0,.1,0,.2,0,.3-.1,0,0,.2-.1.2-.2,0-.1,0-.2,0-.4s0-.3,0-.4c0,0-.1-.2-.2-.2,0,0-.2-.1-.3-.1-.1,0-.3,0-.4,0h-.9v2.7ZM460,100.8v-.8h.3c0,0,.1,0,.2,0,0,0,.1,0,.2,0,0,0,0,0,.1.1,0,0,0,.1,0,.2s0,.1,0,.2c0,0,0,0-.1.1s-.1,0-.2,0c0,0-.1,0-.2,0,0,0-.3,0-.3,0ZM461.6,102.3h.5l.2-.6h1.2l.2.6h.5l-1.1-2.7h-.4l-1.2,2.7h0ZM462.5,101.3l.4-1.1.4,1.1h-.8Z"/>
      <path id="svg_57" d="M426.5,95.6c0,0-.1-.1-.2-.2-.2-.1-.3-.2-.5-.2,0,0-.2,0-.3,0-.2,0-.4,0-.6,0-.2,0-.3.2-.5.3-.1.1-.2.3-.3.4,0,.2-.1.4-.1.6s0,.4.1.6c0,.2.2.3.3.4.1.1.3.2.4.3.2,0,.4.1.6.1s.4,0,.6-.1.3-.2.4-.3l-.4-.3c0,0-.2.2-.3.2s-.2,0-.4,0-.3,0-.4,0c-.1,0-.2-.1-.3-.2,0,0-.1-.2-.2-.3,0-.1,0-.3,0-.4s0-.3,0-.4c0-.1.1-.2.2-.3,0,0,.2-.2.3-.2.1,0,.2,0,.4,0s.2,0,.3,0,.2.1.3.2l.4-.3h0ZM427.2,98h.5v-2.7h-.5v2.7ZM429.2,98h.5v-2.2h.8v-.4h-2.1v.4h.8s0,2.2,0,2.2ZM431.7,98h.5v-1.2l1-1.5h-.5l-.7,1.1-.7-1.1h-.6l1,1.5v1.2ZM435,97.2c0,.2.2.3.3.4.1.1.3.2.4.3s.4.1.6.1.4,0,.6-.1.3-.2.5-.3c.1-.1.2-.3.3-.4,0-.2.1-.4.1-.6s0-.4-.1-.6c0-.2-.2-.3-.3-.4-.1-.1-.3-.2-.5-.3-.2,0-.4,0-.6,0s-.4,0-.6,0c-.2,0-.3.2-.4.3-.1.1-.2.3-.3.4,0,.2-.1.4-.1.6s0,.4.1.6M435.5,96.2c0-.1.1-.2.2-.3,0,0,.2-.2.3-.2.1,0,.2,0,.4,0s.3,0,.4,0c.1,0,.2.1.3.2,0,0,.1.2.2.3,0,.1,0,.2,0,.4s0,.3,0,.4c0,.1-.1.2-.2.3,0,0-.2.2-.3.2-.1,0-.2,0-.4,0s-.3,0-.4,0c-.1,0-.2-.1-.3-.2s-.1-.2-.2-.3c0-.1,0-.2,0-.4s0-.3,0-.4M438.6,98h.5v-1.1h1.2v-.4h-1.2v-.7h1.2v-.4h-1.7s0,2.7,0,2.7ZM444.7,95.6c0,0-.1-.1-.2-.2s-.2,0-.2-.1c0,0-.2,0-.3,0,0,0-.2,0-.3,0-.2,0-.4,0-.6,0-.2,0-.3.2-.5.3s-.2.3-.3.4c0,.2-.1.4-.1.6,0,.2,0,.4.1.6,0,.2.2.3.3.4.1.1.3.2.4.3.2,0,.4.1.6.1s.4,0,.6-.1.3-.2.4-.3l-.4-.3c0,0-.2.2-.3.2-.1,0-.2,0-.4,0s-.3,0-.4,0c-.1,0-.2-.1-.3-.2,0,0-.1-.2-.2-.3,0-.1,0-.3,0-.4s0-.3,0-.4c0-.1.1-.2.2-.3,0,0,.2-.2.3-.2.1,0,.2,0,.4,0s.2,0,.3,0c.1,0,.2.1.3.2l.4-.3h0ZM445.1,98h.5l.2-.6h1.1l.2.6h.5l-1.1-2.7h-.4l-1.2,2.7h0ZM446,96.9l.4-1.1.4,1.1h-.8ZM448.4,98h.5v-1.1h.4c.1,0,.3,0,.4,0s.2,0,.3-.1c0,0,.2-.1.2-.2,0-.1,0-.2,0-.4s0-.3,0-.4c0,0-.1-.2-.2-.2s-.2-.1-.3-.1-.3,0-.4,0h-.9v2.7ZM448.9,96.5v-.8h.3c0,0,.1,0,.2,0,0,0,.1,0,.2,0,0,0,0,0,.1.1,0,0,0,.1,0,.2s0,.1,0,.2c0,0,0,0-.1.1,0,0-.1,0-.2,0,0,0-.1,0-.2,0,0,0-.3,0-.3,0ZM451.1,98h1.8v-.4h-1.4v-.7h1.2v-.4h-1.2v-.7h1.3v-.4h-1.8s0,2.7,0,2.7ZM455.5,98h.5v-2.2h.8v-.4h-2.1v.4h.8v2.2ZM457.3,97.2c0,.2.2.3.3.4.1.1.3.2.4.3.2,0,.4.1.6.1s.4,0,.6-.1c.2,0,.3-.2.5-.3.1-.1.2-.3.3-.4,0-.2.1-.4.1-.6s0-.4-.1-.6c0-.2-.2-.3-.3-.4-.1-.1-.3-.2-.5-.3-.2,0-.4,0-.6,0-.2,0-.4,0-.6,0-.2,0-.3.2-.4.3s-.2.3-.3.4c0,.2-.1.4-.1.6s0,.4.1.6M457.8,96.2c0-.1.1-.2.2-.3,0,0,.2-.2.3-.2.1,0,.2,0,.4,0s.3,0,.4,0c.1,0,.2.1.3.2,0,0,.1.2.2.3,0,.1,0,.2,0,.4s0,.3,0,.4c0,.1-.1.2-.2.3,0,0-.2.2-.3.2-.1,0-.2,0-.4,0s-.3,0-.4,0c-.1,0-.2-.1-.3-.2,0,0-.1-.2-.2-.3,0-.1,0-.2,0-.4s0-.3,0-.4M461.4,98h.5l.6-2h0l.6,2h.5l.8-2.7h-.5l-.5,1.9h0l-.6-1.9h-.5l-.6,1.9h0l-.5-1.9h-.5l.8,2.7h0ZM465,98h.5v-2h0l1.3,2h.6v-2.7h-.5v2h0l-1.2-2h-.6v2.7h0Z"/>
      <path id="svg_58" class="st1" d="M419.3,99.7l1.3-2.2-2.3-4.1h-2.5v-2.7l-2.3,1.3-1.3-2.2h-4.7l-1.3,2.2-2.3-1.3v2.7h-2.5l-2.3,4.1,1.3,2.2-2.3,1.3,2.3,1.3-1.3,2.2,2.3,4.1h2.5v2.7l2.3-1.3,1.3,2.2h4.7l1.3-2.2,2.3,1.3v-2.7h2.5s2.3-4.1,2.3-4.1l-1.3-2.2,2.3-1.3s-2.3-1.3-2.3-1.3Z"/>
      <path id="svg_60" d="M418.3,101c0,4.7-3.8,8.5-8.5,8.5s-8.5-3.8-8.5-8.5,3.8-8.5,8.5-8.5,8.5,3.8,8.5,8.5"/>
      <path id="svg_61" class="st37" d="M417.7,99.3l-1.6-.9,1-1.7h-1.9v-1.8l-2.9-1.7-1.6.9-1-1.7-1,1.7-1.6-.9-2.9,1.7v1.8h-1.9s1,1.7,1,1.7l-1.6.9v3.4l1.6.9-1,1.7h1.9v1.8l2.9,1.7,1.6-.9,1,1.7,1-1.7,1.6.9,2.9-1.7v-1.8h1.9s-1-1.7-1-1.7l1.6-.9v-3.4Z"/>
      <path id="svg_63" class="st28" d="M412.8,106.3c-2.9,1.7-6.6.7-8.3-2.2-1.7-2.9-.7-6.6,2.2-8.3,2.9-1.7,6.6-.7,8.3,2.2,1.7,2.9.7,6.6-2.2,8.3"/>
      <path id="svg_64" class="st30" d="M414.7,100.3l.7-1.1-1.2-2.1h-1.3v-1.4l-1.2.7-.7-1.1h-2.4l-.7,1.1-1.2-.7v1.4h-1.3l-1.2,2.1.7,1.1-1.2.7,1.2.7-.7,1.1,1.2,2.1h1.3v1.4l1.2-.7.7,1.1h2.4l.7-1.1,1.2.7v-1.4h1.3l1.2-2.1-.7-1.1,1.2-.7-1.2-.7h0ZM414.1,101c0,2.4-2,4.4-4.4,4.4s-4.4-2-4.4-4.4,2-4.4,4.4-4.4,4.4,2,4.4,4.4"/>
      <path id="svg_65" class="st33" d="M413.9,100.2l-.8-.5.5-.8h-1v-.9l-1.5-.9-.8.5-.5-.8-.5.8-.8-.5-1.5.9v.9h-1l.5.8-.8.5v1.7l.8.5-.5.8h1v.9l1.5.9.8-.5.5.8.5-.8.8.5,1.5-.9v-.9h1l-.5-.8.8-.5v-1.7ZM411.3,103.7c-1.5.9-3.4.4-4.3-1.1-.9-1.5-.3-3.4,1.1-4.3,1.5-.9,3.4-.3,4.3,1.1.9,1.5.3,3.4-1.1,4.3"/>
    </g>
    <g>
      <path class="st31" d="M399.2,83.2h-.8v-3.6h.8v3.6ZM400.9,81.7h-1.8v-.7h1.8v.7ZM400.8,79.6h.8v3.6h-.8v-3.6Z"/>
      <path class="st31" d="M404.2,83.3c-.3,0-.5,0-.8-.1-.2,0-.4-.2-.6-.4-.2-.2-.3-.4-.4-.6,0-.2-.1-.5-.1-.7s0-.5.1-.7c0-.2.2-.4.4-.6.2-.2.4-.3.6-.4.2,0,.5-.1.8-.1s.5,0,.8.1c.2,0,.4.2.6.4.2.2.3.4.4.6,0,.2.1.5.1.7s0,.5-.1.7-.2.4-.4.6-.4.3-.6.4c-.2,0-.5.1-.8.1ZM404.2,82.6c.2,0,.3,0,.4,0,.1,0,.3-.1.4-.2s.2-.2.2-.4,0-.3,0-.5,0-.3,0-.5-.1-.3-.2-.4-.2-.2-.4-.2c-.1,0-.3,0-.4,0s-.3,0-.4,0c-.1,0-.3.1-.4.2-.1.1-.2.2-.2.4,0,.1,0,.3,0,.5s0,.3,0,.5c0,.1.1.3.2.4.1.1.2.2.4.2.1,0,.3,0,.4,0Z"/>
      <path class="st31" d="M408,83.3c-.3,0-.6,0-.8-.1-.3,0-.5-.2-.6-.3l.3-.6c.2.1.3.2.5.3.2,0,.4.1.6.1s.3,0,.4,0c.1,0,.2,0,.2-.1s0-.1,0-.2,0-.2-.1-.2-.2-.1-.3-.1-.3,0-.4-.1c-.1,0-.3,0-.4-.1-.1,0-.3-.1-.4-.2s-.2-.2-.3-.3-.1-.3-.1-.5,0-.4.2-.6c.1-.2.3-.3.5-.4.2-.1.5-.2.8-.2s.4,0,.7,0,.4.1.6.2l-.3.6c-.2,0-.3-.2-.5-.2-.2,0-.3,0-.5,0s-.3,0-.4,0c0,0-.2,0-.2.1,0,0,0,.1,0,.2s0,.2.1.2c0,0,.2.1.3.1s.3,0,.4,0,.3,0,.4.1.3.1.4.2c.1,0,.2.2.3.3s.1.3.1.5,0,.4-.2.6c-.1.2-.3.3-.5.4-.2.1-.5.2-.8.2Z"/>
      <path class="st31" d="M410.8,83.2v-2.9h-1.1v-.7h3.1v.7h-1.1v2.9h-.8Z"/>
      <path class="st31" d="M414.1,82.5h2v.7h-2.8v-3.6h2.7v.7h-1.9v2.3ZM414,81.1h1.7v.7h-1.7v-.7Z"/>
      <path class="st31" d="M416.7,83.2v-3.6h1.6c.4,0,.7,0,1,.2s.5.4.7.6c.2.3.3.6.3.9s0,.7-.3.9c-.2.3-.4.5-.7.6-.3.1-.6.2-1,.2h-1.6ZM417.5,82.5h.8c.2,0,.4,0,.6-.1s.3-.2.4-.4c0-.2.1-.4.1-.6s0-.4-.1-.6c0-.2-.2-.3-.4-.4-.2,0-.4-.1-.6-.1h-.8v2.2Z"/>
      <path class="st31" d="M422.4,83.2v-3.6h1.8c.5,0,.8,0,1,.3s.3.4.3.7,0,.4-.1.5c0,.1-.2.2-.4.3-.2,0-.3.1-.6.1v-.2c.3,0,.5,0,.7.1.2,0,.3.2.4.3s.1.3.1.5c0,.3-.1.5-.4.7s-.6.3-1.1.3h-1.9ZM423.2,82.6h1c.2,0,.4,0,.5-.1.1,0,.2-.2.2-.3s0-.3-.2-.3c-.1,0-.3-.1-.5-.1h-1v-.6h.9c.2,0,.4,0,.5-.1.1,0,.2-.2.2-.3s0-.2-.2-.3c-.1,0-.3-.1-.5-.1h-.8v2.3Z"/>
      <path class="st31" d="M427.2,83.2v-1.5l.2.5-1.6-2.6h.9l1.2,2h-.5l1.2-2h.8l-1.6,2.6.2-.5v1.5h-.8Z"/>
      <path class="st31" d="M430,81.4c-.1,0-.3,0-.4-.1,0,0-.1-.2-.1-.4s0-.3.1-.4c0,0,.2-.1.4-.1s.3,0,.4.1c0,0,.1.2.1.4s0,.3-.1.4-.2.1-.4.1ZM430,83.3c-.1,0-.3,0-.4-.1,0,0-.1-.2-.1-.4s0-.3.1-.4c0,0,.2-.1.4-.1s.3,0,.4.1.1.2.1.4,0,.3-.1.4c0,0-.2.1-.4.1Z"/>
    </g>
  </g>
  <g>
    <g id="Layer_1-2">
      <g>
        <g>
          <path class="st11" d="M522.8,98.2c1.1-.2.7-1.6,1.4-2.3,1-1,1.9.3,1.9,2.6,0,1.3,3.5,1.6,3.8,2.1.9,1.5-3,2.4-1.6,4.5.7,1,.8,2.2,0,2.9-.2.2-1.1,1.1-2.2.1-.9-.9-.2-3.1-1.6-3.4-1.5-.3-2.7.8-3.3,1.3-.7.4-1,.6-1.1.2,0-.4.8-1.6,1.1-2.3.4-.9,1.3-2.3-2.1-3.2-.3,0-1-.3-1.4-.5-.9-.4-1.5-1.6-1.1-2.5.5-1,1.3-2.2,2.4-2.1,1.4.2,2.1,2.9,3.7,2.6h0Z"/>
          <path class="st25" d="M524.3,95.1c.2-.1.3-.2.5-.2.4,0,.7.3.9.7.3.6.5,1.3.6,2.2,0,.1,0,.3,0,.4,0,0,0,.2,0,.2,0,.1.1.2.3.3s.2.2.4.2c.7.4,1.7.6,2.5.8.1,0,.2,0,.3,0,.1,0,.3.1.4.2.2.1.3.2.3.3.1.3,0,.6,0,.8-.4.7-1.5,1.4-2,2.3,0,.2-.2.3-.2.5,0,0,0,.2,0,.2,0,.3.1.5.3.8,0,.2.2.3.2.5.5,1,.5,1.9,0,2.7-.1.1-.4.5-.8.6-.2,0-.4,0-.6,0-.2,0-.5-.2-.8-.5-.9-.8-.4-3-1.8-3.3-.6-.2-1.1,0-1.6,0-.7.2-1.3.7-1.8,1-.5.3-1.3.8-1.5.7,0,0,0,0-.1,0,0,0,0-.1,0-.2,0-.5.8-1.7,1.1-2.5,0,0,0-.2.1-.2.2-.4.4-.9.3-1.4,0,0,0-.2,0-.3,0-.2-.2-.3-.3-.5-.4-.4-1.1-.7-2.2-1.1-.4-.1-1-.4-1.5-.6-.2-.1-.5-.3-.6-.5-.1-.2-.2-.3-.3-.5s0-.4,0-.6c0-.3,0-.5.2-.8.6-.9,1.4-1.9,2.5-1.9,0,0,0,0,.1,0,.3,0,.6.1.8.3.6.4,1.1,1.1,1.8,1.4.3.2.6.2,1,0,.7-.2.8-1,1-1.7,0-.3.2-.5.4-.7h0Z"/>
          <path class="st9" d="M524.3,94.5c.2-.1.4-.1.5,0,.4.1.7.4.9.9.4.7.6,1.4.8,2.4,0,.1,0,.3,0,.4,0,0,0,.2,0,.3,0,.1.2.2.3.3s.3.2.4.2c.8.3,1.9.5,2.8.7.1,0,.2,0,.3,0,.2,0,.3.1.4.2.2.1.2.3.2.4,0,.3,0,.6-.2.8-.5.8-1.7,1.5-2.2,2.3-.1.2-.2.3-.2.6,0,0,0,.2,0,.2,0,.3.2.6.3.9,0,.2.2.3.3.5.5,1,.5,2,.1,2.9,0,.2-.3.5-.7.6-.2,0-.4,0-.6,0s-.5-.2-.8-.5c-.9-.8-.6-2.8-2-3.2-.6-.2-1.2-.2-1.6,0-.7.2-1.3.6-1.8.8-.6.3-1.9,1.1-2,1.1,0,0-.1,0-.2,0-.1,0-.1-.2-.1-.3,0-.6.8-1.8,1.1-2.6,0,0,0-.2.1-.3.2-.5.4-1,.4-1.5,0,0,0-.2,0-.3,0-.2-.1-.3-.3-.5-.5-.4-1.3-.8-2.3-1.2-.4-.2-1.1-.5-1.5-.7-.2-.1-.5-.3-.6-.6-.1-.2-.2-.4-.2-.5s0-.3,0-.5c0-.2.1-.5.3-.7.7-.8,1.6-1.7,2.7-1.7,0,0,0,0,.1,0,.3,0,.6.1.8.2.6.2,1.1.7,1.7.9.3,0,.6,0,1,0,.7-.3.8-1.1,1-1.8,0-.3.2-.6.5-.7h0Z"/>
          <path class="st5" d="M524.4,93.8c.2-.1.4,0,.6,0,.4.2.7.6.9,1,.4.8.6,1.5.9,2.7,0,.2,0,.3,0,.5,0,.1,0,.2,0,.3,0,.2.2.2.4.3s.3.1.5.2c.9.3,2.1.4,3.1.6.1,0,.2,0,.3,0,.2,0,.3.1.4.3.2.2.2.3.2.4,0,.3-.1.6-.3.8-.6.8-1.8,1.5-2.5,2.4-.1.2-.2.4-.2.6,0,0,0,.2,0,.3,0,.3.2.6.4.9,0,.2.2.3.3.5.5,1.1.6,2.1.3,3.1,0,.2-.3.5-.7.6-.2,0-.4,0-.6,0-.2,0-.5-.2-.8-.5-.9-.8-.9-2.6-2.2-3.1-.6-.2-1.2-.2-1.6-.2-.7.1-1.3.4-1.8.7-.6.4-2.4,1.5-2.5,1.4,0,0-.1,0-.2,0-.1,0-.2-.2-.2-.3,0-.7.8-1.9,1.2-2.8,0,0,0-.2.1-.3.2-.5.4-1,.4-1.6,0,0,0-.2,0-.3,0-.2-.1-.4-.3-.5-.6-.5-1.4-.9-2.4-1.3-.5-.2-1.1-.5-1.6-.8-.3-.2-.5-.3-.6-.6,0-.2-.1-.4,0-.5s0-.3.1-.5c0-.2.2-.4.4-.6.8-.7,1.8-1.5,2.9-1.5,0,0,0,0,.1,0,.3,0,.6,0,.8,0,.6,0,1.1.3,1.7.4.3,0,.6,0,.9-.2.7-.4.8-1.2,1-1.9.1-.3.2-.6.5-.7h0Z"/>
          <path class="st7" d="M524.4,93.1c.3,0,.4,0,.6.2.4.4.7.8.9,1.2.5.9.7,1.7,1,2.9,0,.2,0,.3.1.5,0,.1,0,.2.1.3,0,.2.2.2.4.3s.4.1.6.2c1,.2,2.3.4,3.4.5.1,0,.3,0,.4,0,.2,0,.3.2.4.3.1.2.1.4.1.5,0,.3-.2.6-.4.8-.7.8-1.9,1.6-2.7,2.5-.2.2-.3.4-.2.6,0,0,0,.2,0,.3,0,.3.2.7.4,1,0,.2.2.4.3.6.5,1.1.6,2.2.5,3.2,0,.2-.3.6-.7.7-.2,0-.4,0-.6,0-.1,0-.4-.2-.8-.5-.9-.7-1.1-2.5-2.4-3-.6-.2-1.2-.3-1.6-.3-.8,0-1.3.3-1.9.6-.6.4-2.9,1.8-3,1.8,0,0-.2,0-.3,0-.2,0-.2-.2-.2-.4.1-.8.8-2,1.2-3,0,0,0-.2.1-.3.2-.5.4-1.1.4-1.7,0-.1,0-.2,0-.3,0-.2-.1-.4-.3-.6-.6-.5-1.5-1-2.5-1.4-.5-.2-1.2-.6-1.6-.9-.3-.2-.5-.3-.6-.6,0-.2,0-.4,0-.6s.1-.3.2-.4c.1-.2.3-.4.5-.5.9-.6,2-1.3,3.1-1.3h.1c.3,0,.6,0,.9,0,.6-.2,1,0,1.6-.2.3,0,.6-.2.9-.4.6-.4.8-1.2,1-2,.1-.3.3-.6.5-.7h0Z"/>
          <path class="st6" d="M524.5,92.4c.3,0,.5.1.6.3.4.5.7.9.9,1.4.5,1,.7,1.8,1.1,3.1,0,.2,0,.4.1.5,0,.1,0,.2.1.3.1.2.3.3.5.3s.4,0,.6.1c1.1.2,2.4.3,3.6.4.1,0,.3,0,.4,0,.2,0,.4.2.5.3.1.2,0,.4,0,.6-.1.3-.3.6-.5.8-.8.8-2,1.6-2.9,2.6-.2.2-.3.4-.2.6,0,0,0,.2,0,.3,0,.3.2.7.4,1.1,0,.2.2.4.3.6.5,1.2.7,2.4.7,3.4,0,.2-.2.6-.6.7-.2,0-.4,0-.6,0-.1,0-.4-.2-.8-.5-.9-.7-1.3-2.3-2.6-2.8-.7-.3-1.2-.4-1.6-.4-.8,0-1.3.1-1.9.5-.7.4-3.5,2.2-3.6,2.1-.1,0-.2,0-.3,0-.2,0-.3-.3-.2-.5.2-.9.8-2.1,1.2-3.1,0,0,0-.2.1-.3.2-.6.4-1.2.5-1.8,0-.1,0-.2,0-.3,0-.2-.1-.4-.3-.6-.7-.5-1.6-1-2.6-1.6-.5-.3-1.2-.7-1.7-1-.3-.2-.5-.4-.6-.7,0-.2,0-.4,0-.6s.2-.2.3-.4c.2-.1.4-.3.7-.4.9-.5,2.1-1,3.3-1h.1c.3,0,.6,0,.9-.1.6-.3,1-.4,1.6-.7.3-.1.5-.3.8-.6.6-.5.8-1.3,1.1-2.1.1-.3.3-.6.6-.7h0Z"/>
          <path class="st10" d="M524.5,91.7c.3,0,.5.2.6.4.4.6.7,1.1.9,1.6.5,1.2.8,1.9,1.2,3.3,0,.2.1.4.2.6,0,.1,0,.2.1.4.1.2.3.3.5.3s.4,0,.7.1c1.2.2,2.6.3,3.9.3.1,0,.3,0,.4,0,.2,0,.4.2.5.4.1.2,0,.5,0,.6-.2.3-.4.6-.7.8-.9.9-2.1,1.7-3.1,2.6-.2.2-.3.4-.3.7,0,0,0,.2,0,.3.1.4.2.7.4,1.1,0,.2.2.4.3.6.5,1.2.8,2.5.8,3.6,0,.3-.2.6-.6.7-.2,0-.4,0-.6-.1,0,0-.4-.2-.8-.5-.9-.7-1.6-2.2-2.9-2.7-.7-.3-1.2-.5-1.6-.5-.8-.1-1.3,0-1.9.4-.7.4-4,2.5-4.1,2.5-.1,0-.2.1-.4,0-.3,0-.3-.3-.3-.5.2-1,.8-2.2,1.2-3.3,0-.1,0-.2.1-.3.2-.6.4-1.2.5-1.8,0-.1,0-.2,0-.3,0-.3-.1-.5-.3-.6-.8-.6-1.7-1.1-2.7-1.7-.6-.3-1.3-.7-1.8-1.1-.3-.2-.5-.4-.6-.7,0-.2,0-.4.2-.6s.3-.2.4-.3c.2-.1.5-.2.8-.3,1-.4,2.3-.8,3.5-.8h.2c.3,0,.7,0,.9-.2.6-.5,1-.7,1.6-1.2.2-.2.5-.4.8-.8.5-.6.8-1.4,1.1-2.2.1-.3.3-.7.6-.7h0Z"/>
          <path class="st12" d="M524.6,91.1c.4,0,.5.3.7.5.4.7.7,1.3.9,1.7.6,1.3.9,2.1,1.4,3.5,0,.2.1.4.2.6,0,.1,0,.3.2.4.1.2.3.3.6.3.2,0,.5,0,.7,0,1.3.1,2.8.2,4.2.3.2,0,.3,0,.5,0,.2,0,.4.2.5.4.1.3,0,.5-.1.7-.2.3-.5.6-.8.9-1,.9-2.3,1.8-3.3,2.7-.2.2-.3.4-.3.7,0,.1,0,.2,0,.3.1.4.3.8.4,1.2,0,.2.2.4.3.7.5,1.3.8,2.6,1,3.8,0,.3-.1.7-.5.8-.2,0-.4,0-.6-.1,0,0-.4-.2-.8-.5-.9-.7-1.8-2-3.1-2.6-.7-.3-1.2-.5-1.5-.6-.8-.2-1.3-.2-2,.3-.7.4-4.5,2.8-4.6,2.8-.1,0-.3.1-.5,0-.3,0-.4-.3-.3-.6.3-1.1.8-2.3,1.2-3.5,0-.1,0-.2.1-.3.2-.6.4-1.3.6-1.9,0-.1,0-.2,0-.3,0-.3,0-.5-.3-.6-.8-.6-1.8-1.2-2.8-1.8-.6-.4-1.3-.8-1.8-1.2-.3-.2-.5-.4-.6-.8,0-.2,0-.5.3-.6s.3-.2.5-.3c.2,0,.5-.2.9-.3,1.1-.3,2.5-.6,3.7-.6h.2c.3,0,.7,0,.9-.3.5-.7.9-1.1,1.5-1.7.2-.3.5-.6.7-.9.5-.6.7-1.5,1.1-2.3.1-.3.3-.7.7-.7h0Z"/>
          <path class="st23" d="M524.6,90.4c.4,0,.6.3.7.6.4.9.7,1.5.9,1.9.6,1.4.9,2.2,1.5,3.7,0,.2.1.4.2.6,0,.1.1.3.2.4.1.2.4.3.6.3.3,0,.5,0,.8,0,1.5,0,3,.1,4.5.2.2,0,.3,0,.5,0,.2,0,.4.2.5.4.1.3,0,.6-.2.8-.3.3-.6.6-.9.9-1.1.9-2.4,1.8-3.5,2.8-.2.2-.4.4-.3.7,0,.1,0,.2.1.3.1.4.3.8.4,1.2,0,.2.2.5.3.7.5,1.3.9,2.7,1.2,4,0,.3-.1.7-.5.8-.2,0-.4,0-.6-.1,0,0-.4-.2-.8-.5-.9-.6-2.1-1.8-3.3-2.5-.7-.4-1.3-.6-1.5-.7-.8-.3-1.3-.3-2,.1-.8.4-5.1,3.2-5.1,3.2-.2,0-.3.2-.5.1-.3,0-.4-.4-.4-.7.3-1.2.8-2.4,1.2-3.7,0-.1,0-.2.1-.4.2-.7.4-1.3.6-2,0-.1,0-.2,0-.4,0-.3,0-.5-.3-.7-.9-.6-1.9-1.3-2.9-1.9-.7-.4-1.4-.9-1.9-1.2-.3-.2-.5-.4-.5-.8,0-.3.1-.5.3-.6s.4-.2.6-.2c.3,0,.6-.1,1-.2,1.2-.2,2.7-.4,3.9-.4,0,0,0,0,.2,0,.3,0,.7,0,.9-.4.5-.8.9-1.4,1.5-2.3.2-.3.5-.7.7-1.1.4-.7.7-1.6,1.1-2.4.1-.3.3-.7.7-.7h0Z"/>
          <path class="st24" d="M524.7,89.7c.4,0,.6.4.7.7.5,1,.7,1.6.9,2.1.7,1.5,1,2.3,1.6,3.9,0,.2.2.5.3.7,0,.1.1.3.2.4.2.3.4.3.7.3.3,0,.6,0,.8,0,1.6,0,3.2,0,4.7,0,.2,0,.4,0,.5,0,.2,0,.4.3.5.5.1.3,0,.6-.3.8-.3.3-.7.6-1,.9-1.2.9-2.5,1.9-3.7,2.8-.2.2-.4.4-.3.7,0,.1,0,.2.1.3.1.4.3.9.5,1.3,0,.2.2.5.3.7.5,1.4,1,2.8,1.4,4.1,0,.3,0,.7-.5.8-.2,0-.4,0-.6-.2,0,0-.4-.2-.9-.5-1-.6-2.3-1.7-3.5-2.4-.7-.4-1.3-.7-1.5-.8-.8-.4-1.3-.4-2,0-.8.5-5.6,3.5-5.6,3.5-.2.1-.3.2-.6.1-.4,0-.5-.4-.4-.7.4-1.2.8-2.6,1.2-3.8,0-.1,0-.2.1-.4.2-.7.4-1.4.6-2.1,0-.1,0-.3.1-.4,0-.3,0-.5-.3-.7-1-.7-2.1-1.4-3-2-.7-.5-1.4-1-1.9-1.3-.3-.2-.5-.4-.5-.8,0-.3.2-.5.4-.6s.5-.1.7-.2c.3,0,.7,0,1.1,0,1.3,0,2.9-.2,4.1-.2,0,0,0,0,.2,0,.3,0,.7-.1.9-.5.5-1,.9-1.8,1.4-2.8.2-.4.4-.8.6-1.3.4-.8.7-1.6,1.1-2.5.1-.3.3-.7.7-.7h0Z"/>
          <path class="st8" d="M520.9,97c.5-1.2.9-2.1,1.4-3.3.6-1.3,1.1-2.7,1.7-4,.1-.3.4-.7.8-.7.4,0,.6.5.8.8.5,1.1.8,1.8.9,2.2.7,1.7,1,2.4,1.7,4.1.2.4.3.8.5,1.2.2.3.4.3.7.3h5.9c.2,0,.4,0,.6,0,.2,0,.5.3.5.5,0,.3,0,.7-.3.9-.3.3-.8.6-1.2.9-1.3,1-2.6,1.9-3.9,2.9-.3.2-.4.4-.3.8,0,.1,0,.2.1.3.3.7.5,1.4.8,2.1.5,1.4,1.1,2.9,1.6,4.3.1.4,0,.8-.4.8-.2,0-.4,0-.6-.2,0,0-5.3-3.2-6.1-3.7s-1.3-.6-2.1-.1-6.1,3.9-6.1,3.9c-.2.1-.4.2-.6.2-.4,0-.5-.5-.4-.8.4-1.5.9-2.9,1.4-4.4.2-.7.5-1.5.7-2.2,0-.1,0-.3.1-.4,0-.3,0-.6-.3-.7-1.9-1.2-3.9-2.6-5.1-3.6-.3-.2-.5-.4-.5-.9,0-.3.2-.5.5-.6s.6-.1.8-.1c1.7,0,3.9,0,5.5,0,0,0,.8,0,1.1-.6h0Z"/>
        </g>
        <g>
          <path class="st3" d="M521,96.9c.6-1.4.8-2,1.3-3.1.6-1.3,1.1-2.7,1.7-4,.1-.3.4-.7.8-.7.4,0,.6.5.8.8.2.5.4.9.6,1.4.7,1.7,1.4,3.3,2.1,5,.2.4.3.8.5,1.2.2.3.4.3.7.3h5.9c.2,0,.4,0,.6,0,.2,0,.5.3.5.5,0,.3,0,.7-.3.9-.3.3-.8.6-1.2.9-1.3,1-2.6,1.9-3.9,2.9-.3.2-.4.4-.3.8,0,.1,0,.2.1.3l.8,2.1c.5,1.4,1.1,2.9,1.6,4.3.1.4,0,.8-.4.8-.2,0-.4,0-.6-.2-.5-.3-1.1-.6-1.6-.9-1.5-1-2.3-1.4-3.9-2.4-.3-.2-.9-.5-1.2-.7-.5-.3-.7-.3-1.3,0-.9.5-2.2,1.4-4.1,2.6-.6.4-1.8,1.1-2.3,1.4-.2.1-.4.2-.6.2-.4,0-.5-.5-.4-.8.4-1.5.9-2.9,1.4-4.4.2-.7.5-1.5.7-2.2,0-.1,0-.3.1-.4,0-.3,0-.6-.3-.7-1.3-1-2.8-1.9-4.1-2.9-.4-.3-.8-.5-1.2-.8-.3-.2-.4-.5-.4-.8,0-.3.3-.4.5-.5.3-.1,1.3-.1,1.6-.1h4.8c.7,0,1-.3,1.2-.8h0Z"/>
          <path class="st16" d="M524.7,89.5c.4,0,.6.4.8.7.1.3.3.5.4.8,0,.1.1.2.2.3.3.6.7,1.2,1,1.9.5.9.9,1.9,1.3,2.9.2.4.3.8.5,1.2.1.3.4.3.6.3.1,0,.2,0,.3,0,.1,0,.3,0,.4,0,.3,0,.7,0,1,0,.5,0,1,.1,1.5.1.7,0,1.4,0,2.1,0,.2,0,.4,0,.5,0,0,0,0,0,.1,0,.2,0,.4.3.4.5.1.3,0,.7-.3.9-.3.3-.7.6-1,.9-.9.8-1.8,1.5-2.8,2.2-.3.2-.6.4-.9.7-.2.2-.4.4-.3.7,0,.1,0,.2,0,.3.1.5.3.9.4,1.4,0,.2.1.4.2.6.3.8.6,1.7.9,2.5.2.6.4,1.1.5,1.7.1.3,0,.7-.4.8-.2,0-.4,0-.6-.2-.5-.3-1-.5-1.5-.8-1.1-.7-1.9-1-2.9-1.6-.3-.2-.6-.4-.9-.6-.3-.2-.8-.5-1.1-.7-.4-.3-.7-.3-1.1,0-.5.2-1.1.5-2,1-.6.3-1.2.7-1.9,1.1,0,0-.2.1-.3.2-.6.4-1.6.9-2.1,1.3-.1,0-.2.2-.4.2,0,0-.2,0-.3,0-.4,0-.6-.4-.5-.8.1-.6.3-1.3.5-1.9.2-.8.5-1.6.9-2.4.2-.4.3-.9.5-1.3,0-.3.2-.5.3-.8,0-.1.1-.3.1-.4.1-.3,0-.5-.2-.7-1.1-1-2.6-1.9-4-2.8-.4-.3-.8-.5-1.2-.8-.3-.2-.4-.4-.4-.7,0-.3.2-.4.4-.5.2-.1,1-.2,1.3-.2,1.4-.3,3.2-.4,4.6-.4.7,0,1.1-.3,1.3-.7.1-.2.2-.3.3-.5.5-.8.8-1.3,1.2-2.1.4-.7.8-1.4,1.2-2.3.2-.5.4-1,.6-1.5.1-.3.3-.7.7-.8h0Z"/>
          <path class="st15" d="M524.7,89.9c.4,0,.6.3.7.5.1.2.3.4.5.7,0,0,.1.2.2.3.4.5.7,1.1,1.1,1.7.5.9,1,1.8,1.4,2.8.1.4.3.8.4,1.2.1.3.3.3.5.4,0,0,.2,0,.3,0,.1,0,.2,0,.4,0,.3,0,.6.1.9.2.4,0,.9.2,1.4.3.7,0,1.4,0,2.1.1.2,0,.4,0,.5,0,0,0,0,0,.1,0,.2,0,.4.3.4.5.1.3,0,.7-.2.9-.3.3-.6.6-.9.9-.8.8-1.6,1.5-2.6,2.2-.3.2-.6.4-.9.6-.2.2-.4.4-.4.7,0,.1,0,.2,0,.3,0,.5.2.9.3,1.3,0,.2,0,.4.1.6.2.8.5,1.6.8,2.4.2.5.3,1.1.5,1.6,0,.3,0,.7-.5.8-.2,0-.4,0-.5-.1-.5-.2-1-.4-1.5-.6-1.1-.6-1.9-.9-2.8-1.4-.3-.2-.6-.3-.9-.5s-.8-.5-1.1-.7c-.4-.3-.6-.3-1-.2s-.8,0-1.8.5c-.6.2-1.3.6-2,1-.1,0-.2.1-.3.2-.6.3-1.6.9-2.2,1.3-.1,0-.3.1-.4.2,0,0-.2,0-.3,0-.4,0-.7-.4-.6-.7,0-.6.2-1.2.4-1.9.2-.8.6-1.6.9-2.3.2-.4.4-.8.6-1.2.1-.2.2-.5.3-.7,0-.1.1-.2.2-.4.1-.3,0-.5-.2-.7-1-1-2.3-1.9-3.9-2.8-.4-.2-.8-.5-1.2-.7-.3-.2-.5-.4-.5-.7,0-.2.1-.4.2-.5.1-.1.8-.2,1-.4,1.1-.4,2.9-.8,4.3-.9.7,0,1.1-.3,1.4-.6.1-.1.2-.3.3-.4.5-.6.8-1,1.4-1.6.5-.6,1-1.2,1.5-2,.3-.5.5-1,.6-1.6.1-.3.3-.8.7-.8h0Z"/>
          <path class="st19" d="M524.7,90.4c.4-.1.6.1.7.3.2.2.3.3.5.5,0,0,.2.2.2.2.4.4.8.9,1.2,1.5.6.8,1.1,1.7,1.4,2.7.1.4.2.8.4,1.2.1.3.3.4.5.4,0,0,.2,0,.2.1.1,0,.2,0,.3.1.2,0,.4.2.7.3.3.1.7.3,1.2.4.7.1,1.4.1,2.1.2.2,0,.4,0,.5,0,0,0,0,0,.1,0,.2,0,.4.3.5.4.1.3,0,.6-.1.9-.2.3-.5.6-.8.9-.7.8-1.4,1.5-2.4,2.2-.3.2-.5.4-.8.6-.2.2-.4.4-.4.7,0,.1,0,.2,0,.3,0,.4,0,.9.1,1.2,0,.2,0,.4,0,.6.1.8.5,1.6.7,2.3.2.5.3,1.1.4,1.6,0,.3,0,.6-.5.7-.2,0-.4,0-.5,0-.5-.2-1-.3-1.4-.5-1-.4-1.8-.7-2.7-1.2-.3-.1-.6-.3-.9-.5s-.7-.5-1-.7c-.3-.3-.5-.3-.9-.3-.4,0-.5-.3-1.5,0-.6.2-1.3.5-2.1.9-.1,0-.2.1-.3.2-.5.3-1.6.9-2.3,1.2-.1,0-.3.1-.4.2,0,0-.2,0-.3,0-.4,0-.7-.3-.7-.7,0-.6,0-1.2.2-1.8.2-.8.6-1.5,1-2.2.2-.4.5-.7.7-1.1.1-.2.3-.4.4-.7,0-.1.1-.2.2-.3.1-.3,0-.5,0-.7-.8-1-2.1-1.9-3.8-2.8-.4-.2-.8-.4-1.2-.6-.3-.1-.5-.3-.6-.6,0-.2,0-.4,0-.5,0-.1.6-.3.7-.5.9-.7,2.7-1.2,4.1-1.3.7,0,1.1-.2,1.4-.5.1-.1.3-.2.4-.3.6-.4.9-.7,1.6-1.1.5-.4,1.1-.9,1.7-1.8.3-.5.5-1.1.7-1.6.1-.3.3-.8.7-.9h0Z"/>
          <path class="st18" d="M524.7,90.8c.3-.1.5,0,.7.1.2.1.4.2.6.4,0,0,.2.1.3.2.4.3.9.8,1.3,1.3.6.7,1.1,1.7,1.5,2.6.1.4.2.8.4,1.2,0,.3.2.4.4.5,0,0,.1,0,.2.1,0,0,.1.1.2.2.2.1.3.2.5.4.3.2.6.4,1.1.6.6.2,1.4.2,2.1.2.2,0,.4,0,.5,0,0,0,0,0,.1,0,.2,0,.4.2.5.4.1.3.1.6,0,.9-.2.3-.4.6-.7.9-.6.8-1.3,1.6-2.2,2.3-.2.2-.5.4-.8.6-.2.2-.4.4-.4.6v.3c0,.4,0,.8,0,1.2,0,.2,0,.4,0,.6,0,.8.5,1.5.7,2.3.1.5.2,1,.3,1.5,0,.3-.1.6-.5.7-.2,0-.3,0-.5,0-.4-.1-.9-.2-1.4-.3-1-.3-1.8-.5-2.6-1-.3-.1-.6-.3-.8-.5s-.7-.5-1-.7c-.3-.3-.5-.4-.8-.3-.3-.2-.3-.7-1.3-.5-.6.1-1.4.4-2.2.8-.1,0-.2.1-.4.2-.5.3-1.6.9-2.4,1.2-.1,0-.3.1-.4.2,0,0-.2,0-.3,0-.4,0-.8-.3-.8-.6,0-.5,0-1.2.1-1.8.2-.8.6-1.5,1.1-2.1.3-.3.5-.7.7-1,.1-.2.3-.4.4-.6,0-.1.1-.2.2-.3.1-.3.1-.5,0-.7-.6-1-1.9-1.9-3.7-2.7-.4-.2-.8-.4-1.2-.6-.3-.1-.5-.3-.7-.5-.1-.2,0-.3,0-.5s.4-.4.4-.7c.6-.9,2.4-1.6,3.9-1.8.7,0,1.1-.2,1.5-.4.1,0,.3-.1.4-.2.6-.3,1-.3,1.7-.7.6-.3,1.3-.7,1.9-1.6.3-.5.5-1.1.7-1.6.1-.4.3-.8.6-1h0Z"/>
          <path class="st17" d="M524.7,91.3c.3-.2.5,0,.7,0,.2,0,.4.1.6.2,0,0,.2,0,.3.1.5.3,1,.6,1.5,1.1.7.7,1.2,1.6,1.6,2.6.1.4.2.8.3,1.2,0,.3.2.4.3.5,0,0,0,.1.1.2,0,0,0,.1.1.2,0,.2.2.3.3.5.2.2.5.5,1,.7.6.2,1.3.2,2,.3.2,0,.4,0,.5.1,0,0,0,0,.1,0,.2,0,.4.2.5.4.2.3.2.6,0,.9s-.3.6-.5.9c-.4.8-1.1,1.6-2,2.3-.2.2-.5.4-.8.6-.2.2-.4.3-.4.6,0,0,0,.2,0,.3,0,.4-.1.8-.1,1.1s0,.4,0,.5c0,.8.4,1.5.6,2.2.1.5.2,1,.2,1.5,0,.2-.1.5-.5.7-.2,0-.3,0-.5,0-.4,0-.9,0-1.3-.2-1-.2-1.7-.4-2.6-.8-.3-.1-.5-.2-.8-.4-.3-.2-.7-.5-.9-.7-.3-.3-.4-.4-.6-.4-.2-.3,0-1-1-1-.6,0-1.5.4-2.3.7-.1,0-.2.1-.4.2-.4.2-1.7.9-2.4,1.2-.2,0-.3.1-.4.2,0,0-.2,0-.3,0-.4,0-.8-.3-.9-.6-.2-.5-.1-1.2,0-1.8.2-.8.6-1.5,1.1-2,.3-.3.6-.6.8-.9.2-.2.3-.4.5-.6,0-.1.1-.2.2-.3.2-.3.2-.5,0-.7-.4-1-1.6-1.9-3.6-2.7-.4-.2-.8-.3-1.2-.5-.3-.1-.6-.2-.8-.5-.1-.2-.2-.3-.2-.4,0-.2.2-.4.1-.8.3-1.1,2.1-2,3.7-2.2.7,0,1.2-.2,1.6-.3.2,0,.3,0,.4,0,.5-.2,1.2,0,1.9-.2s1.4-.4,2.1-1.3c.4-.5.5-1.1.7-1.7.1-.4.3-.8.6-1h0Z"/>
          <path class="st20" d="M524.7,91.7c.3-.2.5-.2.7-.2.2,0,.4,0,.7,0,.1,0,.2,0,.3,0,.5.2,1.1.5,1.6.9.7.6,1.3,1.5,1.6,2.5.1.4.2.8.3,1.2,0,.3.1.4.2.6,0,0,0,.1,0,.2,0,0,0,.2,0,.3,0,.2,0,.4.1.6.1.3.4.6.8.9.6.3,1.3.3,2,.4.2,0,.4,0,.5.1,0,0,0,0,.1,0,.2,0,.4.2.5.4.2.3.2.6.1.9,0,.2-.2.6-.4.9-.3.8-.9,1.6-1.8,2.3-.2.1-.5.4-.7.6-.2.2-.4.3-.4.6,0,0,0,.2,0,.2-.1.4-.2.8-.3,1,0,.2,0,.3,0,.5,0,.8.4,1.4.5,2.1.1.5.1,1,.1,1.4,0,.2-.2.5-.5.6-.2,0-.3,0-.4,0-.4,0-.8,0-1.3,0-.9-.1-1.7-.2-2.5-.5-.3-.1-.5-.2-.8-.4-.3-.2-.6-.4-.8-.7s-.3-.4-.5-.5c-.1-.4.3-1.4-.7-1.4-.7,0-1.5.3-2.4.7-.1,0-.3.1-.4.2-.4.2-1.7.9-2.5,1.2-.2,0-.3.1-.5.1,0,0-.2,0-.3,0-.4,0-.9-.2-1-.5-.2-.5-.2-1.1-.1-1.7.1-.8.7-1.4,1.2-1.9.3-.3.6-.6.9-.8.2-.2.3-.3.5-.5,0,0,.2-.2.2-.3.2-.2.2-.5.2-.7-.2-.9-1.4-1.9-3.5-2.7-.4-.1-.8-.3-1.2-.4-.3,0-.6-.2-.8-.4-.2-.1-.2-.3-.3-.4-.2-.2-.1-.5-.1-1,0-1.3,1.8-2.5,3.5-2.7.7,0,1.2-.2,1.6-.2.2,0,.3,0,.5,0,.6,0,1.3.2,2,.3s1.6-.2,2.3-1.1c.4-.5.5-1.1.7-1.7.1-.4.2-.8.5-1.1h0Z"/>
          <path class="st22" d="M524.7,92.1c.2-.3.5-.3.7-.4.2,0,.4,0,.7,0,.1,0,.2,0,.3,0,.6,0,1.2.3,1.7.7.8.5,1.4,1.4,1.7,2.4.1.4.2.8.3,1.2,0,.3,0,.4.1.6,0,0,0,.2,0,.2,0,.1,0,.2,0,.3,0,.2,0,.4,0,.7,0,.3.3.7.7,1,.6.3,1.3.3,2,.4.2,0,.4,0,.5.1,0,0,0,0,.1,0,.2,0,.4.2.5.4.2.3.3.6.2.9,0,.2-.1.5-.3.9-.2.7-.7,1.6-1.6,2.3-.2.1-.4.3-.7.6-.2.1-.3.3-.4.5,0,0,0,.2,0,.2-.2.4-.3.7-.4,1,0,.2,0,.3-.1.5-.1.8.3,1.4.5,2,0,.5,0,1,0,1.4,0,.2-.2.4-.5.6-.1,0-.3,0-.4,0-.4,0-.8.1-1.2,0-.9,0-1.7,0-2.4-.3-.3,0-.5-.2-.8-.3-.3-.2-.6-.4-.8-.7-.2-.3-.3-.5-.4-.6,0-.5.5-1.8-.5-1.9-.7,0-1.6.2-2.5.6-.1,0-.3.1-.4.2-.4.2-1.7.9-2.6,1.2-.2,0-.3.1-.5.1,0,0-.2,0-.3,0-.5,0-.9-.2-1.1-.5-.3-.4-.3-1.1-.2-1.7.1-.8.7-1.4,1.3-1.9.3-.3.7-.5,1-.7.2-.1.4-.3.5-.5,0,0,.2-.2.2-.3.2-.2.2-.4.2-.6,0-.9-1.1-1.9-3.3-2.6-.4-.1-.8-.3-1.2-.4-.3,0-.6-.2-.9-.3-.2-.1-.3-.3-.5-.4-.2-.2-.3-.5-.4-1.1-.3-1.5,1.6-2.9,3.3-3.1.7,0,1.2-.1,1.7,0,.2,0,.3,0,.5.1.6.2,1.4.6,2.2.8s1.7,0,2.5-.9c.4-.5.6-1.1.7-1.7,0-.4.2-.8.5-1.1h0Z"/>
          <path class="st14" d="M524.7,92.6c.2-.3.4-.4.7-.6.2-.1.5-.2.7-.2.1,0,.2,0,.3,0,.6,0,1.3.2,1.8.5.8.5,1.5,1.4,1.8,2.4.1.4.2.8.2,1.2,0,.3,0,.5,0,.7s0,.2,0,.3c0,.1,0,.2,0,.3,0,.3-.2.5-.2.8,0,.4.2.9.6,1.1.6.4,1.3.4,2,.5.2,0,.3,0,.5.1,0,0,0,0,.1,0,.2,0,.4.2.5.4.2.2.3.5.3.8,0,.2,0,.5-.1,1-.2.7-.5,1.6-1.4,2.3-.2.1-.4.3-.7.5-.2.1-.3.3-.4.5,0,0,0,.1-.1.2-.2.4-.4.7-.5.9,0,.2-.1.3-.2.5-.2.8.3,1.4.4,2,0,.4,0,.9,0,1.3,0,.2-.2.4-.5.5-.1,0-.3.1-.4.1-.4,0-.8.2-1.2.2-.8,0-1.6.1-2.4-.1-.3,0-.5-.2-.7-.3-.3-.2-.5-.4-.7-.7-.1-.3-.2-.5-.2-.7,0-.7.8-2.2-.2-2.4-.7-.1-1.7.1-2.6.5-.1,0-.3.1-.4.2-.3.2-1.7.9-2.7,1.2-.2,0-.3.1-.5.1,0,0-.2,0-.3,0-.5,0-1-.1-1.2-.4-.3-.4-.4-1.1-.3-1.7.1-.9.7-1.4,1.3-1.8.4-.2.7-.4,1.1-.6.2-.1.4-.3.6-.4,0,0,.2-.2.3-.2.2-.2.3-.4.3-.6,0-.9-.9-2-3.2-2.6-.4-.1-.8-.2-1.2-.3-.3,0-.7-.1-1-.3-.2-.1-.4-.2-.6-.4-.3-.2-.5-.6-.7-1.2-.5-1.8,1.3-3.3,3-3.5.7,0,1.3-.1,1.8,0,.2,0,.4.1.5.2.6.4,1.5,1,2.4,1.3s1.9.3,2.7-.6c.5-.6.6-1.1.7-1.8,0-.4.2-.8.5-1.2h0Z"/>
          <path class="st21" d="M524.8,93c.2-.3.4-.6.7-.8.2-.2.5-.3.8-.4.1,0,.2,0,.4,0,.6,0,1.3,0,2,.3.9.4,1.5,1.3,1.8,2.3.1.4.2.8.2,1.2,0,.3,0,.5,0,.7,0,.1,0,.2,0,.3,0,.1,0,.3-.2.4-.2.3-.3.6-.4.9-.1.4,0,1,.4,1.3.5.4,1.3.4,1.9.6.2,0,.3,0,.5.1,0,0,0,0,.1,0,.2,0,.4.2.5.4.2.2.3.5.3.8,0,.2,0,.5,0,1,0,.7-.3,1.7-1.1,2.3-.1.1-.4.3-.7.5-.2.1-.3.3-.5.4,0,0-.1.1-.2.2-.3.3-.5.6-.6.8,0,.2-.2.3-.2.4-.3.8.3,1.3.3,1.9,0,.4,0,.9-.1,1.3,0,.1-.2.3-.5.5-.1,0-.2.1-.4.2-.3.1-.7.3-1.1.4-.8.2-1.6.3-2.3.1-.3,0-.5-.1-.7-.3-.3-.2-.5-.4-.6-.7,0-.2-.1-.5,0-.8.1-.8,1.1-2.6,0-2.9-.7-.2-1.8,0-2.7.4-.1,0-.3.1-.4.2-.3.1-1.8.9-2.8,1.2-.2,0-.4.1-.5.1-.1,0-.2,0-.3,0-.5,0-1,0-1.3-.4-.4-.4-.5-1.1-.5-1.7,0-.9.7-1.3,1.4-1.7.4-.2.8-.4,1.1-.5.2-.1.4-.2.6-.4.1,0,.2-.1.3-.2.2-.2.3-.4.4-.6.3-.9-.6-2-3.1-2.6-.4,0-.8-.2-1.3-.2-.3,0-.7,0-1.1-.2-.3,0-.5-.2-.8-.4-.4-.3-.7-.7-1-1.4-.8-2,1-3.7,2.8-4,.7-.1,1.3,0,1.8.1.2,0,.4.2.6.3.7.5,1.6,1.3,2.5,1.8,1,.5,2,.6,2.9-.4.5-.6.6-1.2.7-1.8,0-.4.2-.9.4-1.3h0Z"/>
          <path class="st4" d="M523.6,96.7c.8-.9.5-2,1.1-3.2.3-.7.8-1.2,1.5-1.4.8-.3,1.7-.3,2.5,0,1.7.6,2.5,2.9,1.8,4.5-.2.5-.6.9-.8,1.4-.2.5,0,1.1.3,1.4.7.6,1.7.4,2.5.8.5.2.8.7.9,1.2,0,.4.5,2.3-.8,3.3-.4.3-1.8,1.5-2.1,1.8-.8,1,0,1.6,0,2.2,0,.4,0,.9-.2,1.2-.2.4-2.5,1.8-4.2,1.5-.8-.1-1.6-.5-1.2-1.8.2-.9,1.4-3,.3-3.4-.9-.3-2.2,0-3.2.6-.3.1-2.3,1.2-3.4,1.3-.5,0-1.3,0-1.7-.3-.5-.4-.6-1.1-.6-1.6,0-1.3,1.7-1.7,2.7-2,2.4-.9,2.3-3.4-2.8-3.8-.8,0-2.5,0-3.4-2-1.5-3.3,3-5.8,5.1-3.8,1.5,1.4,3.9,4,5.7,2.1h0Z"/>
        </g>
        <g>
          <path class="st26" d="M503,98.7h4.8s.6,0,.6.7-.6.8-.6.8h-3.7v1.6h3.2s.7,0,.7.7-.7.8-.7.8h-3.2v1.6h3.8s.6,0,.6.8-.6.8-.6.8h-5c-.5,0-.5-.6-.5-.6v-6.4s0-.7.6-.7h0Z"/>
          <path class="st26" d="M514,102.4c.8,0,1.3-.4,1.3-1.1h0c0-.7-.5-1.1-1.3-1.1h-1.7v2.2h1.7,0ZM511,98.7h3.1c1,0,1.7.3,2.2.8.4.4.7,1,.7,1.8h0c0,1.3-.7,2.1-1.7,2.4,0,0,1.2,1.5,1.7,2.1.5.6-.1.6-.1.6h-1.4l-1.9-2.5h-1.3v2.5h-1.1s-.6,0-.6-.6v-6.4c0-.6.4-.6.4-.6h0Z"/>
          <path class="st26" d="M520.8,100.2h-1.9s-.6,0-.6-.9.6-.7.6-.7h5.5s.6,0,.6.7-.6.9-.6.9h-1.9v5.5s0,.6-.9.6-.8-.6-.8-.6c0,0,0-5.5,0-5.5Z"/>
          <path class="st26" d="M526.9,99.3c0-.9,1.7-.9,1.7,0v6.4s0,.6-.8.6-.8-.6-.8-.6v-6.4Z"/>
          <path class="st26" d="M530.6,102.5h0c0-2.2,1.7-4,4-4s2.3.5,3,1.2c0,0,.4.5,0,1.1-.5.7-1.2.2-1.2.2-.6-.5-1.2-.9-2-.9-1.3,0-2.2,1.1-2.2,2.4h0c0,1.3.9,2.4,2.2,2.4s1.4-.4,2-.9c0,0,.5-.4,1,.1.4.5.1,1,.1,1-.8.8-1.7,1.4-3.2,1.4-2.3,0-4-1.8-4-4h0Z"/>
          <path class="st26" d="M545.5,102.5h0c0-1.3-1-2.4-2.3-2.4s-2.3,1.1-2.3,2.4h0c0,1.3,1,2.4,2.3,2.4s2.3-1.1,2.3-2.4ZM539.1,102.5h0c0-2.2,1.7-4,4.1-4s4.1,1.8,4.1,4h0c0,2.2-1.7,4-4.1,4s-4.1-1.8-4.1-4Z"/>
        </g>
      </g>
    </g>
    <g>
      <path class="st31" d="M504.6,83.3c-.3,0-.5,0-.8-.1-.2,0-.4-.2-.6-.4-.2-.2-.3-.4-.4-.6,0-.2-.1-.5-.1-.7s0-.5.1-.7c0-.2.2-.4.4-.6.2-.2.4-.3.6-.4.2,0,.5-.1.8-.1s.6,0,.8.2c.3.1.5.3.6.5l-.5.5c-.1-.1-.3-.2-.4-.3-.2,0-.3-.1-.5-.1s-.3,0-.5,0-.3.1-.4.2-.2.2-.2.4c0,.1,0,.3,0,.5s0,.3,0,.5c0,.1.1.3.2.4s.2.2.4.2c.1,0,.3,0,.5,0s.3,0,.5-.1.3-.2.4-.3l.5.5c-.2.2-.4.4-.6.5-.3.1-.5.2-.9.2Z"/>
      <path class="st31" d="M508.4,83.3c-.3,0-.5,0-.8-.1-.2,0-.4-.2-.6-.4-.2-.2-.3-.4-.4-.6,0-.2-.1-.5-.1-.7s0-.5.1-.7c0-.2.2-.4.4-.6.2-.2.4-.3.6-.4.2,0,.5-.1.8-.1s.5,0,.8.1c.2,0,.4.2.6.4.2.2.3.4.4.6,0,.2.1.5.1.7s0,.5-.1.7-.2.4-.4.6-.4.3-.6.4c-.2,0-.5.1-.8.1ZM508.4,82.6c.2,0,.3,0,.4,0,.1,0,.3-.1.4-.2s.2-.2.2-.4,0-.3,0-.5,0-.3,0-.5-.1-.3-.2-.4-.2-.2-.4-.2c-.1,0-.3,0-.4,0s-.3,0-.4,0c-.1,0-.3.1-.4.2-.1.1-.2.2-.2.4,0,.1,0,.3,0,.5s0,.3,0,.5c0,.1.1.3.2.4.1.1.2.2.4.2.1,0,.3,0,.4,0Z"/>
      <path class="st31" d="M511,83.2v-3.6h.7l2.1,2.6h-.3v-2.6h.8v3.6h-.7l-2.1-2.6h.3v2.6h-.8Z"/>
      <path class="st31" d="M515.8,83.2v-2.9h-1.1v-.7h3.1v.7h-1.1v2.9h-.8Z"/>
      <path class="st31" d="M519.1,82.5h2v.7h-2.8v-3.6h2.7v.7h-1.9v2.3ZM519,81.1h1.7v.7h-1.7v-.7Z"/>
      <path class="st31" d="M521.7,83.2v-3.6h.7l2.1,2.6h-.3v-2.6h.8v3.6h-.7l-2.1-2.6h.3v2.6h-.8Z"/>
      <path class="st31" d="M526.6,83.2v-2.9h-1.1v-.7h3.1v.7h-1.1v2.9h-.8Z"/>
      <path class="st31" d="M530.5,83.2v-3.6h1.6c.3,0,.6,0,.8.2s.4.3.5.4c.1.2.2.4.2.7s0,.5-.2.7-.3.3-.5.4c-.2.1-.5.2-.8.2h-1.1l.4-.4v1.4h-.8ZM531.3,81.9l-.4-.4h1.1c.3,0,.4,0,.6-.2s.2-.3.2-.5,0-.4-.2-.5c-.1-.1-.3-.2-.6-.2h-1.1l.4-.4v2Z"/>
      <path class="st31" d="M533.8,83.2l1.6-3.6h.8l1.6,3.6h-.9l-1.3-3.2h.3l-1.3,3.2h-.9ZM534.6,82.4l.2-.6h1.9l.2.6h-2.3Z"/>
      <path class="st31" d="M538.2,83.2v-3.6h1.6c.3,0,.6,0,.8.2s.4.3.5.4c.1.2.2.4.2.7s0,.5-.2.7-.3.3-.5.4-.5.2-.8.2h-1.1l.4-.4v1.4h-.8ZM539,81.9l-.4-.4h1.1c.3,0,.4,0,.6-.2s.2-.3.2-.5,0-.4-.2-.5c-.1-.1-.3-.2-.6-.2h-1.1l.4-.4v2ZM540.5,83.2l-.9-1.3h.9l.9,1.3h-.9Z"/>
      <path class="st31" d="M542.7,83.2v-2.9h-1.1v-.7h3.1v.7h-1.1v2.9h-.8Z"/>
      <path class="st31" d="M545.1,83.2v-3.6h.7l2.1,2.6h-.3v-2.6h.8v3.6h-.7l-2.1-2.6h.3v2.6h-.8Z"/>
      <path class="st31" d="M550.1,82.5h2v.7h-2.8v-3.6h2.7v.7h-1.9v2.3ZM550,81.1h1.7v.7h-1.7v-.7Z"/>
      <path class="st31" d="M552.7,83.2v-3.6h1.6c.3,0,.6,0,.8.2s.4.3.5.4c.1.2.2.4.2.7s0,.5-.2.7-.3.3-.5.4-.5.2-.8.2h-1.1l.4-.4v1.4h-.8ZM553.5,81.9l-.4-.4h1.1c.3,0,.4,0,.6-.2s.2-.3.2-.5,0-.4-.2-.5c-.1-.1-.3-.2-.6-.2h-1.1l.4-.4v2ZM555,83.2l-.9-1.3h.9l.9,1.3h-.9Z"/>
      <path class="st31" d="M556.7,81.4c-.1,0-.3,0-.4-.1,0,0-.1-.2-.1-.4s0-.3.1-.4c0,0,.2-.1.4-.1s.3,0,.4.1c0,0,.1.2.1.4s0,.3-.1.4-.2.1-.4.1ZM556.7,83.3c-.1,0-.3,0-.4-.1,0,0-.1-.2-.1-.4s0-.3.1-.4c0,0,.2-.1.4-.1s.3,0,.4.1.1.2.1.4,0,.3-.1.4c0,0-.2.1-.4.1Z"/>
    </g>
  </g>
</svg>