<?xml version="1.0"?>
<svg width="221" height="71" xmlns="http://www.w3.org/2000/svg" xmlns:svg="http://www.w3.org/2000/svg">
 <g class="layer">
  <title>Layer 1</title>
  <path d="m88.96,45.62c-0.33,-0.3 -0.71,-0.53 -1.15,-0.68c-0.44,-0.15 -0.88,-0.23 -1.3,-0.23c-0.38,0 -0.76,0.05 -1.13,0.15a3,3 0 0 0 -0.99,0.46c-0.29,0.2 -0.52,0.46 -0.7,0.76c-0.18,0.31 -0.27,0.68 -0.27,1.11c0,0.4 0.06,0.73 0.19,1c0.13,0.26 0.29,0.49 0.5,0.67c0.2,0.18 0.43,0.33 0.68,0.44c0.26,0.11 0.51,0.21 0.76,0.29c0.27,0.08 0.52,0.17 0.75,0.25c0.24,0.08 0.45,0.17 0.62,0.28c0.18,0.1 0.32,0.23 0.42,0.38c0.1,0.14 0.15,0.33 0.15,0.55c0,0.23 -0.04,0.42 -0.13,0.58c-0.09,0.15 -0.21,0.28 -0.36,0.39c-0.15,0.1 -0.31,0.17 -0.49,0.22c-0.19,0.04 -0.37,0.06 -0.54,0.06c-0.33,0 -0.67,-0.08 -1.02,-0.25c-0.34,-0.17 -0.62,-0.39 -0.83,-0.68l-1.07,1c0.34,0.4 0.77,0.7 1.29,0.9c0.52,0.21 1.06,0.31 1.61,0.31c0.41,0 0.8,-0.06 1.17,-0.17c0.38,-0.11 0.7,-0.28 0.98,-0.5c0.28,-0.22 0.5,-0.5 0.67,-0.84c0.16,-0.34 0.25,-0.73 0.25,-1.19c0,-0.41 -0.08,-0.75 -0.23,-1.03c-0.16,-0.28 -0.36,-0.51 -0.6,-0.69c-0.24,-0.18 -0.51,-0.33 -0.8,-0.44c-0.29,-0.11 -0.57,-0.21 -0.84,-0.3c-0.23,-0.07 -0.45,-0.15 -0.65,-0.22s-0.37,-0.15 -0.51,-0.25a0.96,0.96 0 0 1 -0.44,-0.83c0,-0.2 0.04,-0.38 0.13,-0.53c0.09,-0.15 0.21,-0.27 0.35,-0.36c0.15,-0.09 0.31,-0.16 0.48,-0.2c0.18,-0.04 0.35,-0.07 0.53,-0.07c0.29,0 0.58,0.07 0.87,0.21c0.29,0.14 0.51,0.32 0.67,0.52l0.98,-1.07zm4.26,7.74l1.5,0l0,-7.12l2.59,0l0,-1.31l-6.67,0l0,1.31l2.58,0l0,7.12zm4.52,0l1.68,0l0.76,-1.93l3.66,0l0.78,1.93l1.72,0l-3.63,-8.43l-1.3,0l-3.67,8.43zm2.95,-3.21l1.33,-3.43l1.29,3.43l-2.62,0zm7.67,3.21l2.99,0c0.55,0 1.1,-0.08 1.66,-0.24a4.62,4.62 0 0 0 1.5,-0.76c0.45,-0.34 0.81,-0.78 1.08,-1.31c0.28,-0.53 0.42,-1.17 0.42,-1.9c0,-0.8 -0.14,-1.46 -0.42,-2c-0.27,-0.54 -0.63,-0.97 -1.08,-1.3c-0.45,-0.33 -0.95,-0.56 -1.5,-0.71c-0.56,-0.14 -1.11,-0.21 -1.66,-0.21l-2.99,0l0,8.43zm1.5,-1.31l0,-5.83l1.26,0c0.38,0 0.77,0.04 1.16,0.11c0.39,0.09 0.74,0.23 1.06,0.44c0.31,0.22 0.57,0.52 0.77,0.9c0.19,0.38 0.29,0.87 0.29,1.48c0,0.57 -0.1,1.04 -0.29,1.41c-0.2,0.38 -0.46,0.67 -0.77,0.89c-0.32,0.22 -0.67,0.37 -1.06,0.46c-0.39,0.1 -0.78,0.14 -1.16,0.14l-1.26,0zm12.96,1.31l1.5,0l0,-4.23l0.04,0l3.7,4.23l2.11,0l-4.2,-4.54l3.94,-3.89l-2.02,0l-3.53,3.64l-0.04,0l0,-3.64l-1.5,0l0,8.43zm8.24,0l1.68,0l0.76,-1.93l3.65,0l0.79,1.93l1.71,0l-3.63,-8.43l-1.3,0l-3.66,8.43zm2.95,-3.21l1.32,-3.43l1.3,3.43l-2.62,0zm6.64,3.21l1.68,0l0.77,-1.93l3.65,0l0.79,1.93l1.71,0l-3.63,-8.43l-1.3,0l-3.67,8.43zm2.96,-3.21l1.32,-3.43l1.3,3.43l-2.62,0zm7.67,3.21l1.5,0l0,-3.49l1.16,0c0.44,0 0.86,-0.04 1.26,-0.13s0.74,-0.23 1.04,-0.42c0.3,-0.2 0.54,-0.45 0.71,-0.77c0.17,-0.32 0.26,-0.71 0.26,-1.18c0,-0.44 -0.07,-0.81 -0.22,-1.12a1.99,1.99 0 0 0 -0.65,-0.76c-0.27,-0.2 -0.61,-0.34 -1,-0.43c-0.39,-0.09 -0.82,-0.13 -1.31,-0.13l-2.75,0l0,8.43zm1.5,-4.75l0,-2.42l1.1,0c0.23,0 0.45,0.02 0.67,0.04c0.22,0.03 0.41,0.09 0.58,0.18c0.18,0.08 0.31,0.2 0.41,0.36c0.11,0.15 0.16,0.35 0.16,0.6c0,0.26 -0.05,0.46 -0.16,0.62c-0.1,0.16 -0.24,0.28 -0.41,0.37c-0.18,0.1 -0.38,0.16 -0.6,0.2c-0.22,0.03 -0.46,0.05 -0.7,0.05l-1.05,0zm12.23,-2.99c-0.32,-0.3 -0.71,-0.53 -1.15,-0.68a4.01,4.01 0 0 0 -2.43,-0.08c-0.36,0.1 -0.69,0.25 -0.98,0.46c-0.3,0.2 -0.53,0.46 -0.71,0.76c-0.18,0.31 -0.27,0.68 -0.27,1.11c0,0.4 0.07,0.73 0.2,1c0.12,0.26 0.29,0.49 0.49,0.67c0.2,0.18 0.43,0.33 0.68,0.44c0.26,0.11 0.51,0.21 0.77,0.29c0.26,0.08 0.51,0.17 0.75,0.25c0.23,0.08 0.44,0.17 0.62,0.28c0.17,0.1 0.31,0.23 0.41,0.38c0.11,0.14 0.16,0.33 0.16,0.55c0,0.23 -0.05,0.42 -0.14,0.58c-0.09,0.15 -0.21,0.28 -0.36,0.39c-0.14,0.1 -0.31,0.17 -0.49,0.22a2.25,2.25 0 0 1 -1.55,-0.19c-0.35,-0.17 -0.63,-0.39 -0.83,-0.68l-1.07,1c0.33,0.4 0.76,0.7 1.28,0.9c0.53,0.21 1.06,0.31 1.61,0.31c0.41,0 0.81,-0.06 1.18,-0.17c0.37,-0.11 0.7,-0.28 0.97,-0.5c0.28,-0.22 0.51,-0.5 0.67,-0.84c0.17,-0.34 0.25,-0.73 0.25,-1.19c0,-0.41 -0.07,-0.75 -0.23,-1.03c-0.15,-0.28 -0.35,-0.51 -0.59,-0.69c-0.25,-0.18 -0.51,-0.33 -0.8,-0.44c-0.29,-0.11 -0.57,-0.21 -0.84,-0.3c-0.24,-0.07 -0.46,-0.15 -0.66,-0.22s-0.36,-0.15 -0.5,-0.25c-0.14,-0.09 -0.25,-0.21 -0.33,-0.34a0.96,0.96 0 0 1 -0.12,-0.49c0,-0.2 0.04,-0.38 0.14,-0.53c0.09,-0.15 0.21,-0.27 0.35,-0.36c0.14,-0.09 0.3,-0.16 0.47,-0.2c0.18,-0.04 0.35,-0.07 0.53,-0.07c0.29,0 0.58,0.07 0.87,0.21c0.29,0.14 0.52,0.32 0.68,0.52l0.97,-1.07zm4.27,7.74l1.5,0l0,-7.12l2.58,0l0,-1.31l-6.67,0l0,1.31l2.59,0l0,7.12zm4.51,0l1.68,0l0.76,-1.93l3.66,0l0.79,1.93l1.71,0l-3.63,-8.43l-1.3,0l-3.67,8.43zm2.96,-3.21l1.32,-3.43l1.3,3.43l-2.62,0zm7.67,3.21l2.99,0c0.54,0 1.1,-0.08 1.65,-0.24c0.56,-0.16 1.06,-0.42 1.5,-0.76c0.45,-0.34 0.81,-0.78 1.09,-1.31c0.27,-0.53 0.41,-1.17 0.41,-1.9c0,-0.8 -0.14,-1.46 -0.41,-2c-0.28,-0.54 -0.64,-0.97 -1.09,-1.3c-0.44,-0.33 -0.94,-0.56 -1.5,-0.71c-0.55,-0.14 -1.11,-0.21 -1.65,-0.21l-2.99,0l0,8.43zm1.5,-1.31l0,-5.83l1.25,0c0.39,0 0.78,0.04 1.17,0.11c0.38,0.09 0.73,0.23 1.05,0.44c0.31,0.22 0.57,0.52 0.77,0.9c0.2,0.38 0.3,0.87 0.3,1.48c0,0.57 -0.1,1.04 -0.3,1.41c-0.2,0.38 -0.46,0.67 -0.77,0.89c-0.32,0.22 -0.67,0.37 -1.05,0.46c-0.39,0.1 -0.78,0.14 -1.17,0.14l-1.25,0z" fill="#000" id="svg_55"/>
  <path d="m83.68,39.52l1.5,0l0,-8.43l-1.5,0l0,8.43zm9.83,-7.74c-0.32,-0.3 -0.71,-0.53 -1.15,-0.68c-0.44,-0.15 -0.88,-0.22 -1.3,-0.22c-0.39,0 -0.76,0.04 -1.13,0.15c-0.37,0.09 -0.7,0.25 -0.99,0.45c-0.29,0.2 -0.52,0.46 -0.7,0.77c-0.18,0.3 -0.27,0.67 -0.27,1.1c0,0.4 0.06,0.73 0.19,1c0.13,0.26 0.29,0.49 0.5,0.67c0.2,0.18 0.43,0.33 0.68,0.44c0.25,0.11 0.51,0.21 0.76,0.29c0.26,0.09 0.51,0.17 0.75,0.25c0.24,0.08 0.45,0.17 0.62,0.28c0.18,0.11 0.32,0.23 0.42,0.38c0.1,0.14 0.15,0.33 0.15,0.55c0,0.23 -0.04,0.43 -0.13,0.58c-0.09,0.16 -0.21,0.29 -0.36,0.39c-0.15,0.1 -0.31,0.17 -0.49,0.22c-0.19,0.04 -0.37,0.06 -0.54,0.06c-0.33,0 -0.67,-0.08 -1.02,-0.25c-0.34,-0.16 -0.62,-0.39 -0.83,-0.68l-1.07,1.01c0.34,0.39 0.76,0.69 1.29,0.89c0.52,0.21 1.06,0.31 1.61,0.31c0.41,0 0.8,-0.06 1.17,-0.17c0.38,-0.11 0.7,-0.28 0.98,-0.5c0.28,-0.22 0.5,-0.5 0.67,-0.84c0.16,-0.34 0.25,-0.73 0.25,-1.18c0,-0.42 -0.08,-0.76 -0.23,-1.04c-0.16,-0.28 -0.36,-0.51 -0.6,-0.69c-0.24,-0.18 -0.51,-0.33 -0.8,-0.44c-0.29,-0.11 -0.57,-0.21 -0.84,-0.3c-0.24,-0.07 -0.45,-0.14 -0.65,-0.22c-0.2,-0.07 -0.37,-0.15 -0.51,-0.24c-0.14,-0.1 -0.25,-0.21 -0.33,-0.35c-0.08,-0.13 -0.11,-0.3 -0.11,-0.49c0,-0.2 0.04,-0.38 0.13,-0.53c0.09,-0.15 0.21,-0.27 0.35,-0.35c0.15,-0.1 0.31,-0.17 0.48,-0.21c0.18,-0.04 0.35,-0.06 0.52,-0.06c0.3,0 0.59,0.07 0.88,0.21c0.29,0.13 0.51,0.31 0.67,0.51l0.98,-1.07zm2.75,7.74l1.5,0l0,-8.43l-1.5,0l0,8.43zm3.67,0l1.81,0l1.98,-3.31l2.06,3.31l1.89,0l-3.02,-4.46l2.57,-3.97l-1.73,0l-1.71,2.88l-1.74,-2.88l-1.81,0l2.62,3.93l-2.92,4.5zm9.91,0l5.8,0l0,-1.33l-4.3,0l0,-2.38l3.87,0l0,-1.27l-3.87,0l0,-2.14l4.09,0l0,-1.31l-5.59,0l0,8.43zm8.46,0l1.5,0l0,-4.23l0.03,0l3.71,4.23l2.11,0l-4.21,-4.54l3.94,-3.89l-2.02,0l-3.53,3.64l-0.03,0l0,-3.64l-1.5,0l0,8.43zm9,-2.43c0.22,0.54 0.54,1.01 0.94,1.4c0.4,0.4 0.87,0.7 1.43,0.92c0.55,0.22 1.15,0.33 1.8,0.33c0.66,0 1.27,-0.11 1.82,-0.33c0.56,-0.22 1.04,-0.52 1.44,-0.92c0.41,-0.39 0.72,-0.86 0.95,-1.4c0.23,-0.55 0.34,-1.15 0.34,-1.81c0,-0.67 -0.11,-1.28 -0.34,-1.83c-0.23,-0.54 -0.54,-1 -0.95,-1.38c-0.4,-0.39 -0.88,-0.68 -1.44,-0.88c-0.55,-0.21 -1.16,-0.31 -1.82,-0.31c-0.65,0 -1.25,0.1 -1.8,0.31c-0.56,0.2 -1.03,0.49 -1.43,0.88c-0.4,0.38 -0.72,0.84 -0.94,1.38a4.7,4.7 0 0 0 -0.35,1.83c0,0.66 0.12,1.26 0.35,1.81m1.5,-3.02c0.13,-0.37 0.33,-0.7 0.59,-0.98c0.25,-0.28 0.55,-0.5 0.91,-0.65c0.35,-0.16 0.75,-0.24 1.18,-0.24c0.44,0 0.83,0.08 1.19,0.24c0.36,0.15 0.67,0.37 0.92,0.65s0.45,0.61 0.59,0.98c0.14,0.37 0.21,0.78 0.21,1.21c0,0.45 -0.07,0.87 -0.21,1.25c-0.14,0.38 -0.34,0.7 -0.59,0.98c-0.26,0.28 -0.57,0.49 -0.93,0.65c-0.35,0.15 -0.75,0.23 -1.18,0.23c-0.43,0 -0.82,-0.08 -1.17,-0.23c-0.36,-0.16 -0.66,-0.37 -0.92,-0.65c-0.25,-0.28 -0.46,-0.6 -0.59,-0.98c-0.14,-0.38 -0.21,-0.8 -0.21,-1.25c0,-0.43 0.07,-0.84 0.21,-1.21m19.31,-2.29c-0.33,-0.3 -0.71,-0.53 -1.15,-0.68c-0.44,-0.15 -0.87,-0.22 -1.3,-0.22c-0.38,0 -0.76,0.04 -1.13,0.15c-0.37,0.09 -0.7,0.25 -0.99,0.45c-0.29,0.2 -0.52,0.46 -0.7,0.77c-0.18,0.3 -0.27,0.67 -0.27,1.1c0,0.4 0.06,0.73 0.19,1c0.13,0.26 0.3,0.49 0.5,0.67c0.2,0.18 0.43,0.33 0.68,0.44c0.26,0.11 0.51,0.21 0.76,0.29c0.27,0.09 0.52,0.17 0.75,0.25c0.24,0.08 0.45,0.17 0.62,0.28c0.18,0.11 0.32,0.23 0.42,0.38c0.1,0.14 0.15,0.33 0.15,0.55c0,0.23 -0.04,0.43 -0.13,0.58c-0.09,0.16 -0.21,0.29 -0.36,0.39c-0.15,0.1 -0.31,0.17 -0.49,0.22c-0.19,0.04 -0.37,0.06 -0.54,0.06c-0.33,0 -0.67,-0.08 -1.02,-0.25c-0.34,-0.16 -0.62,-0.39 -0.82,-0.68l-1.08,1.01c0.34,0.39 0.77,0.69 1.29,0.89a4.27,4.27 0 0 0 2.79,0.14c0.37,-0.11 0.69,-0.28 0.97,-0.5c0.28,-0.22 0.5,-0.5 0.67,-0.84c0.17,-0.34 0.25,-0.73 0.25,-1.18c0,-0.42 -0.08,-0.76 -0.23,-1.04c-0.16,-0.28 -0.35,-0.51 -0.6,-0.69c-0.24,-0.18 -0.51,-0.33 -0.8,-0.44c-0.29,-0.11 -0.57,-0.21 -0.84,-0.3a8.22,8.22 0 0 1 -0.65,-0.22c-0.2,-0.07 -0.37,-0.15 -0.51,-0.24c-0.14,-0.1 -0.24,-0.21 -0.33,-0.35c-0.07,-0.13 -0.11,-0.3 -0.11,-0.49c0,-0.2 0.04,-0.38 0.13,-0.53c0.1,-0.15 0.21,-0.27 0.36,-0.35c0.14,-0.1 0.3,-0.17 0.47,-0.21c0.18,-0.04 0.35,-0.06 0.53,-0.06c0.29,0 0.58,0.07 0.87,0.21c0.29,0.13 0.51,0.31 0.67,0.51l0.98,-1.07zm1.73,7.74l1.68,0l0.76,-1.93l3.66,0l0.78,1.93l1.72,0l-3.64,-8.43l-1.29,0l-3.67,8.43zm2.95,-3.21l1.32,-3.43l1.3,3.43l-2.62,0zm12.95,-4.53c-0.33,-0.3 -0.71,-0.53 -1.15,-0.68c-0.44,-0.15 -0.88,-0.22 -1.31,-0.22c-0.38,0 -0.75,0.04 -1.12,0.15c-0.37,0.09 -0.7,0.25 -0.99,0.45c-0.29,0.2 -0.52,0.46 -0.7,0.77c-0.18,0.3 -0.27,0.67 -0.27,1.1c0,0.4 0.06,0.73 0.19,1c0.13,0.26 0.29,0.49 0.5,0.67c0.2,0.18 0.43,0.33 0.68,0.44c0.25,0.11 0.51,0.21 0.76,0.29c0.26,0.09 0.51,0.17 0.75,0.25c0.24,0.08 0.45,0.17 0.62,0.28c0.18,0.11 0.32,0.23 0.42,0.38c0.1,0.14 0.15,0.33 0.15,0.55c0,0.23 -0.04,0.43 -0.13,0.58c-0.09,0.16 -0.22,0.29 -0.36,0.39c-0.15,0.1 -0.31,0.17 -0.5,0.22c-0.18,0.04 -0.36,0.06 -0.53,0.06c-0.33,0 -0.67,-0.08 -1.02,-0.25c-0.34,-0.16 -0.62,-0.39 -0.83,-0.68l-1.07,1.01c0.33,0.39 0.76,0.69 1.29,0.89c0.52,0.21 1.06,0.31 1.61,0.31c0.41,0 0.8,-0.06 1.17,-0.17c0.38,-0.11 0.7,-0.28 0.98,-0.5c0.28,-0.22 0.5,-0.5 0.67,-0.84c0.16,-0.34 0.25,-0.73 0.25,-1.18c0,-0.42 -0.08,-0.76 -0.24,-1.04c-0.15,-0.28 -0.35,-0.51 -0.59,-0.69c-0.24,-0.18 -0.51,-0.33 -0.8,-0.44c-0.29,-0.11 -0.57,-0.21 -0.84,-0.3c-0.24,-0.07 -0.45,-0.14 -0.65,-0.22c-0.2,-0.07 -0.37,-0.15 -0.51,-0.24c-0.14,-0.1 -0.25,-0.21 -0.33,-0.35a0.94,0.94 0 0 1 -0.12,-0.49c0,-0.2 0.05,-0.38 0.14,-0.53c0.09,-0.15 0.21,-0.27 0.35,-0.35c0.15,-0.1 0.31,-0.17 0.48,-0.21c0.17,-0.04 0.35,-0.06 0.52,-0.06c0.3,0 0.59,0.07 0.88,0.21c0.29,0.13 0.51,0.31 0.67,0.51l0.98,-1.07zm2.75,7.74l5.8,0l0,-1.33l-4.3,0l0,-2.38l3.87,0l0,-1.27l-3.87,0l0,-2.14l4.09,0l0,-1.31l-5.59,0l0,8.43zm8.46,0l1.5,0l0,-4.23l0.03,0l3.71,4.23l2.11,0l-4.21,-4.54l3.94,-3.89l-2.02,0l-3.53,3.64l-0.03,0l0,-3.64l-1.5,0l0,8.43zm8.23,0l1.68,0l0.76,-1.93l3.66,0l0.78,1.93l1.72,0l-3.64,-8.43l-1.29,0l-3.67,8.43zm2.95,-3.21l1.32,-3.43l1.3,3.43l-2.62,0zm7.67,3.21l1.5,0l0,-3.49l1.16,0c0.44,0 0.87,-0.04 1.26,-0.13c0.4,-0.09 0.75,-0.23 1.04,-0.42c0.3,-0.19 0.54,-0.45 0.71,-0.77c0.18,-0.32 0.26,-0.71 0.26,-1.18c0,-0.43 -0.07,-0.81 -0.22,-1.12c-0.15,-0.31 -0.37,-0.56 -0.64,-0.76c-0.28,-0.2 -0.62,-0.34 -1.01,-0.43c-0.38,-0.09 -0.82,-0.13 -1.31,-0.13l-2.75,0l0,8.43zm1.5,-4.75l0,-2.42l1.1,0c0.23,0 0.45,0.02 0.67,0.05c0.22,0.02 0.42,0.08 0.59,0.17c0.17,0.08 0.3,0.21 0.41,0.36c0.1,0.16 0.15,0.36 0.15,0.6c0,0.26 -0.05,0.46 -0.15,0.62c-0.11,0.16 -0.25,0.29 -0.42,0.38c-0.17,0.09 -0.37,0.15 -0.59,0.19c-0.23,0.03 -0.46,0.05 -0.71,0.05l-1.05,0zm5.22,4.75l1.68,0l0.76,-1.93l3.66,0l0.79,1.93l1.71,0l-3.63,-8.43l-1.3,0l-3.67,8.43zm2.95,-3.21l1.33,-3.43l1.29,3.43l-2.62,0z" fill="#000" id="svg_56"/>
  <path d="m90.91,18.32c-0.17,-0.22 -0.37,-0.41 -0.61,-0.57a4.23,4.23 0 0 0 -1.6,-0.64c-0.3,-0.05 -0.58,-0.08 -0.85,-0.08c-0.65,0 -1.26,0.11 -1.81,0.31c-0.56,0.21 -1.04,0.51 -1.45,0.89c-0.41,0.38 -0.73,0.84 -0.96,1.38c-0.24,0.55 -0.36,1.16 -0.36,1.83c0,0.66 0.12,1.26 0.34,1.81c0.22,0.54 0.53,1.01 0.93,1.4c0.39,0.39 0.87,0.7 1.42,0.92c0.55,0.22 1.16,0.33 1.82,0.33c0.72,0 1.35,-0.13 1.89,-0.39c0.54,-0.26 1,-0.62 1.37,-1.09l-1.2,-0.84c-0.22,0.29 -0.5,0.52 -0.85,0.7c-0.35,0.18 -0.75,0.27 -1.2,0.27c-0.44,0 -0.83,-0.07 -1.18,-0.23c-0.35,-0.15 -0.65,-0.36 -0.9,-0.63c-0.25,-0.28 -0.44,-0.6 -0.58,-0.98c-0.13,-0.39 -0.2,-0.81 -0.2,-1.27c0,-0.44 0.07,-0.84 0.21,-1.21c0.14,-0.38 0.34,-0.7 0.59,-0.98c0.26,-0.28 0.57,-0.49 0.93,-0.66c0.36,-0.15 0.75,-0.23 1.19,-0.23c0.34,0 0.69,0.07 1.05,0.21c0.36,0.14 0.64,0.36 0.87,0.66l1.14,-0.91zm2.25,7.36l1.5,0l0,-8.43l-1.5,0l0,8.43zm6.25,0l1.51,0l0,-7.12l2.58,0l0,-1.31l-6.67,0l0,1.31l2.58,0l0,7.12zm8.15,0l1.5,0l0,-3.66l3.17,-4.77l-1.74,0l-2.14,3.55l-2.12,-3.55l-1.84,0l3.17,4.77l0,3.66zm10.38,-2.43c0.23,0.54 0.54,1.01 0.94,1.4c0.41,0.39 0.88,0.7 1.43,0.92c0.55,0.22 1.16,0.33 1.81,0.33c0.66,0 1.26,-0.11 1.82,-0.33c0.56,-0.22 1.04,-0.53 1.44,-0.92c0.41,-0.39 0.72,-0.86 0.95,-1.4c0.22,-0.55 0.34,-1.15 0.34,-1.81c0,-0.67 -0.12,-1.28 -0.34,-1.83c-0.23,-0.54 -0.54,-1 -0.95,-1.38c-0.4,-0.38 -0.88,-0.68 -1.44,-0.89c-0.56,-0.2 -1.16,-0.31 -1.82,-0.31c-0.65,0 -1.26,0.11 -1.81,0.31c-0.55,0.21 -1.02,0.51 -1.43,0.89c-0.4,0.38 -0.71,0.84 -0.94,1.38c-0.22,0.55 -0.34,1.16 -0.34,1.83c0,0.66 0.12,1.26 0.34,1.81m1.5,-3.02c0.14,-0.38 0.34,-0.7 0.59,-0.98c0.26,-0.28 0.56,-0.49 0.92,-0.66c0.35,-0.15 0.74,-0.23 1.18,-0.23c0.44,0 0.83,0.08 1.19,0.23c0.36,0.17 0.66,0.38 0.92,0.66c0.25,0.28 0.45,0.6 0.59,0.98c0.14,0.37 0.21,0.77 0.21,1.21c0,0.46 -0.07,0.87 -0.21,1.25c-0.14,0.37 -0.34,0.7 -0.6,0.98c-0.26,0.28 -0.56,0.49 -0.92,0.65c-0.36,0.15 -0.75,0.23 -1.18,0.23c-0.43,0 -0.82,-0.08 -1.17,-0.23c-0.36,-0.16 -0.66,-0.37 -0.92,-0.65s-0.46,-0.61 -0.6,-0.98c-0.14,-0.38 -0.2,-0.79 -0.2,-1.25c0,-0.44 0.06,-0.84 0.2,-1.21m9.87,5.45l1.5,0l0,-3.55l3.72,0l0,-1.26l-3.72,0l0,-2.31l3.95,0l0,-1.31l-5.45,0l0,8.43zm19.42,-7.36c-0.17,-0.22 -0.37,-0.41 -0.61,-0.57c-0.24,-0.16 -0.49,-0.29 -0.76,-0.4c-0.27,-0.11 -0.55,-0.19 -0.85,-0.24c-0.29,-0.05 -0.57,-0.08 -0.84,-0.08c-0.65,0 -1.26,0.11 -1.82,0.31c-0.55,0.21 -1.03,0.51 -1.44,0.89c-0.41,0.38 -0.73,0.84 -0.97,1.38a4.7,4.7 0 0 0 -0.35,1.83c0,0.66 0.11,1.26 0.34,1.81c0.22,0.54 0.53,1.01 0.92,1.4c0.4,0.39 0.87,0.7 1.43,0.92c0.55,0.22 1.16,0.33 1.82,0.33c0.72,0 1.35,-0.13 1.89,-0.39c0.54,-0.26 1,-0.62 1.37,-1.09l-1.21,-0.84c-0.21,0.29 -0.49,0.52 -0.84,0.7c-0.35,0.18 -0.75,0.27 -1.2,0.27c-0.44,0 -0.83,-0.07 -1.18,-0.23c-0.35,-0.15 -0.65,-0.36 -0.9,-0.63c-0.25,-0.28 -0.45,-0.6 -0.58,-0.98c-0.14,-0.39 -0.2,-0.81 -0.2,-1.27c0,-0.44 0.07,-0.84 0.21,-1.21c0.14,-0.38 0.33,-0.7 0.59,-0.98c0.26,-0.28 0.57,-0.49 0.92,-0.66c0.36,-0.15 0.76,-0.23 1.2,-0.23c0.34,0 0.69,0.07 1.04,0.21c0.36,0.14 0.65,0.36 0.87,0.66l1.15,-0.91zm1.22,7.36l1.68,0l0.77,-1.93l3.65,0l0.79,1.93l1.71,0l-3.63,-8.43l-1.3,0l-3.67,8.43zm2.96,-3.21l1.32,-3.43l1.3,3.43l-2.62,0zm7.67,3.21l1.5,0l0,-3.49l1.16,0c0.44,0 0.86,-0.04 1.26,-0.13s0.74,-0.23 1.04,-0.42c0.3,-0.2 0.54,-0.45 0.71,-0.77c0.17,-0.32 0.26,-0.71 0.26,-1.18c0,-0.44 -0.07,-0.81 -0.23,-1.12c-0.15,-0.31 -0.36,-0.56 -0.64,-0.76c-0.28,-0.2 -0.61,-0.34 -1,-0.43c-0.39,-0.09 -0.82,-0.13 -1.31,-0.13l-2.75,0l0,8.43zm1.5,-4.75l0,-2.42l1.1,0c0.23,0 0.45,0.02 0.67,0.04c0.22,0.03 0.41,0.09 0.58,0.18c0.17,0.08 0.31,0.2 0.41,0.36c0.11,0.16 0.16,0.35 0.16,0.6s-0.05,0.46 -0.16,0.62c-0.1,0.16 -0.24,0.29 -0.41,0.37c-0.18,0.1 -0.38,0.16 -0.6,0.2c-0.22,0.03 -0.46,0.05 -0.7,0.05l-1.05,0zm6.96,4.75l5.8,0l0,-1.33l-4.3,0l0,-2.38l3.87,0l0,-1.27l-3.87,0l0,-2.14l4.08,0l0,-1.31l-5.58,0l0,8.43zm14.04,0l1.5,0l0,-7.12l2.58,0l0,-1.31l-6.67,0l0,1.31l2.59,0l0,7.12zm5.83,-2.43c0.23,0.54 0.54,1.01 0.94,1.4c0.4,0.39 0.88,0.7 1.43,0.92c0.55,0.22 1.15,0.33 1.81,0.33c0.65,0 1.26,-0.11 1.82,-0.33c0.55,-0.22 1.03,-0.53 1.44,-0.92c0.4,-0.39 0.72,-0.86 0.95,-1.4c0.22,-0.55 0.34,-1.15 0.34,-1.81c0,-0.67 -0.12,-1.28 -0.34,-1.83c-0.23,-0.54 -0.55,-1 -0.95,-1.38c-0.41,-0.38 -0.89,-0.68 -1.44,-0.89a5.39,5.39 0 0 0 -1.82,-0.31c-0.66,0 -1.26,0.11 -1.81,0.31c-0.55,0.21 -1.03,0.51 -1.43,0.89c-0.4,0.38 -0.71,0.84 -0.94,1.38c-0.23,0.55 -0.34,1.16 -0.34,1.83c0,0.66 0.11,1.26 0.34,1.81m1.5,-3.02c0.14,-0.38 0.33,-0.7 0.59,-0.98c0.26,-0.28 0.56,-0.49 0.91,-0.66c0.36,-0.15 0.75,-0.23 1.19,-0.23c0.43,0 0.83,0.08 1.19,0.23c0.36,0.17 0.66,0.38 0.91,0.66c0.26,0.28 0.46,0.6 0.59,0.98c0.14,0.37 0.21,0.77 0.21,1.21c0,0.46 -0.07,0.87 -0.21,1.25c-0.13,0.37 -0.33,0.7 -0.59,0.98c-0.26,0.28 -0.57,0.49 -0.92,0.65c-0.36,0.15 -0.75,0.23 -1.18,0.23c-0.43,0 -0.82,-0.08 -1.18,-0.23c-0.35,-0.16 -0.66,-0.37 -0.91,-0.65c-0.26,-0.28 -0.46,-0.61 -0.6,-0.98c-0.14,-0.38 -0.21,-0.79 -0.21,-1.25c0,-0.44 0.07,-0.84 0.21,-1.21m11.48,5.45l1.45,0l1.98,-6.32l0.02,0l1.98,6.32l1.45,0l2.47,-8.43l-1.6,0l-1.67,6.19l-0.02,0l-1.82,-6.19l-1.55,0l-1.86,6.19l-0.02,0l-1.63,-6.19l-1.65,0l2.47,8.43zm11.54,0l1.5,0l0,-6.51l0.02,0l4.01,6.51l1.9,0l0,-8.43l-1.5,0l0,6.31l-0.02,0l-3.92,-6.31l-1.99,0l0,8.43z" fill="#000" id="svg_57"/>
  <path d="m68.03,31.17l4.05,-7.01l-7.46,-12.91l-8.09,0l0,-8.47l-7.34,4.23l-4.05,-7.01l-14.91,0l-4.04,7.01l-7.34,-4.23l0,8.47l-8.1,0l-7.45,12.91l4.04,7.01l-7.34,4.24l7.35,4.24l-4.05,7.01l7.45,12.91l8.1,0l0,8.47l7.34,-4.23l4.05,7l14.9,0l4.05,-7l7.34,4.23l0,-8.47l8.09,-0.01l7.46,-12.91l-4.05,-7l7.34,-4.24l-7.34,-4.24z" fill="#c4d82e" id="svg_58"/>
  <path d="m64.68,35.41c0,14.91 -12.09,26.99 -26.99,26.99c-14.91,0 -26.99,-12.08 -26.99,-26.99c0,-14.91 12.08,-26.99 26.99,-26.99c14.9,0 26.99,12.08 26.99,26.99" id="svg_60"/>
  <path d="m63.05,30.07l-5.02,-2.9l3.04,-5.25l-6.08,0l0,-5.8l-9.25,-5.34l-5.01,2.9l-3.04,-5.26l-3.04,5.26l-5.02,-2.9l-9.25,5.34l0,5.79l-6.07,0.01l3.04,5.25l-5.02,2.9l0,10.68l5.02,2.9l-3.04,5.25l6.08,0l0,5.8l9.24,5.34l5.02,-2.9l3.04,5.26l3.04,-5.26l5.01,2.9l9.25,-5.34l0,-5.79l6.07,-0.01l-3.03,-5.25l5.02,-2.9l0,-10.68z" fill="#00afd5" id="svg_61"/>
  <path d="m47.36,52.16c-9.25,5.34 -21.07,2.17 -26.41,-7.08c-5.34,-9.24 -2.17,-21.07 7.08,-26.41c9.24,-5.34 21.07,-2.17 26.41,7.08s2.17,21.07 -7.08,26.41" fill="#fff" id="svg_63"/>
  <path d="m53.26,33.24l2.08,-3.6l-3.83,-6.62l-4.15,0l0,-4.35l-3.77,2.17l-2.07,-3.59l-7.66,0l-2.07,3.59l-3.77,-2.17l0,4.35l-4.15,0l-3.83,6.62l2.08,3.6l-3.77,2.17l3.77,2.18l-2.08,3.6l3.83,6.62l4.15,0l0,4.35l3.77,-2.17l2.07,3.59l7.66,0l2.07,-3.59l3.77,2.17l0,-4.35l4.15,0l3.83,-6.63l-2.08,-3.59l3.77,-2.18l-3.77,-2.17zm-1.72,2.17c0,7.65 -6.2,13.86 -13.85,13.86c-7.65,0 -13.85,-6.21 -13.85,-13.86c0,-7.65 6.2,-13.85 13.85,-13.85c7.65,0 13.85,6.2 13.85,13.85" fill="#d80f81" id="svg_64"/>
  <path d="m50.71,32.67l-2.58,-1.49l1.56,-2.69l-3.11,0l0,-2.98l-4.75,-2.74l-2.58,1.49l-1.55,-2.7l-1.56,2.7l-2.58,-1.49l-4.74,2.74l0,2.98l-3.12,0l1.56,2.69l-2.58,1.49l0,5.48l2.58,1.49l-1.56,2.7l3.12,0l0,2.97l4.74,2.74l2.58,-1.48l1.56,2.69l1.55,-2.69l2.58,1.48l4.75,-2.74l0,-2.97l3.11,0l-1.56,-2.7l2.58,-1.49l0,-5.48zm-8.05,11.33c-4.75,2.74 -10.82,1.12 -13.56,-3.63c-2.73,-4.74 -1.11,-10.81 3.63,-13.55c4.75,-2.74 10.82,-1.11 13.56,3.63c2.74,4.75 1.11,10.82 -3.63,13.55" fill="#fdb913" id="svg_65"/>
 </g>
</svg>