<svg xmlns="http://www.w3.org/2000/svg" width="128.187" height="183.812" viewBox="0 0 128.187 183.812"><g id="Group_254" data-name="Group 254" transform="translate(679.58 394.009)"><path id="Path_214" data-name="Path 214" d="M1.887,0V-14.991H5.065V0ZM22.348,0h-4.04L11.787-11.341h-.092q.195,3,.195,4.286V0H9.049V-14.991h4.009L19.569-3.763h.072q-.154-2.922-.154-4.132v-7.1h2.861ZM39.631,0h-4.04L29.069-11.341h-.092q.195,3,.195,4.286V0h-2.84V-14.991h4.009L36.852-3.763h.072Q36.77-6.686,36.77-7.9v-7.1h2.861Zm17.59-7.516a8.135,8.135,0,0,1-1.846,5.722,6.842,6.842,0,0,1-5.291,2,6.842,6.842,0,0,1-5.291-2,8.167,8.167,0,0,1-1.846-5.742A8.055,8.055,0,0,1,44.8-13.253a6.921,6.921,0,0,1,5.306-1.974,6.825,6.825,0,0,1,5.286,1.989A8.156,8.156,0,0,1,57.221-7.516Zm-10.941,0a6.262,6.262,0,0,0,.954,3.784,3.337,3.337,0,0,0,2.851,1.271q3.8,0,3.8-5.055t-3.784-5.065A3.359,3.359,0,0,0,47.244-11.3,6.236,6.236,0,0,0,46.28-7.516Zm22.6-7.475h3.209L67,0H63.532L58.446-14.991h3.209l2.82,8.921q.236.79.487,1.841t.313,1.461a26.265,26.265,0,0,1,.769-3.3ZM82.528,0,81.441-3.568H75.975L74.888,0H71.464l5.291-15.053h3.886L85.952,0ZM80.682-6.234q-1.507-4.85-1.7-5.486t-.272-1q-.338,1.313-1.938,6.491ZM92.366,0H89.187V-12.346H85.116v-2.646h11.32v2.646H92.366Zm6.588,0V-14.991h3.179V0Zm15.714-14.991h3.209L112.781,0h-3.466l-5.086-14.991h3.209l2.82,8.921q.236.79.487,1.841t.313,1.461a26.265,26.265,0,0,1,.769-3.3ZM128.608,0h-8.634V-14.991h8.634v2.6h-5.455V-9.1h5.076v2.6h-5.076v3.866h5.455ZM7.67,25H4.491V12.654H.42V10.009h11.32v2.646H7.67Zm9.767-8.336h1.025a3.923,3.923,0,0,0,2.225-.5,1.793,1.793,0,0,0,.718-1.579,1.64,1.64,0,0,0-.733-1.518,4.449,4.449,0,0,0-2.271-.451h-.964Zm0,2.584V25H14.258V10.009h4.368a7.476,7.476,0,0,1,4.522,1.113A3.971,3.971,0,0,1,24.614,14.5a3.977,3.977,0,0,1-.728,2.353,4.817,4.817,0,0,1-2.061,1.615Q25.209,23.523,26.234,25H22.707l-3.579-5.752ZM37.508,25l-1.087-3.568H30.956L29.869,25H26.444L31.735,9.947h3.886L40.933,25Zm-1.846-6.234q-1.507-4.85-1.7-5.486t-.272-1q-.338,1.313-1.938,6.491ZM56.329,25h-4.04L45.768,13.659h-.092q.195,3,.195,4.286V25H43.03V10.009h4.009L53.55,21.237h.072q-.154-2.922-.154-4.132v-7.1h2.861Zm12.833-4.163a3.875,3.875,0,0,1-1.461,3.2,6.347,6.347,0,0,1-4.066,1.169,9.548,9.548,0,0,1-4.245-.9V21.35a17.494,17.494,0,0,0,2.569.954,7.6,7.6,0,0,0,1.923.277,2.734,2.734,0,0,0,1.6-.4,1.368,1.368,0,0,0,.559-1.189,1.313,1.313,0,0,0-.246-.784,2.754,2.754,0,0,0-.723-.661,18.593,18.593,0,0,0-1.943-1.015,9.21,9.21,0,0,1-2.061-1.241,4.658,4.658,0,0,1-1.1-1.384,3.95,3.95,0,0,1-.41-1.846,3.874,3.874,0,0,1,1.348-3.127A5.6,5.6,0,0,1,64.64,9.793a8.8,8.8,0,0,1,2.23.277,15.33,15.33,0,0,1,2.22.779l-1.025,2.471a15,15,0,0,0-1.984-.687,6.386,6.386,0,0,0-1.543-.195,2.043,2.043,0,0,0-1.384.42,1.387,1.387,0,0,0-.482,1.1,1.358,1.358,0,0,0,.195.733,2.142,2.142,0,0,0,.62.6A19.181,19.181,0,0,0,65.5,16.346a8.017,8.017,0,0,1,2.881,2.015A3.932,3.932,0,0,1,69.162,20.837Zm6.106-3.773h1.046a3.483,3.483,0,0,0,2.194-.579,2.028,2.028,0,0,0,.728-1.687,2.079,2.079,0,0,0-.61-1.651,2.859,2.859,0,0,0-1.912-.533H75.268Zm7.178-2.379a4.582,4.582,0,0,1-1.512,3.7,6.469,6.469,0,0,1-4.3,1.282H75.268V25H72.089V10.009h4.789a6.369,6.369,0,0,1,4.148,1.174A4.281,4.281,0,0,1,82.446,14.685Zm16.647,2.8a8.135,8.135,0,0,1-1.846,5.722,8,8,0,0,1-10.582,0,8.167,8.167,0,0,1-1.846-5.742,8.055,8.055,0,0,1,1.851-5.717,6.921,6.921,0,0,1,5.306-1.974,6.825,6.825,0,0,1,5.286,1.989A8.156,8.156,0,0,1,99.093,17.484Zm-10.941,0a6.262,6.262,0,0,0,.954,3.784,3.337,3.337,0,0,0,2.851,1.271q3.8,0,3.8-5.055t-3.784-5.065A3.359,3.359,0,0,0,89.115,13.7,6.236,6.236,0,0,0,88.152,17.484Zm17.437-.82h1.025a3.923,3.923,0,0,0,2.225-.5,1.793,1.793,0,0,0,.718-1.579,1.64,1.64,0,0,0-.733-1.518,4.449,4.449,0,0,0-2.271-.451h-.964Zm0,2.584V25h-3.179V10.009h4.368a7.476,7.476,0,0,1,4.522,1.113,3.971,3.971,0,0,1,1.466,3.379,3.977,3.977,0,0,1-.728,2.353,4.817,4.817,0,0,1-2.061,1.615q3.384,5.055,4.409,6.532h-3.527l-3.579-5.752ZM122.266,25h-3.179V12.654h-4.071V10.009h11.32v2.646h-4.071ZM10.736,45.837a3.875,3.875,0,0,1-1.461,3.2,6.347,6.347,0,0,1-4.066,1.169,9.548,9.548,0,0,1-4.245-.9V46.35a17.494,17.494,0,0,0,2.569.954,7.6,7.6,0,0,0,1.923.277,2.734,2.734,0,0,0,1.6-.4,1.368,1.368,0,0,0,.559-1.189,1.313,1.313,0,0,0-.246-.784,2.754,2.754,0,0,0-.723-.661A18.592,18.592,0,0,0,4.707,43.53a9.21,9.21,0,0,1-2.061-1.241,4.658,4.658,0,0,1-1.1-1.384,3.95,3.95,0,0,1-.41-1.846,3.874,3.874,0,0,1,1.348-3.127,5.6,5.6,0,0,1,3.727-1.138,8.8,8.8,0,0,1,2.23.277,15.33,15.33,0,0,1,2.22.779L9.639,38.321a15,15,0,0,0-1.984-.687,6.386,6.386,0,0,0-1.543-.195,2.043,2.043,0,0,0-1.384.42,1.387,1.387,0,0,0-.482,1.1,1.358,1.358,0,0,0,.195.733,2.142,2.142,0,0,0,.62.6,19.181,19.181,0,0,0,2.015,1.051,8.017,8.017,0,0,1,2.881,2.015A3.932,3.932,0,0,1,10.736,45.837ZM27.27,42.484a8.135,8.135,0,0,1-1.846,5.722,6.842,6.842,0,0,1-5.291,2,6.842,6.842,0,0,1-5.291-2A8.167,8.167,0,0,1,13,42.463a8.055,8.055,0,0,1,1.851-5.717,6.921,6.921,0,0,1,5.306-1.974,6.825,6.825,0,0,1,5.286,1.989A8.156,8.156,0,0,1,27.27,42.484Zm-10.941,0a6.262,6.262,0,0,0,.954,3.784,3.337,3.337,0,0,0,2.851,1.271q3.8,0,3.8-5.055t-3.784-5.065A3.359,3.359,0,0,0,17.293,38.7,6.236,6.236,0,0,0,16.329,42.484ZM30.587,50V35.009h3.179V47.375h6.081V50ZM54.658,35.009v9.7a5.592,5.592,0,0,1-.743,2.912,4.838,4.838,0,0,1-2.148,1.917,7.682,7.682,0,0,1-3.322.667,6.361,6.361,0,0,1-4.491-1.482,5.256,5.256,0,0,1-1.6-4.055V35.009h3.168v9.177a3.844,3.844,0,0,0,.7,2.543,2.9,2.9,0,0,0,2.307.81,2.834,2.834,0,0,0,2.261-.815,3.864,3.864,0,0,0,.7-2.558V35.009ZM64.322,50H61.143V37.654H57.072V35.009h11.32v2.646H64.322Zm6.588,0V35.009h3.179V50Zm20.769-7.516a8.135,8.135,0,0,1-1.846,5.722,6.842,6.842,0,0,1-5.291,2,6.842,6.842,0,0,1-5.291-2,8.167,8.167,0,0,1-1.846-5.742,8.055,8.055,0,0,1,1.851-5.717,6.921,6.921,0,0,1,5.306-1.974,6.825,6.825,0,0,1,5.286,1.989A8.156,8.156,0,0,1,91.679,42.484Zm-10.941,0a6.262,6.262,0,0,0,.954,3.784,3.337,3.337,0,0,0,2.851,1.271q3.8,0,3.8-5.055t-3.784-5.065A3.359,3.359,0,0,0,81.7,38.7,6.236,6.236,0,0,0,80.738,42.484ZM108.3,50h-4.04L97.734,38.659h-.092q.195,3,.195,4.286V50H95V35.009h4.009l6.511,11.228h.072q-.154-2.922-.154-4.132v-7.1H108.3Zm12.833-4.163a3.875,3.875,0,0,1-1.461,3.2,6.347,6.347,0,0,1-4.066,1.169,9.548,9.548,0,0,1-4.245-.9V46.35a17.494,17.494,0,0,0,2.569.954,7.6,7.6,0,0,0,1.923.277,2.734,2.734,0,0,0,1.6-.4,1.368,1.368,0,0,0,.559-1.189,1.313,1.313,0,0,0-.246-.784,2.754,2.754,0,0,0-.723-.661A18.592,18.592,0,0,0,115.1,43.53a9.21,9.21,0,0,1-2.061-1.241,4.658,4.658,0,0,1-1.1-1.384,3.95,3.95,0,0,1-.41-1.846,3.874,3.874,0,0,1,1.348-3.127,5.6,5.6,0,0,1,3.727-1.138,8.8,8.8,0,0,1,2.23.277,15.33,15.33,0,0,1,2.22.779l-1.025,2.471a15,15,0,0,0-1.984-.687,6.386,6.386,0,0,0-1.543-.195,2.043,2.043,0,0,0-1.384.42,1.387,1.387,0,0,0-.482,1.1,1.358,1.358,0,0,0,.195.733,2.142,2.142,0,0,0,.62.6,19.181,19.181,0,0,0,2.015,1.051,8.017,8.017,0,0,1,2.881,2.015A3.932,3.932,0,0,1,121.128,45.837Z" transform="translate(-680 -260.402)" fill="#43af2a"></path><path id="Path_205" data-name="Path 205" d="M96.6-30.833c-1.588-1.231-3.162-2.239-4.552-3.127-3.955-2.53-6-3.992-5.624-7.051a4.466,4.466,0,0,1,1.572-2.877,6.189,6.189,0,0,1,4.313-1.391,14.325,14.325,0,0,1,8.592,3.4l1.026.985,9.638-15.575-.839-.559c-.329-.219-8.155-5.365-16.382-5.365-14.833,0-24.7,8.2-26.394,21.936-.925,7.5,1.336,13.03,7.33,17.918,1.617,1.339,3.121,2.4,4.446,3.327,4.074,2.864,5.426,4.009,4.32,7.079-.569,1.577-3.394,2.994-7.7,2.659a22.632,22.632,0,0,1-10.682-4.219l-1.7-1.325L61.481,5.157l.359.35c.935.91,4.765,3.882,14.816,3.882,16.588,0,27.063-7.8,28.741-21.407,1.186-9.616-3.528-14.725-8.8-18.815" transform="translate(-668.038 -296.992)" fill="#fff"></path><path id="Path_206" data-name="Path 206" d="M8.358-58.785,0,8.978H20.317l9.621-78A132.639,132.639,0,0,0,8.358-58.785" transform="translate(-677.613 -297.989)" fill="#fff"></path><path id="Path_207" data-name="Path 207" d="M65.59-37.83l8.856-19.608-1.454-.132a120.4,120.4,0,0,0-13.072-.52,85.393,85.393,0,0,0-8.506.911L53.772-76.3c-6.469.963-14,3.594-21.088,6.253L25.338-10.486a25.181,25.181,0,0,0,.3,8.618,17.862,17.862,0,0,0,3.026,6.813A14.375,14.375,0,0,0,34.26,9.434a18.565,18.565,0,0,0,7.825,1.578c6.087,0,16.993-1.682,19.1-3.254l.472-.351L64.112-12.48l-1.825.884c-2.7,1.307-7.71,1.763-11.234,1.623-1.982-.076-3.248-.482-3.984-1.283-.531-.575-1.07-2.024-.623-5.653L49-37.63Z" transform="translate(-673.702 -299.085)" fill="#fff"></path><path id="Path_208" data-name="Path 208" d="M29.643-88.8a10.62,10.62,0,0,0-8.3-3.684A13.627,13.627,0,0,0,12.127-88.8a13.7,13.7,0,0,0-4.772,8.717,10.679,10.679,0,0,0,2.622,8.718,10.612,10.612,0,0,0,8.3,3.684,13.624,13.624,0,0,0,9.212-3.684,13.7,13.7,0,0,0,4.776-8.718A10.689,10.689,0,0,0,29.643-88.8" transform="translate(-676.483 -301.521)" fill="#43af2a"></path><path id="Path_209" data-name="Path 209" d="M0,13.917H121.138V-92.488H0Z" transform="translate(-677.613 -301.521)" fill="none"></path></g></svg>