<svg xmlns="http://www.w3.org/2000/svg" width="319.704" height="129.056" viewBox="0 0 319.704 129.056"><g id="Group_253" data-name="Group 253" transform="translate(416.5 265.206)"><path id="Path_213" data-name="Path 213" d="M2.008,11.528V-6.96h3.92V11.528Zm25.234,0H22.26L14.217-2.458H14.1q.24,3.705.24,5.286v8.7h-3.5V-6.96h4.944l8.03,13.847H23.9q-.19-3.6-.19-5.1V-6.96h3.528Zm21.314,0H43.574L35.531-2.458h-.114q.24,3.705.24,5.286v8.7h-3.5V-6.96H37.1l8.03,13.847h.089q-.19-3.6-.19-5.1V-6.96h3.528ZM70.249,2.258q0,4.59-2.276,7.056a8.438,8.438,0,0,1-6.525,2.466,8.438,8.438,0,0,1-6.525-2.466q-2.276-2.466-2.276-7.081t2.283-7.05a8.535,8.535,0,0,1,6.544-2.434A8.416,8.416,0,0,1,67.992-4.8Q70.249-2.345,70.249,2.258Zm-13.493,0a7.723,7.723,0,0,0,1.176,4.666,4.115,4.115,0,0,0,3.515,1.568q4.691,0,4.691-6.234T61.473-3.988a4.143,4.143,0,0,0-3.528,1.574A7.69,7.69,0,0,0,56.756,2.258ZM84.633-6.96h3.958L82.306,11.528H78.032L71.76-6.96h3.958l3.478,11q.291.974.6,2.27t.386,1.8a32.39,32.39,0,0,1,.948-4.072Zm16.825,18.488-1.34-4.4h-6.74l-1.34,4.4H87.813L94.338-7.036h4.793l6.55,18.564ZM99.181,3.839q-1.859-5.981-2.093-6.765t-.335-1.239q-.417,1.619-2.39,8Zm14.409,7.688h-3.92V-3.7h-5.02V-6.96h13.961V-3.7h-5.02Zm8.124,0V-6.96h3.92V11.528ZM141.094-6.96h3.958l-6.285,18.488h-4.274L128.221-6.96h3.958l3.478,11q.291.974.6,2.27t.386,1.8a32.392,32.392,0,0,1,.948-4.072Zm17.191,18.488H147.638V-6.96h10.647v3.212h-6.727V.311h6.259V3.523h-6.259V8.29h6.727ZM9.141,42.6H5.22V27.38H.2V24.117H14.161V27.38H9.141ZM21.185,32.324H22.45a4.838,4.838,0,0,0,2.744-.62,2.212,2.212,0,0,0,.885-1.947,2.023,2.023,0,0,0-.9-1.872,5.487,5.487,0,0,0-2.8-.556H21.185Zm0,3.187V42.6h-3.92V24.117h5.387q3.768,0,5.577,1.372a4.9,4.9,0,0,1,1.808,4.167,4.905,4.905,0,0,1-.9,2.9A5.941,5.941,0,0,1,26.6,34.55q4.173,6.234,5.438,8.055h-4.35l-4.413-7.094ZM45.938,42.6,44.6,38.2h-6.74l-1.34,4.4H32.294l6.525-18.564h4.793L50.162,42.6Zm-2.276-7.688q-1.859-5.981-2.093-6.765t-.335-1.239q-.417,1.619-2.39,8ZM69.149,42.6H64.166L56.124,28.619H56.01q.24,3.705.24,5.286v8.7h-3.5V24.117h4.944l8.03,13.847h.089q-.19-3.6-.19-5.1V24.117h3.528Zm15.826-5.134a4.779,4.779,0,0,1-1.8,3.945,7.828,7.828,0,0,1-5.014,1.442,11.775,11.775,0,0,1-5.235-1.113V38.1a21.574,21.574,0,0,0,3.168,1.176,9.373,9.373,0,0,0,2.371.341,3.371,3.371,0,0,0,1.979-.493,1.687,1.687,0,0,0,.689-1.467,1.619,1.619,0,0,0-.3-.967,3.4,3.4,0,0,0-.892-.816,22.93,22.93,0,0,0-2.4-1.252A11.358,11.358,0,0,1,75,33.1a5.744,5.744,0,0,1-1.353-1.707,4.872,4.872,0,0,1-.506-2.276A4.778,4.778,0,0,1,74.8,25.255a6.91,6.91,0,0,1,4.6-1.4,10.855,10.855,0,0,1,2.75.341,18.905,18.905,0,0,1,2.738.961L83.621,28.2a18.5,18.5,0,0,0-2.447-.847,7.876,7.876,0,0,0-1.9-.24,2.52,2.52,0,0,0-1.707.518,1.71,1.71,0,0,0-.594,1.353,1.675,1.675,0,0,0,.24.9,2.642,2.642,0,0,0,.765.746,23.657,23.657,0,0,0,2.485,1.3,9.887,9.887,0,0,1,3.553,2.485A4.85,4.85,0,0,1,84.974,37.471Zm7.53-4.654h1.29A4.3,4.3,0,0,0,96.5,32.1a2.5,2.5,0,0,0,.9-2.08,2.564,2.564,0,0,0-.752-2.036,3.525,3.525,0,0,0-2.358-.658H92.5Zm8.852-2.934a5.651,5.651,0,0,1-1.865,4.565,7.977,7.977,0,0,1-5.3,1.581H92.5V42.6h-3.92V24.117H94.49A7.855,7.855,0,0,1,99.6,25.565,5.279,5.279,0,0,1,101.356,29.884Zm20.53,3.452q0,4.59-2.276,7.056a9.866,9.866,0,0,1-13.05,0q-2.276-2.466-2.276-7.081t2.283-7.05a8.536,8.536,0,0,1,6.544-2.434,8.416,8.416,0,0,1,6.519,2.453Q121.886,28.733,121.886,33.336Zm-13.493,0A7.723,7.723,0,0,0,109.569,38a4.115,4.115,0,0,0,3.515,1.568q4.691,0,4.691-6.234t-4.666-6.247a4.143,4.143,0,0,0-3.528,1.574A7.69,7.69,0,0,0,108.393,33.336Zm21.5-1.012h1.265a4.838,4.838,0,0,0,2.744-.62,2.212,2.212,0,0,0,.885-1.947,2.023,2.023,0,0,0-.9-1.872,5.487,5.487,0,0,0-2.8-.556H129.9Zm0,3.187V42.6h-3.92V24.117h5.387q3.768,0,5.577,1.372a4.9,4.9,0,0,1,1.808,4.167,4.905,4.905,0,0,1-.9,2.9,5.941,5.941,0,0,1-2.542,1.992q4.173,6.234,5.438,8.055H136.4l-4.413-7.094ZM150.464,42.6h-3.92V27.38h-5.02V24.117h13.961V27.38h-5.02ZM12.922,68.548a4.779,4.779,0,0,1-1.8,3.945,7.828,7.828,0,0,1-5.014,1.442A11.775,11.775,0,0,1,.87,72.823V69.181a21.574,21.574,0,0,0,3.168,1.176,9.373,9.373,0,0,0,2.371.341A3.371,3.371,0,0,0,8.388,70.2a1.687,1.687,0,0,0,.689-1.467,1.619,1.619,0,0,0-.3-.967,3.4,3.4,0,0,0-.892-.816,22.928,22.928,0,0,0-2.4-1.252,11.358,11.358,0,0,1-2.542-1.53,5.744,5.744,0,0,1-1.353-1.707,4.872,4.872,0,0,1-.506-2.276,4.778,4.778,0,0,1,1.663-3.857,6.91,6.91,0,0,1,4.6-1.4,10.854,10.854,0,0,1,2.75.341,18.9,18.9,0,0,1,2.738.961l-1.265,3.048a18.5,18.5,0,0,0-2.447-.847,7.876,7.876,0,0,0-1.9-.24,2.52,2.52,0,0,0-1.707.518,1.71,1.71,0,0,0-.594,1.353,1.675,1.675,0,0,0,.24.9,2.642,2.642,0,0,0,.765.746,23.654,23.654,0,0,0,2.485,1.3,9.887,9.887,0,0,1,3.553,2.485A4.85,4.85,0,0,1,12.922,68.548Zm20.391-4.135q0,4.59-2.276,7.056a8.438,8.438,0,0,1-6.525,2.466,8.438,8.438,0,0,1-6.525-2.466Q15.71,69,15.71,64.388t2.283-7.05A8.535,8.535,0,0,1,24.536,54.9a8.417,8.417,0,0,1,6.519,2.453Q33.312,59.81,33.312,64.413Zm-13.493,0A7.723,7.723,0,0,0,21,69.079a4.115,4.115,0,0,0,3.515,1.568q4.691,0,4.691-6.234t-4.666-6.247a4.143,4.143,0,0,0-3.528,1.574A7.69,7.69,0,0,0,19.819,64.413ZM37.4,73.682V55.195h3.92v15.25h7.5v3.237ZM67.088,55.195V67.157a6.9,6.9,0,0,1-.917,3.591,5.967,5.967,0,0,1-2.649,2.365,9.474,9.474,0,0,1-4.1.822,7.845,7.845,0,0,1-5.539-1.827,6.482,6.482,0,0,1-1.973-5V55.195H55.82V66.512a4.741,4.741,0,0,0,.86,3.136,3.575,3.575,0,0,0,2.845,1,3.5,3.5,0,0,0,2.788-1.005,4.765,4.765,0,0,0,.866-3.155V55.195ZM79.006,73.682h-3.92V58.457h-5.02V55.195H84.026v3.263h-5.02Zm8.124,0V55.195h3.92V73.682Zm25.613-9.269q0,4.59-2.276,7.056a8.438,8.438,0,0,1-6.525,2.466,8.438,8.438,0,0,1-6.525-2.466Q95.141,69,95.141,64.388t2.283-7.05a8.535,8.535,0,0,1,6.544-2.434,8.417,8.417,0,0,1,6.519,2.453Q112.743,59.81,112.743,64.413Zm-13.493,0a7.723,7.723,0,0,0,1.176,4.666,4.115,4.115,0,0,0,3.515,1.568q4.691,0,4.691-6.234t-4.666-6.247a4.143,4.143,0,0,0-3.528,1.574A7.69,7.69,0,0,0,99.25,64.413Zm33.984,9.269h-4.982L120.21,59.7H120.1q.24,3.705.24,5.286v8.7h-3.5V55.195h4.944l8.03,13.847h.089q-.19-3.6-.19-5.1V55.195h3.528Zm15.826-5.134a4.779,4.779,0,0,1-1.8,3.945,7.828,7.828,0,0,1-5.014,1.442,11.775,11.775,0,0,1-5.235-1.113V69.181a21.574,21.574,0,0,0,3.168,1.176,9.373,9.373,0,0,0,2.371.341,3.371,3.371,0,0,0,1.979-.493,1.687,1.687,0,0,0,.689-1.467,1.619,1.619,0,0,0-.3-.967,3.4,3.4,0,0,0-.891-.816,22.927,22.927,0,0,0-2.4-1.252,11.358,11.358,0,0,1-2.542-1.53,5.744,5.744,0,0,1-1.353-1.707,4.872,4.872,0,0,1-.506-2.276,4.778,4.778,0,0,1,1.663-3.857,6.91,6.91,0,0,1,4.6-1.4,10.854,10.854,0,0,1,2.75.341,18.906,18.906,0,0,1,2.738.961l-1.265,3.048a18.5,18.5,0,0,0-2.447-.847,7.876,7.876,0,0,0-1.9-.24,2.52,2.52,0,0,0-1.707.518,1.71,1.71,0,0,0-.594,1.353,1.674,1.674,0,0,0,.24.9,2.642,2.642,0,0,0,.765.746,23.657,23.657,0,0,0,2.485,1.3,9.887,9.887,0,0,1,3.553,2.485A4.85,4.85,0,0,1,149.06,68.548Z" transform="translate(-255.081 -216.691)" fill="#43af2a"></path><path id="Path_205" data-name="Path 205" d="M104.075-24.115c-1.926-1.493-3.835-2.715-5.52-3.793-4.8-3.068-7.279-4.842-6.822-8.552a5.417,5.417,0,0,1,1.907-3.49,7.507,7.507,0,0,1,5.231-1.687,17.374,17.374,0,0,1,10.421,4.125l1.245,1.194,11.69-18.891-1.018-.678c-.4-.265-9.891-6.507-19.869-6.507-17.99,0-29.957,9.945-32.012,26.606-1.122,9.1,1.621,15.8,8.891,21.732,1.961,1.624,3.785,2.905,5.392,4.035,4.942,3.473,6.581,4.863,5.239,8.586C88.158.479,84.731,2.2,79.514,1.79c-7.036-.553-12.9-5.072-12.956-5.117L64.5-4.934,61.481,19.537l.435.424c1.134,1.1,5.779,4.708,17.97,4.708,20.119,0,32.825-9.464,34.86-25.964,1.439-11.663-4.279-17.86-10.672-22.82" transform="translate(-391.8 -160.819)" fill="#1b365d"></path><path id="Path_206" data-name="Path 206" d="M10.138-56.606,0,25.583H24.642L36.31-69.02c-8.191,2.785-17.782,7.608-26.173,12.415" transform="translate(-416.5 -163.439)" fill="#1b365d"></path><path id="Path_207" data-name="Path 207" d="M74.207-29.64,84.948-53.422l-1.763-.16a146.029,146.029,0,0,0-15.855-.631,103.578,103.578,0,0,0-10.317,1.105L59.874-76.3c-7.847,1.168-16.98,4.359-25.577,7.584L25.387,3.524a30.541,30.541,0,0,0,.368,10.453,21.664,21.664,0,0,0,3.67,8.263,17.435,17.435,0,0,0,6.784,5.445A22.517,22.517,0,0,0,45.7,29.6c7.383,0,20.611-2.04,23.169-3.946l.573-.426L72.415,1.106,70.2,2.177C66.924,3.762,60.85,4.315,56.576,4.146c-2.4-.092-3.94-.585-4.832-1.556-.644-.7-1.3-2.454-.755-6.857l3.1-25.131Z" transform="translate(-406.412 -166.317)" fill="#1b365d"></path><path id="Path_208" data-name="Path 208" d="M34.409-88.02a12.881,12.881,0,0,0-10.071-4.468A16.527,16.527,0,0,0,13.164-88.02,16.612,16.612,0,0,0,7.376-77.447a12.953,12.953,0,0,0,3.18,10.574A12.871,12.871,0,0,0,20.627-62.4,16.525,16.525,0,0,0,31.8-66.873a16.617,16.617,0,0,0,5.793-10.574A12.965,12.965,0,0,0,34.409-88.02" transform="translate(-413.585 -172.718)" fill="#43af2a"></path></g></svg>